<svg width="370" height="240" viewBox="0 0 370 240" fill="none" xmlns="http://www.w3.org/2000/svg">
<g opacity="0.5">
<path fill-rule="evenodd" clip-rule="evenodd" d="M25.5199 20.6667C24.903 20.6669 24.2971 20.8302 23.7636 21.14C23.2301 21.4498 22.7879 21.8951 22.4819 22.4307L20.1568 26.5001H18.7999C18.6762 26.5001 18.5575 26.5492 18.4699 26.6368C18.3824 26.7243 18.3333 26.843 18.3333 26.9667V27.5209C18.333 27.7292 18.4025 27.9317 18.5306 28.0959C18.6587 28.2602 18.8381 28.3769 19.0403 28.4274L19.0683 28.4332C18.5811 29.4444 18.396 30.5745 18.5351 31.6882L19.3809 38.4561C19.4515 39.0205 19.7257 39.5397 20.1522 39.9161C20.5787 40.2925 21.1279 40.5002 21.6968 40.5001H21.8333C22.4521 40.5001 23.0456 40.2542 23.4832 39.8167C23.9208 39.3791 24.1666 38.7856 24.1666 38.1667H35.8333C35.8333 38.7856 36.0791 39.3791 36.5167 39.8167C36.9543 40.2542 37.5477 40.5001 38.1666 40.5001H38.3031C38.8719 40.5002 39.4212 40.2925 39.8476 39.9161C40.2741 39.5397 40.5484 39.0205 40.6189 38.4561L41.4648 31.6894C41.6039 30.5757 41.4187 29.4455 40.9316 28.4344L40.9596 28.4274C41.1617 28.3769 41.3411 28.2602 41.4692 28.0959C41.5973 27.9317 41.6668 27.7292 41.6666 27.5209V26.9667C41.6666 26.843 41.6174 26.7243 41.5299 26.6368C41.4424 26.5492 41.3237 26.5001 41.1999 26.5001H39.8431L37.5179 22.4307C37.2119 21.8951 36.7698 21.4498 36.2363 21.14C35.7028 20.8302 35.0968 20.6669 34.4799 20.6667H25.5199ZM37.4923 27.0881L35.4926 23.5881C35.3905 23.4093 35.2429 23.2608 35.0649 23.1575C34.8868 23.0543 34.6846 22.9999 34.4788 23.0001H25.5211C25.3152 22.9999 25.113 23.0543 24.935 23.1575C24.7569 23.2608 24.6093 23.4093 24.5073 23.5881L22.5076 27.0881C22.4063 27.2655 22.3533 27.4664 22.354 27.6707C22.3547 27.875 22.409 28.0755 22.5115 28.2522C22.6141 28.429 22.7612 28.5757 22.9382 28.6776C23.1152 28.7796 23.3159 28.8333 23.5203 28.8334H36.4796C36.6839 28.8333 36.8846 28.7796 37.0616 28.6776C37.2386 28.5757 37.3858 28.429 37.4883 28.2522C37.5908 28.0755 37.6452 27.875 37.6459 27.6707C37.6466 27.4664 37.5936 27.2655 37.4923 27.0881ZM21.8333 33.5456V32.7289C21.8332 32.6279 21.8594 32.5285 21.9093 32.4406C21.9592 32.3527 22.0311 32.2793 22.1179 32.2276C22.2047 32.1758 22.3034 32.1475 22.4045 32.1454C22.5055 32.1433 22.6054 32.1675 22.6943 32.2156L25.8933 33.9422C26.3284 34.1779 26.1476 34.8394 25.6529 34.8196L22.9533 34.7111C22.6524 34.699 22.3678 34.5711 22.1591 34.3541C21.9504 34.1371 21.8336 33.8478 21.8333 33.5467V33.5456ZM38.1666 32.7289V33.5456C38.1668 33.8471 38.0503 34.137 37.8415 34.3545C37.6327 34.572 37.3478 34.7002 37.0466 34.7122L34.3469 34.8196C33.8523 34.8394 33.6703 34.1779 34.1066 33.9422L37.3056 32.2156C37.3945 32.1675 37.4943 32.1433 37.5954 32.1454C37.6964 32.1475 37.7952 32.1758 37.882 32.2276C37.9688 32.2793 38.0407 32.3527 38.0905 32.4406C38.1404 32.5285 38.1666 32.6279 38.1666 32.7289Z" fill="white"/>
<path fill-rule="evenodd" clip-rule="evenodd" d="M106.16 22.095C106.774 22.0631 107.513 22.0935 108.13 22.1146C111.864 22.2422 115.958 23.2699 118.821 25.7835C119.98 26.8006 120.94 28.2055 120.997 29.7855C121.048 31.2147 120.368 32.5512 119.407 33.5833C117.222 35.93 113.878 37.117 110.78 37.638C109.851 37.7942 108.851 37.8608 107.921 37.9066C103.46 38.0321 98.6433 37.2259 95.166 34.2249C92.7092 32.1046 92.1579 28.833 94.4736 26.388C97.3744 23.3253 102.008 22.3051 106.063 22.1009C106.096 22.0985 106.128 22.0967 106.16 22.095ZM106.442 23.5042C105.435 23.5386 104.368 23.584 103.365 23.7581C100.724 24.2166 97.838 25.0643 95.915 27.0286C94.0944 28.8885 94.3069 31.4171 96.2324 33.1155C98.4333 35.0567 101.436 35.9008 104.302 36.2484C105.279 36.3581 106.642 36.4216 107.608 36.3812L107.684 36.3782C108.361 36.3362 109.088 36.3424 109.762 36.2523C112.773 35.8491 116.115 34.9643 118.248 32.6732C120.066 30.7202 119.573 28.2201 117.615 26.5931C114.548 24.0443 110.312 23.406 106.442 23.5042ZM106.025 24.2952C109.77 24.1365 114.095 24.7255 117.038 27.2454C118.683 28.6538 118.965 30.79 117.416 32.39C115.143 34.7372 111.195 35.5691 108.05 35.6985L107.994 35.7015C104.328 35.8805 99.8288 35.1956 96.9502 32.7415C95.3382 31.367 95.0251 29.1599 96.5722 27.596C98.8456 25.2981 102.799 24.4403 105.908 24.303C105.947 24.3 105.986 24.2971 106.025 24.2952ZM113.379 27.2288C113.082 27.1621 112.675 27.0976 112.373 27.137C111.737 27.2154 111.139 27.3426 110.721 27.8831C110.485 28.193 110.383 28.5854 110.439 28.971C110.588 30.0147 111.825 30.2254 112.689 30.4144C113.034 30.4898 114.191 30.738 113.698 31.39C113.336 31.8692 112.194 31.8691 111.771 31.4749C111.561 31.3016 111.529 31.1477 111.464 30.8939C111.121 30.8784 110.672 30.8707 110.328 30.8958C110.304 32.2031 111.37 32.6589 112.526 32.68C113.261 32.6671 113.995 32.5982 114.55 32.0521C115.068 31.5411 115.099 30.5336 114.545 30.0433C113.801 29.3855 112.726 29.425 111.853 29.0638C111.541 28.9347 111.471 28.5272 111.714 28.2952C111.928 28.0857 112.308 28.0055 112.599 28.013C113.129 28.0269 113.448 28.1847 113.645 28.678C113.878 28.6819 114.494 28.7182 114.674 28.6292C114.729 28.545 114.723 28.4396 114.701 28.3441C114.558 27.7349 113.954 27.3582 113.379 27.2288ZM106.17 27.2493C105.832 27.2421 105.376 27.2252 105.047 27.2571C105.021 27.2994 105.007 27.328 105.003 27.3782C104.96 27.8785 105.002 28.4014 105.004 28.9046C105.006 29.4879 104.975 30.0793 105.005 30.6614C105.015 30.8648 105.039 31.0711 105.088 31.2689C105.203 31.7354 105.467 32.1113 105.885 32.3548C106.493 32.709 107.449 32.7568 108.126 32.5706C108.618 32.435 109.06 32.1419 109.312 31.6907C109.687 31.0222 109.546 29.0273 109.549 28.2064C109.549 27.9059 109.557 27.5485 109.531 27.2542C109.212 27.2415 108.73 27.2265 108.414 27.2601C108.285 28.4358 108.529 29.883 108.312 31.0276C108.142 31.9151 106.286 32.0012 106.206 30.7894C106.129 29.6127 106.219 28.4244 106.17 27.2493ZM101.311 27.2386C100.863 27.2405 100.282 27.2245 99.8428 27.2571C99.7946 27.3131 99.7782 27.3607 99.7773 27.4349C99.7594 29.0736 99.7534 30.7173 99.7783 32.3558C99.7791 32.4058 99.7901 32.4495 99.8056 32.4964C99.9889 32.6248 100.674 32.5701 100.916 32.5511C100.941 31.9232 100.93 31.2466 100.93 30.6146L101.897 30.6126C102.071 30.9233 102.953 32.3162 103.151 32.556L103.485 32.5677C103.805 32.566 104.192 32.5735 104.505 32.5472C104.258 32.0874 103.378 30.9491 103.029 30.4622C104.37 30.0983 104.602 28.1569 103.333 27.4798C103.141 27.3781 102.932 27.3098 102.717 27.2776C102.354 27.2218 101.694 27.2369 101.311 27.2386ZM100.929 28.1077C101.41 28.1028 102.098 28.0484 102.541 28.1712C103.127 28.3337 103.22 29.0588 102.827 29.4749C102.381 29.809 101.513 29.7092 100.929 29.7083C100.922 29.1803 100.929 28.637 100.929 28.1077Z" fill="white"/>
<path fill-rule="evenodd" clip-rule="evenodd" d="M179.52 20.6667C178.903 20.6669 178.297 20.8302 177.763 21.14C177.23 21.4498 176.788 21.8951 176.482 22.4307L174.157 26.5001H172.8C172.676 26.5001 172.557 26.5492 172.47 26.6368C172.382 26.7243 172.333 26.843 172.333 26.9667V27.5209C172.333 27.7292 172.402 27.9317 172.53 28.0959C172.658 28.2602 172.838 28.3769 173.04 28.4274L173.068 28.4332C172.581 29.4444 172.396 30.5745 172.535 31.6882L173.381 38.4561C173.451 39.0205 173.725 39.5397 174.152 39.9161C174.578 40.2925 175.128 40.5002 175.697 40.5001H175.833C176.452 40.5001 177.045 40.2542 177.483 39.8167C177.921 39.3791 178.166 38.7856 178.166 38.1667H189.833C189.833 38.7856 190.079 39.3791 190.516 39.8167C190.954 40.2542 191.548 40.5001 192.166 40.5001H192.303C192.872 40.5002 193.421 40.2925 193.847 39.9161C194.274 39.5397 194.548 39.0205 194.619 38.4561L195.465 31.6894C195.604 30.5757 195.418 29.4455 194.931 28.4344L194.959 28.4274C195.161 28.3769 195.341 28.2602 195.469 28.0959C195.597 27.9317 195.667 27.7292 195.666 27.5209V26.9667C195.666 26.843 195.617 26.7243 195.53 26.6368C195.442 26.5492 195.323 26.5001 195.2 26.5001H193.843L191.518 22.4307C191.212 21.8951 190.77 21.4498 190.236 21.14C189.703 20.8302 189.097 20.6669 188.48 20.6667H179.52ZM191.492 27.0881L189.492 23.5881C189.39 23.4093 189.243 23.2608 189.065 23.1575C188.887 23.0543 188.684 22.9999 188.479 23.0001H179.521C179.315 22.9999 179.113 23.0543 178.935 23.1575C178.757 23.2608 178.609 23.4093 178.507 23.5881L176.507 27.0881C176.406 27.2655 176.353 27.4664 176.354 27.6707C176.354 27.875 176.409 28.0755 176.511 28.2522C176.614 28.429 176.761 28.5757 176.938 28.6776C177.115 28.7796 177.316 28.8333 177.52 28.8334H190.479C190.684 28.8333 190.884 28.7796 191.061 28.6776C191.238 28.5757 191.386 28.429 191.488 28.2522C191.591 28.0755 191.645 27.875 191.646 27.6707C191.646 27.4664 191.593 27.2655 191.492 27.0881ZM175.833 33.5456V32.7289C175.833 32.6279 175.859 32.5285 175.909 32.4406C175.959 32.3527 176.031 32.2793 176.118 32.2276C176.204 32.1758 176.303 32.1475 176.404 32.1454C176.505 32.1433 176.605 32.1675 176.694 32.2156L179.893 33.9422C180.328 34.1779 180.147 34.8394 179.653 34.8196L176.953 34.7111C176.652 34.699 176.368 34.5711 176.159 34.3541C175.95 34.1371 175.833 33.8478 175.833 33.5467V33.5456ZM192.166 32.7289V33.5456C192.167 33.8471 192.05 34.137 191.841 34.3545C191.632 34.572 191.348 34.7002 191.046 34.7122L188.347 34.8196C187.852 34.8394 187.67 34.1779 188.106 33.9422L191.305 32.2156C191.394 32.1675 191.494 32.1433 191.595 32.1454C191.696 32.1475 191.795 32.1758 191.882 32.2276C191.969 32.2793 192.04 32.3527 192.09 32.4406C192.14 32.5285 192.166 32.6279 192.166 32.7289Z" fill="white"/>
<path fill-rule="evenodd" clip-rule="evenodd" d="M260.16 22.095C260.774 22.0631 261.512 22.0935 262.13 22.1146C265.863 22.2422 269.958 23.2699 272.821 25.7835C273.979 26.8006 274.94 28.2055 274.997 29.7855C275.048 31.2147 274.368 32.5512 273.407 33.5833C271.221 35.93 267.878 37.117 264.78 37.638C263.851 37.7942 262.85 37.8608 261.921 37.9066C257.46 38.0321 252.643 37.2259 249.166 34.2249C246.709 32.1046 246.158 28.833 248.473 26.388C251.374 23.3253 256.008 22.3051 260.063 22.1009C260.095 22.0985 260.128 22.0967 260.16 22.095ZM260.442 23.5042C259.435 23.5386 258.368 23.584 257.365 23.7581C254.724 24.2166 251.838 25.0643 249.915 27.0286C248.094 28.8885 248.307 31.4171 250.232 33.1155C252.433 35.0567 255.435 35.9008 258.301 36.2484C259.279 36.3581 260.641 36.4216 261.608 36.3812L261.683 36.3782C262.361 36.3362 263.088 36.3424 263.761 36.2523C266.773 35.8491 270.114 34.9643 272.248 32.6732C274.066 30.7202 273.572 28.2201 271.615 26.5931C268.548 24.0443 264.312 23.406 260.442 23.5042ZM260.025 24.2952C263.77 24.1365 268.095 24.7256 271.038 27.2454C272.682 28.6536 272.964 30.7891 271.416 32.389C269.142 34.7362 265.194 35.5681 262.05 35.6976L261.994 35.7005C258.328 35.8796 253.829 35.1956 250.95 32.7415C249.338 31.367 249.025 29.1599 250.572 27.596C252.845 25.2982 256.799 24.4394 259.908 24.3021C259.947 24.299 259.986 24.2971 260.025 24.2952ZM267.379 27.2278C267.082 27.1612 266.675 27.0966 266.373 27.136C265.737 27.2144 265.138 27.3428 264.72 27.8831C264.485 28.1928 264.383 28.5848 264.439 28.97C264.588 30.0138 265.825 30.2254 266.689 30.4144C267.034 30.4898 268.19 30.7375 267.698 31.389C267.336 31.8683 266.194 31.8682 265.771 31.4739C265.561 31.3008 265.529 31.1474 265.464 30.8939C265.12 30.8784 264.671 30.8698 264.328 30.8948C264.304 32.2024 265.37 32.658 266.526 32.679C267.261 32.6661 267.995 32.5972 268.55 32.0511C269.068 31.5399 269.098 30.5324 268.545 30.0423C267.801 29.3849 266.725 29.4249 265.852 29.0638C265.54 28.9346 265.471 28.5272 265.714 28.2952C265.928 28.0857 266.308 28.0045 266.598 28.012C267.129 28.0259 267.448 28.1843 267.644 28.6771C267.878 28.6809 268.494 28.7181 268.674 28.6292C268.728 28.545 268.723 28.4385 268.701 28.3431C268.557 27.7344 267.954 27.3572 267.379 27.2278ZM260.17 27.2484C259.832 27.2412 259.375 27.2242 259.047 27.2562C259.021 27.2985 259.007 27.3282 259.003 27.3782C258.96 27.8783 259.001 28.4016 259.004 28.9046C259.006 29.4878 258.974 30.0794 259.005 30.6614C259.015 30.8647 259.039 31.0712 259.088 31.2689C259.203 31.7354 259.467 32.1113 259.885 32.3548C260.493 32.7091 261.449 32.7558 262.126 32.5696C262.618 32.434 263.06 32.141 263.312 31.6898C263.686 31.0209 263.546 29.0273 263.549 28.2064C263.549 27.906 263.557 27.5484 263.531 27.2542C263.212 27.2415 262.73 27.2265 262.414 27.2601C262.285 28.4356 262.529 29.8822 262.311 31.0267C262.142 31.9146 260.285 32.0006 260.206 30.7884C260.129 29.6119 260.219 28.4232 260.17 27.2484ZM255.31 27.2376C254.863 27.2395 254.282 27.2235 253.843 27.2562C253.794 27.3119 253.778 27.3602 253.777 27.4339C253.759 29.0724 253.753 30.7166 253.778 32.3548C253.779 32.4048 253.79 32.4486 253.805 32.4954C253.988 32.6241 254.674 32.5701 254.916 32.5511C254.94 31.9233 254.93 31.2464 254.929 30.6146L255.897 30.6116C256.071 30.9217 256.952 32.3137 257.151 32.555L257.485 32.5677C257.805 32.566 258.192 32.5725 258.505 32.5462C258.257 32.086 257.377 30.949 257.029 30.4622C258.37 30.0983 258.602 28.1558 257.333 27.4788C257.14 27.3771 256.932 27.3088 256.717 27.2767C256.354 27.2209 255.694 27.236 255.31 27.2376ZM254.928 28.1068C255.409 28.1019 256.097 28.0474 256.541 28.1702C257.127 28.3326 257.219 29.0588 256.827 29.4749C256.38 29.809 255.513 29.7082 254.928 29.7073C254.921 29.1795 254.929 28.6358 254.928 28.1068Z" fill="white"/>
<path fill-rule="evenodd" clip-rule="evenodd" d="M333.519 20.6667C332.903 20.6669 332.297 20.8302 331.763 21.14C331.23 21.4498 330.787 21.8951 330.481 22.4307L328.156 26.5001H326.799C326.676 26.5001 326.557 26.5492 326.469 26.6368C326.382 26.7243 326.333 26.843 326.333 26.9667V27.5209C326.333 27.7292 326.402 27.9317 326.53 28.0959C326.658 28.2602 326.838 28.3769 327.04 28.4274L327.068 28.4332C326.581 29.4444 326.395 30.5745 326.535 31.6882L327.38 38.4561C327.451 39.0205 327.725 39.5397 328.152 39.9161C328.578 40.2925 329.127 40.5002 329.696 40.5001H329.833C330.452 40.5001 331.045 40.2542 331.483 39.8167C331.92 39.3791 332.166 38.7856 332.166 38.1667H343.833C343.833 38.7856 344.079 39.3791 344.516 39.8167C344.954 40.2542 345.547 40.5001 346.166 40.5001H346.303C346.871 40.5002 347.421 40.2925 347.847 39.9161C348.274 39.5397 348.548 39.0205 348.618 38.4561L349.464 31.6894C349.603 30.5757 349.418 29.4455 348.931 28.4344L348.959 28.4274C349.161 28.3769 349.341 28.2602 349.469 28.0959C349.597 27.9317 349.666 27.7292 349.666 27.5209V26.9667C349.666 26.843 349.617 26.7243 349.529 26.6368C349.442 26.5492 349.323 26.5001 349.199 26.5001H347.843L345.517 22.4307C345.211 21.8951 344.769 21.4498 344.236 21.14C343.702 20.8302 343.096 20.6669 342.479 20.6667H333.519ZM345.492 27.0881L343.492 23.5881C343.39 23.4093 343.242 23.2608 343.064 23.1575C342.886 23.0543 342.684 22.9999 342.478 23.0001H333.521C333.315 22.9999 333.113 23.0543 332.934 23.1575C332.756 23.2608 332.609 23.4093 332.507 23.5881L330.507 27.0881C330.406 27.2655 330.353 27.4664 330.353 27.6707C330.354 27.875 330.408 28.0755 330.511 28.2522C330.614 28.429 330.761 28.5757 330.938 28.6776C331.115 28.7796 331.315 28.8333 331.52 28.8334H344.479C344.683 28.8333 344.884 28.7796 345.061 28.6776C345.238 28.5757 345.385 28.429 345.488 28.2522C345.59 28.0755 345.645 27.875 345.645 27.6707C345.646 27.4664 345.593 27.2655 345.492 27.0881ZM329.833 33.5456V32.7289C329.833 32.6279 329.859 32.5285 329.909 32.4406C329.959 32.3527 330.031 32.2793 330.117 32.2276C330.204 32.1758 330.303 32.1475 330.404 32.1454C330.505 32.1433 330.605 32.1675 330.694 32.2156L333.893 33.9422C334.328 34.1779 334.147 34.8394 333.652 34.8196L330.953 34.7111C330.652 34.699 330.367 34.5711 330.159 34.3541C329.95 34.1371 329.833 33.8478 329.833 33.5467V33.5456ZM346.166 32.7289V33.5456C346.166 33.8471 346.05 34.137 345.841 34.3545C345.632 34.572 345.347 34.7002 345.046 34.7122L342.346 34.8196C341.852 34.8394 341.67 34.1779 342.106 33.9422L345.305 32.2156C345.394 32.1675 345.494 32.1433 345.595 32.1454C345.696 32.1475 345.795 32.1758 345.881 32.2276C345.968 32.2793 346.04 32.3527 346.09 32.4406C346.14 32.5285 346.166 32.6279 346.166 32.7289Z" fill="white"/>
<path fill-rule="evenodd" clip-rule="evenodd" d="M183.16 82.095C183.774 82.0631 184.513 82.0935 185.13 82.1146C188.864 82.2422 192.958 83.2699 195.821 85.7835C196.98 86.8006 197.94 88.2055 197.997 89.7855C198.048 91.2147 197.368 92.5512 196.407 93.5833C194.222 95.93 190.878 97.117 187.78 97.638C186.851 97.7942 185.851 97.8608 184.921 97.9066C180.46 98.0321 175.643 97.2259 172.166 94.2249C169.709 92.1046 169.158 88.833 171.474 86.388C174.374 83.3253 179.008 82.3051 183.063 82.1009C183.096 82.0985 183.128 82.0967 183.16 82.095ZM183.442 83.5042C182.435 83.5386 181.368 83.584 180.365 83.7581C177.724 84.2166 174.838 85.0643 172.915 87.0286C171.094 88.8885 171.307 91.4171 173.232 93.1155C175.433 95.0567 178.436 95.9008 181.302 96.2484C182.279 96.3581 183.642 96.4216 184.608 96.3812L184.684 96.3782C185.361 96.3362 186.088 96.3424 186.762 96.2523C189.773 95.8491 193.115 94.9643 195.248 92.6732C197.066 90.7202 196.573 88.2201 194.615 86.5931C191.548 84.0443 187.312 83.406 183.442 83.5042ZM183.025 84.2952C186.77 84.1365 191.095 84.7256 194.038 87.2454C195.683 88.6536 195.965 90.7891 194.416 92.389C192.143 94.7362 188.195 95.5681 185.05 95.6976L184.994 95.7005C181.328 95.8796 176.829 95.1956 173.95 92.7415C172.338 91.367 172.025 89.1599 173.572 87.596C175.846 85.2982 179.799 84.4394 182.908 84.3021C182.947 84.299 182.986 84.2971 183.025 84.2952ZM190.379 87.2278C190.082 87.1612 189.675 87.0966 189.373 87.136C188.737 87.2144 188.139 87.3428 187.721 87.8831C187.485 88.1928 187.384 88.5848 187.439 88.97C187.588 90.0138 188.825 90.2254 189.689 90.4144C190.034 90.4898 191.19 90.7375 190.698 91.389C190.336 91.8683 189.194 91.8682 188.771 91.4739C188.561 91.3008 188.529 91.1474 188.464 90.8939C188.121 90.8784 187.672 90.8698 187.328 90.8948C187.304 92.2024 188.37 92.658 189.526 92.679C190.261 92.6661 190.995 92.5972 191.55 92.0511C192.068 91.5399 192.099 90.5324 191.545 90.0423C190.801 89.3849 189.725 89.4249 188.853 89.0638C188.541 88.9346 188.471 88.5272 188.714 88.2952C188.928 88.0857 189.308 88.0045 189.599 88.012C190.129 88.0259 190.448 88.1843 190.645 88.6771C190.878 88.6809 191.494 88.7181 191.674 88.6292C191.728 88.545 191.723 88.4385 191.701 88.3431C191.558 87.7344 190.954 87.3572 190.379 87.2278ZM183.17 87.2484C182.832 87.2412 182.376 87.2242 182.047 87.2562C182.021 87.2985 182.007 87.3282 182.003 87.3782C181.96 87.8783 182.002 88.4016 182.004 88.9046C182.006 89.4878 181.975 90.0794 182.005 90.6614C182.015 90.8647 182.039 91.0712 182.088 91.2689C182.203 91.7354 182.467 92.1113 182.885 92.3548C183.493 92.7091 184.449 92.7558 185.126 92.5696C185.618 92.434 186.06 92.141 186.312 91.6898C186.686 91.0209 186.546 89.0273 186.549 88.2064C186.549 87.906 186.557 87.5484 186.531 87.2542C186.212 87.2415 185.73 87.2265 185.414 87.2601C185.285 88.4356 185.529 89.8822 185.312 91.0267C185.143 91.9146 183.285 92.0006 183.206 90.7884C183.129 89.6119 183.219 88.4232 183.17 87.2484ZM178.311 87.2376C177.863 87.2395 177.282 87.2235 176.843 87.2562C176.795 87.3119 176.778 87.3602 176.777 87.4339C176.759 89.0724 176.753 90.7166 176.778 92.3548C176.779 92.4048 176.79 92.4486 176.806 92.4954C176.988 92.6241 177.674 92.5701 177.916 92.5511C177.941 91.9233 177.93 91.2464 177.93 90.6146L178.897 90.6116C179.071 90.9217 179.952 92.3137 180.151 92.555L180.485 92.5677C180.805 92.566 181.192 92.5725 181.505 92.5462C181.258 92.086 180.378 90.949 180.029 90.4622C181.37 90.0983 181.602 88.1558 180.333 87.4788C180.141 87.3771 179.932 87.3088 179.717 87.2767C179.354 87.2209 178.694 87.236 178.311 87.2376ZM177.929 88.1068C178.41 88.1019 179.098 88.0474 179.541 88.1702C180.127 88.3326 180.22 89.0588 179.827 89.4749C179.381 89.809 178.513 89.7082 177.929 89.7073C177.922 89.1795 177.929 88.6358 177.929 88.1068Z" fill="white"/>
<path fill-rule="evenodd" clip-rule="evenodd" d="M256.52 80.6667C255.903 80.6669 255.297 80.8302 254.763 81.14C254.23 81.4498 253.788 81.8951 253.482 82.4307L251.157 86.5001H249.8C249.676 86.5001 249.557 86.5492 249.47 86.6368C249.382 86.7243 249.333 86.843 249.333 86.9667V87.5209C249.333 87.7292 249.402 87.9317 249.53 88.0959C249.658 88.2602 249.838 88.3769 250.04 88.4274L250.068 88.4332C249.581 89.4444 249.396 90.5745 249.535 91.6882L250.381 98.4561C250.451 99.0205 250.725 99.5397 251.152 99.9161C251.578 100.293 252.128 100.5 252.697 100.5H252.833C253.452 100.5 254.045 100.254 254.483 99.8167C254.921 99.3791 255.166 98.7856 255.166 98.1667H266.833C266.833 98.7856 267.079 99.3791 267.516 99.8167C267.954 100.254 268.548 100.5 269.166 100.5H269.303C269.872 100.5 270.421 100.293 270.847 99.9161C271.274 99.5397 271.548 99.0205 271.619 98.4561L272.465 91.6894C272.604 90.5757 272.418 89.4455 271.931 88.4344L271.959 88.4274C272.161 88.3769 272.341 88.2602 272.469 88.0959C272.597 87.9317 272.667 87.7292 272.666 87.5209V86.9667C272.666 86.843 272.617 86.7243 272.53 86.6368C272.442 86.5492 272.323 86.5001 272.2 86.5001H270.843L268.518 82.4307C268.212 81.8951 267.77 81.4498 267.236 81.14C266.703 80.8302 266.097 80.6669 265.48 80.6667H256.52ZM268.492 87.0881L266.492 83.5881C266.39 83.4093 266.243 83.2608 266.065 83.1575C265.887 83.0543 265.684 82.9999 265.479 83.0001H256.521C256.315 82.9999 256.113 83.0543 255.935 83.1575C255.757 83.2608 255.609 83.4093 255.507 83.5881L253.507 87.0881C253.406 87.2655 253.353 87.4664 253.354 87.6707C253.354 87.875 253.409 88.0755 253.511 88.2522C253.614 88.429 253.761 88.5757 253.938 88.6776C254.115 88.7796 254.316 88.8333 254.52 88.8334H267.479C267.684 88.8333 267.884 88.7796 268.061 88.6776C268.238 88.5757 268.386 88.429 268.488 88.2522C268.591 88.0755 268.645 87.875 268.646 87.6707C268.646 87.4664 268.593 87.2655 268.492 87.0881ZM252.833 93.5456V92.7289C252.833 92.6279 252.859 92.5285 252.909 92.4406C252.959 92.3527 253.031 92.2793 253.118 92.2276C253.204 92.1758 253.303 92.1475 253.404 92.1454C253.505 92.1433 253.605 92.1675 253.694 92.2156L256.893 93.9422C257.328 94.1779 257.147 94.8394 256.653 94.8196L253.953 94.7111C253.652 94.699 253.368 94.5711 253.159 94.3541C252.95 94.1371 252.833 93.8478 252.833 93.5467V93.5456ZM269.166 92.7289V93.5456C269.167 93.8471 269.05 94.137 268.841 94.3545C268.632 94.572 268.348 94.7002 268.046 94.7122L265.347 94.8196C264.852 94.8394 264.67 94.1779 265.106 93.9422L268.305 92.2156C268.394 92.1675 268.494 92.1433 268.595 92.1454C268.696 92.1475 268.795 92.1758 268.882 92.2276C268.969 92.2793 269.04 92.3527 269.09 92.4406C269.14 92.5285 269.166 92.6279 269.166 92.7289Z" fill="white"/>
<path fill-rule="evenodd" clip-rule="evenodd" d="M337.16 82.095C337.774 82.0631 338.512 82.0935 339.13 82.1146C342.863 82.2422 346.958 83.2699 349.821 85.7835C350.979 86.8006 351.94 88.2055 351.997 89.7855C352.048 91.2147 351.368 92.5512 350.407 93.5833C348.221 95.93 344.878 97.117 341.78 97.638C340.851 97.7942 339.85 97.8608 338.921 97.9066C334.46 98.0321 329.643 97.2259 326.166 94.2249C323.709 92.1046 323.158 88.833 325.473 86.388C328.374 83.3253 333.008 82.3051 337.063 82.1009C337.095 82.0985 337.128 82.0967 337.16 82.095ZM337.442 83.5042C336.435 83.5386 335.368 83.584 334.365 83.7581C331.724 84.2166 328.838 85.0643 326.915 87.0286C325.094 88.8885 325.307 91.4171 327.232 93.1155C329.433 95.0567 332.435 95.9008 335.301 96.2484C336.279 96.3581 337.641 96.4216 338.608 96.3812L338.683 96.3782C339.361 96.3362 340.088 96.3424 340.761 96.2523C343.773 95.8491 347.114 94.9643 349.248 92.6732C351.066 90.7202 350.572 88.2201 348.615 86.5931C345.548 84.0443 341.312 83.406 337.442 83.5042ZM337.025 84.2952C340.77 84.1365 345.095 84.7256 348.038 87.2454C349.682 88.6536 349.964 90.7891 348.416 92.389C346.142 94.7362 342.194 95.5681 339.05 95.6976L338.994 95.7005C335.328 95.8796 330.829 95.1956 327.95 92.7415C326.338 91.367 326.025 89.1599 327.572 87.596C329.845 85.2982 333.799 84.4394 336.908 84.3021C336.947 84.299 336.986 84.2971 337.025 84.2952ZM344.379 87.2278C344.082 87.1612 343.675 87.0966 343.373 87.136C342.737 87.2144 342.138 87.3428 341.72 87.8831C341.485 88.1928 341.383 88.5848 341.439 88.97C341.588 90.0138 342.825 90.2254 343.689 90.4144C344.034 90.4898 345.19 90.7375 344.698 91.389C344.336 91.8683 343.194 91.8682 342.771 91.4739C342.561 91.3008 342.529 91.1474 342.464 90.8939C342.12 90.8784 341.671 90.8698 341.328 90.8948C341.304 92.2024 342.37 92.658 343.526 92.679C344.261 92.6661 344.995 92.5972 345.55 92.0511C346.068 91.5399 346.098 90.5324 345.545 90.0423C344.801 89.3849 343.725 89.4249 342.852 89.0638C342.54 88.9346 342.471 88.5272 342.714 88.2952C342.928 88.0857 343.308 88.0045 343.598 88.012C344.129 88.0259 344.448 88.1843 344.644 88.6771C344.878 88.6809 345.494 88.7181 345.674 88.6292C345.728 88.545 345.723 88.4385 345.701 88.3431C345.557 87.7344 344.954 87.3572 344.379 87.2278ZM337.17 87.2484C336.832 87.2412 336.375 87.2242 336.047 87.2562C336.021 87.2985 336.007 87.3282 336.003 87.3782C335.96 87.8783 336.001 88.4016 336.004 88.9046C336.006 89.4878 335.974 90.0794 336.005 90.6614C336.015 90.8647 336.039 91.0712 336.088 91.2689C336.203 91.7354 336.467 92.1113 336.885 92.3548C337.493 92.7091 338.449 92.7558 339.126 92.5696C339.618 92.434 340.06 92.141 340.312 91.6898C340.686 91.0209 340.546 89.0273 340.549 88.2064C340.549 87.906 340.557 87.5484 340.531 87.2542C340.212 87.2415 339.73 87.2265 339.414 87.2601C339.285 88.4356 339.529 89.8822 339.311 91.0267C339.142 91.9146 337.285 92.0006 337.206 90.7884C337.129 89.6119 337.219 88.4232 337.17 87.2484ZM332.31 87.2376C331.863 87.2395 331.282 87.2235 330.843 87.2562C330.794 87.3119 330.778 87.3602 330.777 87.4339C330.759 89.0724 330.753 90.7166 330.778 92.3548C330.779 92.4048 330.79 92.4486 330.805 92.4954C330.988 92.6241 331.674 92.5701 331.916 92.5511C331.94 91.9233 331.93 91.2464 331.929 90.6146L332.897 90.6116C333.071 90.9217 333.952 92.3137 334.151 92.555L334.485 92.5677C334.805 92.566 335.192 92.5725 335.505 92.5462C335.257 92.086 334.377 90.949 334.029 90.4622C335.37 90.0983 335.602 88.1558 334.333 87.4788C334.14 87.3771 333.932 87.3088 333.717 87.2767C333.354 87.2209 332.694 87.236 332.31 87.2376ZM331.928 88.1068C332.409 88.1019 333.097 88.0474 333.541 88.1702C334.127 88.3326 334.219 89.0588 333.827 89.4749C333.38 89.809 332.513 89.7082 331.928 89.7073C331.921 89.1795 331.929 88.6358 331.928 88.1068Z" fill="white"/>
<path fill-rule="evenodd" clip-rule="evenodd" d="M106.16 142.095C106.774 142.063 107.513 142.093 108.13 142.115C111.864 142.242 115.958 143.27 118.821 145.784C119.98 146.801 120.94 148.206 120.997 149.785C121.048 151.215 120.368 152.551 119.407 153.583C117.222 155.93 113.878 157.117 110.78 157.638C109.851 157.794 108.851 157.861 107.921 157.907C103.46 158.032 98.6433 157.226 95.166 154.225C92.7092 152.105 92.1579 148.833 94.4736 146.388C97.3744 143.325 102.008 142.305 106.063 142.101C106.096 142.098 106.128 142.097 106.16 142.095ZM106.442 143.504C105.435 143.539 104.368 143.584 103.365 143.758C100.724 144.217 97.838 145.064 95.915 147.029C94.0944 148.889 94.3069 151.417 96.2324 153.116C98.4333 155.057 101.436 155.901 104.302 156.248C105.279 156.358 106.642 156.422 107.608 156.381L107.684 156.378C108.361 156.336 109.088 156.342 109.762 156.252C112.773 155.849 116.115 154.964 118.248 152.673C120.066 150.72 119.573 148.22 117.615 146.593C114.548 144.044 110.312 143.406 106.442 143.504ZM106.025 144.295C109.77 144.136 114.095 144.726 117.038 147.245C118.683 148.654 118.965 150.789 117.416 152.389C115.143 154.736 111.195 155.568 108.05 155.698L107.994 155.701C104.328 155.88 99.8288 155.196 96.9502 152.742C95.3383 151.367 95.0253 149.16 96.5722 147.596C98.8457 145.298 102.799 144.439 105.908 144.302C105.947 144.299 105.986 144.297 106.025 144.295ZM113.379 147.228C113.082 147.161 112.675 147.097 112.373 147.136C111.737 147.214 111.139 147.343 110.721 147.883C110.485 148.193 110.384 148.585 110.439 148.97C110.588 150.014 111.825 150.225 112.689 150.414C113.034 150.49 114.19 150.738 113.698 151.389C113.336 151.868 112.194 151.868 111.771 151.474C111.561 151.301 111.529 151.147 111.464 150.894C111.121 150.878 110.672 150.87 110.328 150.895C110.304 152.202 111.37 152.658 112.526 152.679C113.261 152.666 113.995 152.597 114.55 152.051C115.068 151.54 115.099 150.532 114.545 150.042C113.801 149.385 112.725 149.425 111.853 149.064C111.541 148.935 111.471 148.527 111.714 148.295C111.928 148.086 112.308 148.005 112.599 148.012C113.129 148.026 113.448 148.184 113.645 148.677C113.878 148.681 114.494 148.718 114.674 148.629C114.728 148.545 114.723 148.439 114.701 148.343C114.558 147.734 113.954 147.357 113.379 147.228ZM106.17 147.248C105.832 147.241 105.376 147.224 105.047 147.256C105.021 147.298 105.007 147.328 105.003 147.378C104.96 147.878 105.002 148.402 105.004 148.905C105.006 149.488 104.975 150.079 105.005 150.661C105.015 150.865 105.039 151.071 105.088 151.269C105.203 151.735 105.467 152.111 105.885 152.355C106.493 152.709 107.449 152.756 108.126 152.57C108.618 152.434 109.06 152.141 109.312 151.69C109.686 151.021 109.546 149.027 109.549 148.206C109.549 147.906 109.557 147.548 109.531 147.254C109.212 147.242 108.73 147.226 108.414 147.26C108.285 148.436 108.529 149.882 108.312 151.027C108.143 151.915 106.285 152.001 106.206 150.788C106.129 149.612 106.219 148.423 106.17 147.248ZM101.311 147.238C100.863 147.239 100.282 147.224 99.8428 147.256C99.7946 147.312 99.7783 147.36 99.7773 147.434C99.7594 149.072 99.7535 150.717 99.7783 152.355C99.7791 152.405 99.7902 152.449 99.8056 152.495C99.9884 152.624 100.674 152.57 100.916 152.551C100.941 151.923 100.93 151.246 100.93 150.615L101.897 150.612C102.071 150.922 102.952 152.314 103.151 152.555L103.485 152.568C103.805 152.566 104.192 152.573 104.505 152.546C104.258 152.086 103.378 150.949 103.029 150.462C104.37 150.098 104.602 148.156 103.333 147.479C103.141 147.377 102.932 147.309 102.717 147.277C102.354 147.221 101.694 147.236 101.311 147.238ZM100.929 148.107C101.41 148.102 102.098 148.047 102.541 148.17C103.127 148.333 103.22 149.059 102.827 149.475C102.381 149.809 101.513 149.708 100.929 149.707C100.922 149.179 100.929 148.636 100.929 148.107Z" fill="white"/>
<path fill-rule="evenodd" clip-rule="evenodd" d="M179.52 140.667C178.903 140.667 178.297 140.83 177.763 141.14C177.23 141.45 176.788 141.895 176.482 142.431L174.157 146.5H172.8C172.676 146.5 172.557 146.549 172.47 146.637C172.382 146.724 172.333 146.843 172.333 146.967V147.521C172.333 147.729 172.402 147.932 172.53 148.096C172.658 148.26 172.838 148.377 173.04 148.427L173.068 148.433C172.581 149.444 172.396 150.575 172.535 151.688L173.381 158.456C173.451 159.021 173.725 159.54 174.152 159.916C174.578 160.293 175.128 160.5 175.697 160.5H175.833C176.452 160.5 177.045 160.254 177.483 159.817C177.921 159.379 178.166 158.786 178.166 158.167H189.833C189.833 158.786 190.079 159.379 190.516 159.817C190.954 160.254 191.548 160.5 192.166 160.5H192.303C192.872 160.5 193.421 160.293 193.847 159.916C194.274 159.54 194.548 159.021 194.619 158.456L195.465 151.689C195.604 150.576 195.418 149.446 194.931 148.434L194.959 148.427C195.161 148.377 195.341 148.26 195.469 148.096C195.597 147.932 195.667 147.729 195.666 147.521V146.967C195.666 146.843 195.617 146.724 195.53 146.637C195.442 146.549 195.323 146.5 195.2 146.5H193.843L191.518 142.431C191.212 141.895 190.77 141.45 190.236 141.14C189.703 140.83 189.097 140.667 188.48 140.667H179.52ZM191.492 147.088L189.492 143.588C189.39 143.409 189.243 143.261 189.065 143.158C188.887 143.054 188.684 143 188.479 143H179.521C179.315 143 179.113 143.054 178.935 143.158C178.757 143.261 178.609 143.409 178.507 143.588L176.507 147.088C176.406 147.265 176.353 147.466 176.354 147.671C176.354 147.875 176.409 148.076 176.511 148.252C176.614 148.429 176.761 148.576 176.938 148.678C177.115 148.78 177.316 148.833 177.52 148.833H190.479C190.684 148.833 190.884 148.78 191.061 148.678C191.238 148.576 191.386 148.429 191.488 148.252C191.591 148.076 191.645 147.875 191.646 147.671C191.646 147.466 191.593 147.265 191.492 147.088ZM175.833 153.546V152.729C175.833 152.628 175.859 152.529 175.909 152.441C175.959 152.353 176.031 152.279 176.118 152.228C176.204 152.176 176.303 152.147 176.404 152.145C176.505 152.143 176.605 152.167 176.694 152.216L179.893 153.942C180.328 154.178 180.147 154.839 179.653 154.82L176.953 154.711C176.652 154.699 176.368 154.571 176.159 154.354C175.95 154.137 175.833 153.848 175.833 153.547V153.546ZM192.166 152.729V153.546C192.167 153.847 192.05 154.137 191.841 154.354C191.632 154.572 191.348 154.7 191.046 154.712L188.347 154.82C187.852 154.839 187.67 154.178 188.106 153.942L191.305 152.216C191.394 152.167 191.494 152.143 191.595 152.145C191.696 152.147 191.795 152.176 191.882 152.228C191.969 152.279 192.04 152.353 192.09 152.441C192.14 152.529 192.166 152.628 192.166 152.729Z" fill="white"/>
<path fill-rule="evenodd" clip-rule="evenodd" d="M260.16 142.095C260.774 142.063 261.512 142.093 262.13 142.115C265.863 142.242 269.958 143.27 272.821 145.784C273.979 146.801 274.94 148.206 274.997 149.785C275.048 151.215 274.368 152.551 273.407 153.583C271.221 155.93 267.878 157.117 264.78 157.638C263.851 157.794 262.85 157.861 261.921 157.907C257.46 158.032 252.643 157.226 249.166 154.225C246.709 152.105 246.158 148.833 248.473 146.388C251.374 143.325 256.008 142.305 260.063 142.101C260.095 142.098 260.128 142.097 260.16 142.095ZM260.442 143.504C259.435 143.539 258.368 143.584 257.365 143.758C254.724 144.217 251.838 145.064 249.915 147.029C248.094 148.889 248.307 151.417 250.232 153.116C252.433 155.057 255.435 155.901 258.301 156.248C259.279 156.358 260.641 156.422 261.608 156.381L261.683 156.378C262.361 156.336 263.088 156.342 263.761 156.252C266.773 155.849 270.114 154.964 272.248 152.673C274.066 150.72 273.572 148.22 271.615 146.593C268.548 144.044 264.312 143.406 260.442 143.504ZM260.025 144.295C263.77 144.136 268.095 144.726 271.038 147.245C272.682 148.654 272.964 150.789 271.416 152.389C269.142 154.736 265.194 155.568 262.05 155.698L261.994 155.701C258.328 155.88 253.829 155.196 250.95 152.742C249.338 151.367 249.025 149.16 250.572 147.596C252.845 145.298 256.799 144.439 259.908 144.302C259.947 144.299 259.986 144.297 260.025 144.295ZM267.379 147.228C267.082 147.161 266.675 147.097 266.373 147.136C265.737 147.214 265.138 147.343 264.72 147.883C264.485 148.193 264.383 148.585 264.439 148.97C264.588 150.014 265.825 150.225 266.689 150.414C267.034 150.49 268.19 150.738 267.698 151.389C267.336 151.868 266.194 151.868 265.771 151.474C265.561 151.301 265.529 151.147 265.464 150.894C265.12 150.878 264.671 150.87 264.328 150.895C264.304 152.202 265.37 152.658 266.526 152.679C267.261 152.666 267.995 152.597 268.55 152.051C269.068 151.54 269.098 150.532 268.545 150.042C267.801 149.385 266.725 149.425 265.852 149.064C265.54 148.935 265.471 148.527 265.714 148.295C265.928 148.086 266.308 148.005 266.598 148.012C267.129 148.026 267.448 148.184 267.644 148.677C267.878 148.681 268.494 148.718 268.674 148.629C268.728 148.545 268.723 148.439 268.701 148.343C268.557 147.734 267.954 147.357 267.379 147.228ZM260.17 147.248C259.832 147.241 259.375 147.224 259.047 147.256C259.021 147.298 259.007 147.328 259.003 147.378C258.96 147.878 259.001 148.402 259.004 148.905C259.006 149.488 258.974 150.079 259.005 150.661C259.015 150.865 259.039 151.071 259.088 151.269C259.203 151.735 259.467 152.111 259.885 152.355C260.493 152.709 261.449 152.756 262.126 152.57C262.618 152.434 263.06 152.141 263.312 151.69C263.686 151.021 263.546 149.027 263.549 148.206C263.549 147.906 263.557 147.548 263.531 147.254C263.212 147.242 262.73 147.226 262.414 147.26C262.285 148.436 262.529 149.882 262.311 151.027C262.142 151.915 260.285 152.001 260.206 150.788C260.129 149.612 260.219 148.423 260.17 147.248ZM255.31 147.238C254.863 147.239 254.282 147.224 253.843 147.256C253.794 147.312 253.778 147.36 253.777 147.434C253.759 149.072 253.753 150.717 253.778 152.355C253.779 152.405 253.79 152.449 253.805 152.495C253.988 152.624 254.674 152.57 254.916 152.551C254.94 151.923 254.93 151.246 254.929 150.615L255.897 150.612C256.071 150.922 256.952 152.314 257.151 152.555L257.485 152.568C257.805 152.566 258.192 152.573 258.505 152.546C258.257 152.086 257.377 150.949 257.029 150.462C258.37 150.098 258.602 148.156 257.333 147.479C257.14 147.377 256.932 147.309 256.717 147.277C256.354 147.221 255.694 147.236 255.31 147.238ZM254.928 148.107C255.409 148.102 256.097 148.047 256.541 148.17C257.127 148.333 257.219 149.059 256.827 149.475C256.38 149.809 255.513 149.708 254.928 149.707C254.921 149.179 254.929 148.636 254.928 148.107Z" fill="white"/>
<path fill-rule="evenodd" clip-rule="evenodd" d="M333.519 140.667C332.903 140.667 332.297 140.83 331.763 141.14C331.23 141.45 330.787 141.895 330.481 142.431L328.156 146.5H326.799C326.676 146.5 326.557 146.549 326.469 146.637C326.382 146.724 326.333 146.843 326.333 146.967V147.521C326.333 147.729 326.402 147.932 326.53 148.096C326.658 148.26 326.838 148.377 327.04 148.427L327.068 148.433C326.581 149.444 326.395 150.575 326.535 151.688L327.38 158.456C327.451 159.021 327.725 159.54 328.152 159.916C328.578 160.293 329.127 160.5 329.696 160.5H329.833C330.452 160.5 331.045 160.254 331.483 159.817C331.92 159.379 332.166 158.786 332.166 158.167H343.833C343.833 158.786 344.079 159.379 344.516 159.817C344.954 160.254 345.547 160.5 346.166 160.5H346.303C346.871 160.5 347.421 160.293 347.847 159.916C348.274 159.54 348.548 159.021 348.618 158.456L349.464 151.689C349.603 150.576 349.418 149.446 348.931 148.434L348.959 148.427C349.161 148.377 349.341 148.26 349.469 148.096C349.597 147.932 349.666 147.729 349.666 147.521V146.967C349.666 146.843 349.617 146.724 349.529 146.637C349.442 146.549 349.323 146.5 349.199 146.5H347.843L345.517 142.431C345.211 141.895 344.769 141.45 344.236 141.14C343.702 140.83 343.096 140.667 342.479 140.667H333.519ZM345.492 147.088L343.492 143.588C343.39 143.409 343.242 143.261 343.064 143.158C342.886 143.054 342.684 143 342.478 143H333.521C333.315 143 333.113 143.054 332.934 143.158C332.756 143.261 332.609 143.409 332.507 143.588L330.507 147.088C330.406 147.265 330.353 147.466 330.353 147.671C330.354 147.875 330.408 148.076 330.511 148.252C330.614 148.429 330.761 148.576 330.938 148.678C331.115 148.78 331.315 148.833 331.52 148.833H344.479C344.683 148.833 344.884 148.78 345.061 148.678C345.238 148.576 345.385 148.429 345.488 148.252C345.59 148.076 345.645 147.875 345.645 147.671C345.646 147.466 345.593 147.265 345.492 147.088ZM329.833 153.546V152.729C329.833 152.628 329.859 152.529 329.909 152.441C329.959 152.353 330.031 152.279 330.117 152.228C330.204 152.176 330.303 152.147 330.404 152.145C330.505 152.143 330.605 152.167 330.694 152.216L333.893 153.942C334.328 154.178 334.147 154.839 333.652 154.82L330.953 154.711C330.652 154.699 330.367 154.571 330.159 154.354C329.95 154.137 329.833 153.848 329.833 153.547V153.546ZM346.166 152.729V153.546C346.166 153.847 346.05 154.137 345.841 154.354C345.632 154.572 345.347 154.7 345.046 154.712L342.346 154.82C341.852 154.839 341.67 154.178 342.106 153.942L345.305 152.216C345.394 152.167 345.494 152.143 345.595 152.145C345.696 152.147 345.795 152.176 345.881 152.228C345.968 152.279 346.04 152.353 346.09 152.441C346.14 152.529 346.166 152.628 346.166 152.729Z" fill="white"/>
<path fill-rule="evenodd" clip-rule="evenodd" d="M25.5199 200.667C24.903 200.667 24.2971 200.83 23.7636 201.14C23.2301 201.45 22.7879 201.895 22.4819 202.431L20.1568 206.5H18.7999C18.6762 206.5 18.5575 206.549 18.4699 206.637C18.3824 206.724 18.3333 206.843 18.3333 206.967V207.521C18.333 207.729 18.4025 207.932 18.5306 208.096C18.6587 208.26 18.8381 208.377 19.0403 208.427L19.0683 208.433C18.5811 209.444 18.396 210.575 18.5351 211.688L19.3809 218.456C19.4515 219.021 19.7257 219.54 20.1522 219.916C20.5787 220.293 21.1279 220.5 21.6968 220.5H21.8333C22.4521 220.5 23.0456 220.254 23.4832 219.817C23.9208 219.379 24.1666 218.786 24.1666 218.167H35.8333C35.8333 218.786 36.0791 219.379 36.5167 219.817C36.9543 220.254 37.5477 220.5 38.1666 220.5H38.3031C38.8719 220.5 39.4212 220.293 39.8476 219.916C40.2741 219.54 40.5484 219.021 40.6189 218.456L41.4648 211.689C41.6039 210.576 41.4187 209.446 40.9316 208.434L40.9596 208.427C41.1617 208.377 41.3411 208.26 41.4692 208.096C41.5973 207.932 41.6668 207.729 41.6666 207.521V206.967C41.6666 206.843 41.6174 206.724 41.5299 206.637C41.4424 206.549 41.3237 206.5 41.1999 206.5H39.8431L37.5179 202.431C37.2119 201.895 36.7698 201.45 36.2363 201.14C35.7028 200.83 35.0968 200.667 34.4799 200.667H25.5199ZM37.4923 207.088L35.4926 203.588C35.3905 203.409 35.2429 203.261 35.0649 203.158C34.8868 203.054 34.6846 203 34.4788 203H25.5211C25.3152 203 25.113 203.054 24.935 203.158C24.7569 203.261 24.6093 203.409 24.5073 203.588L22.5076 207.088C22.4063 207.265 22.3533 207.466 22.354 207.671C22.3547 207.875 22.409 208.076 22.5115 208.252C22.6141 208.429 22.7612 208.576 22.9382 208.678C23.1152 208.78 23.3159 208.833 23.5203 208.833H36.4796C36.6839 208.833 36.8846 208.78 37.0616 208.678C37.2386 208.576 37.3858 208.429 37.4883 208.252C37.5908 208.076 37.6452 207.875 37.6459 207.671C37.6466 207.466 37.5936 207.265 37.4923 207.088ZM21.8333 213.546V212.729C21.8332 212.628 21.8594 212.529 21.9093 212.441C21.9592 212.353 22.0311 212.279 22.1179 212.228C22.2047 212.176 22.3034 212.147 22.4045 212.145C22.5055 212.143 22.6054 212.167 22.6943 212.216L25.8933 213.942C26.3284 214.178 26.1476 214.839 25.6529 214.82L22.9533 214.711C22.6524 214.699 22.3678 214.571 22.1591 214.354C21.9504 214.137 21.8336 213.848 21.8333 213.547V213.546ZM38.1666 212.729V213.546C38.1668 213.847 38.0503 214.137 37.8415 214.354C37.6327 214.572 37.3478 214.7 37.0466 214.712L34.3469 214.82C33.8523 214.839 33.6703 214.178 34.1066 213.942L37.3056 212.216C37.3945 212.167 37.4943 212.143 37.5954 212.145C37.6964 212.147 37.7952 212.176 37.882 212.228C37.9688 212.279 38.0407 212.353 38.0905 212.441C38.1404 212.529 38.1666 212.628 38.1666 212.729Z" fill="white"/>
<path fill-rule="evenodd" clip-rule="evenodd" d="M102.52 200.667C101.903 200.667 101.297 200.83 100.764 201.14C100.23 201.45 99.7879 201.895 99.4819 202.431L97.1568 206.5H95.7999C95.6762 206.5 95.5575 206.549 95.4699 206.637C95.3824 206.724 95.3333 206.843 95.3333 206.967V207.521C95.333 207.729 95.4025 207.932 95.5306 208.096C95.6587 208.26 95.8381 208.377 96.0403 208.427L96.0683 208.433C95.5811 209.444 95.396 210.575 95.5351 211.688L96.3809 218.456C96.4515 219.021 96.7257 219.54 97.1522 219.916C97.5787 220.293 98.1279 220.5 98.6968 220.5H98.8333C99.4521 220.5 100.046 220.254 100.483 219.817C100.921 219.379 101.167 218.786 101.167 218.167H112.833C112.833 218.786 113.079 219.379 113.517 219.817C113.954 220.254 114.548 220.5 115.167 220.5H115.303C115.872 220.5 116.421 220.293 116.848 219.916C117.274 219.54 117.548 219.021 117.619 218.456L118.465 211.689C118.604 210.576 118.419 209.446 117.932 208.434L117.96 208.427C118.162 208.377 118.341 208.26 118.469 208.096C118.597 207.932 118.667 207.729 118.667 207.521V206.967C118.667 206.843 118.617 206.724 118.53 206.637C118.442 206.549 118.324 206.5 118.2 206.5H116.843L114.518 202.431C114.212 201.895 113.77 201.45 113.236 201.14C112.703 200.83 112.097 200.667 111.48 200.667H102.52ZM114.492 207.088L112.493 203.588C112.39 203.409 112.243 203.261 112.065 203.158C111.887 203.054 111.685 203 111.479 203H102.521C102.315 203 102.113 203.054 101.935 203.158C101.757 203.261 101.609 203.409 101.507 203.588L99.5076 207.088C99.4063 207.265 99.3533 207.466 99.354 207.671C99.3547 207.875 99.409 208.076 99.5115 208.252C99.6141 208.429 99.7612 208.576 99.9382 208.678C100.115 208.78 100.316 208.833 100.52 208.833H113.48C113.684 208.833 113.885 208.78 114.062 208.678C114.239 208.576 114.386 208.429 114.488 208.252C114.591 208.076 114.645 207.875 114.646 207.671C114.647 207.466 114.594 207.265 114.492 207.088ZM98.8333 213.546V212.729C98.8332 212.628 98.8594 212.529 98.9093 212.441C98.9592 212.353 99.0311 212.279 99.1179 212.228C99.2047 212.176 99.3034 212.147 99.4045 212.145C99.5055 212.143 99.6054 212.167 99.6943 212.216L102.893 213.942C103.328 214.178 103.148 214.839 102.653 214.82L99.9533 214.711C99.6524 214.699 99.3678 214.571 99.1591 214.354C98.9504 214.137 98.8336 213.848 98.8333 213.547V213.546ZM115.167 212.729V213.546C115.167 213.847 115.05 214.137 114.842 214.354C114.633 214.572 114.348 214.7 114.047 214.712L111.347 214.82C110.852 214.839 110.67 214.178 111.107 213.942L114.306 212.216C114.394 212.167 114.494 212.143 114.595 212.145C114.696 212.147 114.795 212.176 114.882 212.228C114.969 212.279 115.041 212.353 115.091 212.441C115.14 212.529 115.167 212.628 115.167 212.729Z" fill="white"/>
<path fill-rule="evenodd" clip-rule="evenodd" d="M183.16 202.095C183.774 202.063 184.513 202.093 185.13 202.115C188.864 202.242 192.958 203.27 195.821 205.784C196.98 206.801 197.94 208.206 197.997 209.785C198.048 211.215 197.368 212.551 196.407 213.583C194.222 215.93 190.878 217.117 187.78 217.638C186.851 217.794 185.851 217.861 184.921 217.907C180.46 218.032 175.643 217.226 172.166 214.225C169.709 212.105 169.158 208.833 171.474 206.388C174.374 203.325 179.008 202.305 183.063 202.101C183.096 202.098 183.128 202.097 183.16 202.095ZM183.442 203.504C182.435 203.539 181.368 203.584 180.365 203.758C177.724 204.217 174.838 205.064 172.915 207.029C171.094 208.889 171.307 211.417 173.232 213.116C175.433 215.057 178.436 215.901 181.302 216.248C182.279 216.358 183.642 216.422 184.608 216.381L184.684 216.378C185.361 216.336 186.088 216.342 186.762 216.252C189.773 215.849 193.115 214.964 195.248 212.673C197.066 210.72 196.573 208.22 194.615 206.593C191.548 204.044 187.312 203.406 183.442 203.504ZM183.025 204.295C186.77 204.136 191.095 204.726 194.038 207.245C195.683 208.654 195.965 210.789 194.416 212.389C192.143 214.736 188.195 215.568 185.05 215.698L184.994 215.701C181.328 215.88 176.829 215.196 173.95 212.742C172.338 211.367 172.025 209.16 173.572 207.596C175.846 205.298 179.799 204.439 182.908 204.302C182.947 204.299 182.986 204.297 183.025 204.295ZM190.379 207.228C190.082 207.161 189.675 207.097 189.373 207.136C188.737 207.214 188.139 207.343 187.721 207.883C187.485 208.193 187.384 208.585 187.439 208.97C187.588 210.014 188.825 210.225 189.689 210.414C190.034 210.49 191.19 210.738 190.698 211.389C190.336 211.868 189.194 211.868 188.771 211.474C188.561 211.301 188.529 211.147 188.464 210.894C188.121 210.878 187.672 210.87 187.328 210.895C187.304 212.202 188.37 212.658 189.526 212.679C190.261 212.666 190.995 212.597 191.55 212.051C192.068 211.54 192.099 210.532 191.545 210.042C190.801 209.385 189.725 209.425 188.853 209.064C188.541 208.935 188.471 208.527 188.714 208.295C188.928 208.086 189.308 208.005 189.599 208.012C190.129 208.026 190.448 208.184 190.645 208.677C190.878 208.681 191.494 208.718 191.674 208.629C191.728 208.545 191.723 208.439 191.701 208.343C191.558 207.734 190.954 207.357 190.379 207.228ZM183.17 207.248C182.832 207.241 182.376 207.224 182.047 207.256C182.021 207.298 182.007 207.328 182.003 207.378C181.96 207.878 182.002 208.402 182.004 208.905C182.006 209.488 181.975 210.079 182.005 210.661C182.015 210.865 182.039 211.071 182.088 211.269C182.203 211.735 182.467 212.111 182.885 212.355C183.493 212.709 184.449 212.756 185.126 212.57C185.618 212.434 186.06 212.141 186.312 211.69C186.686 211.021 186.546 209.027 186.549 208.206C186.549 207.906 186.557 207.548 186.531 207.254C186.212 207.242 185.73 207.226 185.414 207.26C185.285 208.436 185.529 209.882 185.312 211.027C185.143 211.915 183.285 212.001 183.206 210.788C183.129 209.612 183.219 208.423 183.17 207.248ZM178.311 207.238C177.863 207.239 177.282 207.224 176.843 207.256C176.795 207.312 176.778 207.36 176.777 207.434C176.759 209.072 176.753 210.717 176.778 212.355C176.779 212.405 176.79 212.449 176.806 212.495C176.988 212.624 177.674 212.57 177.916 212.551C177.941 211.923 177.93 211.246 177.93 210.615L178.897 210.612C179.071 210.922 179.952 212.314 180.151 212.555L180.485 212.568C180.805 212.566 181.192 212.573 181.505 212.546C181.258 212.086 180.378 210.949 180.029 210.462C181.37 210.098 181.602 208.156 180.333 207.479C180.141 207.377 179.932 207.309 179.717 207.277C179.354 207.221 178.694 207.236 178.311 207.238ZM177.929 208.107C178.41 208.102 179.098 208.047 179.541 208.17C180.127 208.333 180.22 209.059 179.827 209.475C179.381 209.809 178.513 209.708 177.929 209.707C177.922 209.179 177.929 208.636 177.929 208.107Z" fill="white"/>
<path fill-rule="evenodd" clip-rule="evenodd" d="M256.52 200.667C255.903 200.667 255.297 200.83 254.763 201.14C254.23 201.45 253.788 201.895 253.482 202.431L251.157 206.5H249.8C249.676 206.5 249.557 206.549 249.47 206.637C249.382 206.724 249.333 206.843 249.333 206.967V207.521C249.333 207.729 249.402 207.932 249.53 208.096C249.658 208.26 249.838 208.377 250.04 208.427L250.068 208.433C249.581 209.444 249.396 210.575 249.535 211.688L250.381 218.456C250.451 219.021 250.725 219.54 251.152 219.916C251.578 220.293 252.128 220.5 252.697 220.5H252.833C253.452 220.5 254.045 220.254 254.483 219.817C254.921 219.379 255.166 218.786 255.166 218.167H266.833C266.833 218.786 267.079 219.379 267.516 219.817C267.954 220.254 268.548 220.5 269.166 220.5H269.303C269.872 220.5 270.421 220.293 270.847 219.916C271.274 219.54 271.548 219.021 271.619 218.456L272.465 211.689C272.604 210.576 272.418 209.446 271.931 208.434L271.959 208.427C272.161 208.377 272.341 208.26 272.469 208.096C272.597 207.932 272.667 207.729 272.666 207.521V206.967C272.666 206.843 272.617 206.724 272.53 206.637C272.442 206.549 272.323 206.5 272.2 206.5H270.843L268.518 202.431C268.212 201.895 267.77 201.45 267.236 201.14C266.703 200.83 266.097 200.667 265.48 200.667H256.52ZM268.492 207.088L266.492 203.588C266.39 203.409 266.243 203.261 266.065 203.158C265.887 203.054 265.684 203 265.479 203H256.521C256.315 203 256.113 203.054 255.935 203.158C255.757 203.261 255.609 203.409 255.507 203.588L253.507 207.088C253.406 207.265 253.353 207.466 253.354 207.671C253.354 207.875 253.409 208.076 253.511 208.252C253.614 208.429 253.761 208.576 253.938 208.678C254.115 208.78 254.316 208.833 254.52 208.833H267.479C267.684 208.833 267.884 208.78 268.061 208.678C268.238 208.576 268.386 208.429 268.488 208.252C268.591 208.076 268.645 207.875 268.646 207.671C268.646 207.466 268.593 207.265 268.492 207.088ZM252.833 213.546V212.729C252.833 212.628 252.859 212.529 252.909 212.441C252.959 212.353 253.031 212.279 253.118 212.228C253.204 212.176 253.303 212.147 253.404 212.145C253.505 212.143 253.605 212.167 253.694 212.216L256.893 213.942C257.328 214.178 257.147 214.839 256.653 214.82L253.953 214.711C253.652 214.699 253.368 214.571 253.159 214.354C252.95 214.137 252.833 213.848 252.833 213.547V213.546ZM269.166 212.729V213.546C269.167 213.847 269.05 214.137 268.841 214.354C268.632 214.572 268.348 214.7 268.046 214.712L265.347 214.82C264.852 214.839 264.67 214.178 265.106 213.942L268.305 212.216C268.394 212.167 268.494 212.143 268.595 212.145C268.696 212.147 268.795 212.176 268.882 212.228C268.969 212.279 269.04 212.353 269.09 212.441C269.14 212.529 269.166 212.628 269.166 212.729Z" fill="white"/>
<path fill-rule="evenodd" clip-rule="evenodd" d="M337.16 202.095C337.774 202.063 338.512 202.093 339.13 202.115C342.863 202.242 346.958 203.27 349.821 205.784C350.979 206.801 351.94 208.206 351.997 209.785C352.048 211.215 351.368 212.551 350.407 213.583C348.221 215.93 344.878 217.117 341.78 217.638C340.851 217.794 339.85 217.861 338.921 217.907C334.46 218.032 329.643 217.226 326.166 214.225C323.709 212.105 323.158 208.833 325.473 206.388C328.374 203.325 333.008 202.305 337.063 202.101C337.095 202.098 337.128 202.097 337.16 202.095ZM337.442 203.504C336.435 203.539 335.368 203.584 334.365 203.758C331.724 204.217 328.838 205.064 326.915 207.029C325.094 208.889 325.307 211.417 327.232 213.116C329.433 215.057 332.435 215.901 335.301 216.248C336.279 216.358 337.641 216.422 338.608 216.381L338.683 216.378C339.361 216.336 340.088 216.342 340.761 216.252C343.773 215.849 347.114 214.964 349.248 212.673C351.066 210.72 350.572 208.22 348.615 206.593C345.548 204.044 341.312 203.406 337.442 203.504ZM337.025 204.295C340.77 204.136 345.095 204.726 348.038 207.245C349.682 208.654 349.964 210.789 348.416 212.389C346.142 214.736 342.194 215.568 339.05 215.698L338.994 215.701C335.328 215.88 330.829 215.196 327.95 212.742C326.338 211.367 326.025 209.16 327.572 207.596C329.845 205.298 333.799 204.439 336.908 204.302C336.947 204.299 336.986 204.297 337.025 204.295ZM344.379 207.228C344.082 207.161 343.675 207.097 343.373 207.136C342.737 207.214 342.138 207.343 341.72 207.883C341.485 208.193 341.383 208.585 341.439 208.97C341.588 210.014 342.825 210.225 343.689 210.414C344.034 210.49 345.19 210.738 344.698 211.389C344.336 211.868 343.194 211.868 342.771 211.474C342.561 211.301 342.529 211.147 342.464 210.894C342.12 210.878 341.671 210.87 341.328 210.895C341.304 212.202 342.37 212.658 343.526 212.679C344.261 212.666 344.995 212.597 345.55 212.051C346.068 211.54 346.098 210.532 345.545 210.042C344.801 209.385 343.725 209.425 342.852 209.064C342.54 208.935 342.471 208.527 342.714 208.295C342.928 208.086 343.308 208.005 343.598 208.012C344.129 208.026 344.448 208.184 344.644 208.677C344.878 208.681 345.494 208.718 345.674 208.629C345.728 208.545 345.723 208.439 345.701 208.343C345.557 207.734 344.954 207.357 344.379 207.228ZM337.17 207.248C336.832 207.241 336.375 207.224 336.047 207.256C336.021 207.298 336.007 207.328 336.003 207.378C335.96 207.878 336.001 208.402 336.004 208.905C336.006 209.488 335.974 210.079 336.005 210.661C336.015 210.865 336.039 211.071 336.088 211.269C336.203 211.735 336.467 212.111 336.885 212.355C337.493 212.709 338.449 212.756 339.126 212.57C339.618 212.434 340.06 212.141 340.312 211.69C340.686 211.021 340.546 209.027 340.549 208.206C340.549 207.906 340.557 207.548 340.531 207.254C340.212 207.242 339.73 207.226 339.414 207.26C339.285 208.436 339.529 209.882 339.311 211.027C339.142 211.915 337.285 212.001 337.206 210.788C337.129 209.612 337.219 208.423 337.17 207.248ZM332.31 207.238C331.863 207.239 331.282 207.224 330.843 207.256C330.794 207.312 330.778 207.36 330.777 207.434C330.759 209.072 330.753 210.717 330.778 212.355C330.779 212.405 330.79 212.449 330.805 212.495C330.988 212.624 331.674 212.57 331.916 212.551C331.94 211.923 331.93 211.246 331.929 210.615L332.897 210.612C333.071 210.922 333.952 212.314 334.151 212.555L334.485 212.568C334.805 212.566 335.192 212.573 335.505 212.546C335.257 212.086 334.377 210.949 334.029 210.462C335.37 210.098 335.602 208.156 334.333 207.479C334.14 207.377 333.932 207.309 333.717 207.277C333.354 207.221 332.694 207.236 332.31 207.238ZM331.928 208.107C332.409 208.102 333.097 208.047 333.541 208.17C334.127 208.333 334.219 209.059 333.827 209.475C333.38 209.809 332.513 209.708 331.928 209.707C331.921 209.179 331.929 208.636 331.928 208.107Z" fill="white"/>
</g>
</svg>
