<svg width="370" height="240" viewBox="0 0 370 240" fill="none" xmlns="http://www.w3.org/2000/svg">
<path fill-rule="evenodd" clip-rule="evenodd" d="M25.5199 20.6667C24.903 20.6669 24.2971 20.8302 23.7636 21.14C23.2301 21.4498 22.7879 21.8951 22.4819 22.4307L20.1568 26.5001H18.7999C18.6762 26.5001 18.5575 26.5492 18.4699 26.6368C18.3824 26.7243 18.3333 26.843 18.3333 26.9667V27.5209C18.333 27.7292 18.4025 27.9317 18.5306 28.0959C18.6587 28.2602 18.8381 28.3769 19.0403 28.4274L19.0683 28.4332C18.5811 29.4444 18.396 30.5745 18.5351 31.6882L19.3809 38.4561C19.4515 39.0205 19.7257 39.5397 20.1522 39.9161C20.5787 40.2925 21.1279 40.5002 21.6968 40.5001H21.8333C22.4521 40.5001 23.0456 40.2542 23.4832 39.8167C23.9208 39.3791 24.1666 38.7856 24.1666 38.1667H35.8333C35.8333 38.7856 36.0791 39.3791 36.5167 39.8167C36.9543 40.2542 37.5477 40.5001 38.1666 40.5001H38.3031C38.8719 40.5002 39.4212 40.2925 39.8476 39.9161C40.2741 39.5397 40.5484 39.0205 40.6189 38.4561L41.4648 31.6894C41.6039 30.5757 41.4187 29.4455 40.9316 28.4344L40.9596 28.4274C41.1617 28.3769 41.3411 28.2602 41.4692 28.0959C41.5973 27.9317 41.6668 27.7292 41.6666 27.5209V26.9667C41.6666 26.843 41.6174 26.7243 41.5299 26.6368C41.4424 26.5492 41.3237 26.5001 41.1999 26.5001H39.8431L37.5179 22.4307C37.2119 21.8951 36.7698 21.4498 36.2363 21.14C35.7028 20.8302 35.0968 20.6669 34.4799 20.6667H25.5199ZM37.4923 27.0881L35.4926 23.5881C35.3905 23.4093 35.2429 23.2608 35.0649 23.1575C34.8868 23.0543 34.6846 22.9999 34.4788 23.0001H25.5211C25.3152 22.9999 25.113 23.0543 24.935 23.1575C24.7569 23.2608 24.6093 23.4093 24.5073 23.5881L22.5076 27.0881C22.4063 27.2655 22.3533 27.4664 22.354 27.6707C22.3547 27.875 22.409 28.0755 22.5115 28.2522C22.6141 28.429 22.7612 28.5757 22.9382 28.6776C23.1152 28.7796 23.3159 28.8333 23.5203 28.8334H36.4796C36.6839 28.8333 36.8846 28.7796 37.0616 28.6776C37.2386 28.5757 37.3858 28.429 37.4883 28.2522C37.5908 28.0755 37.6452 27.875 37.6459 27.6707C37.6466 27.4664 37.5936 27.2655 37.4923 27.0881ZM21.8333 33.5456V32.7289C21.8332 32.6279 21.8594 32.5285 21.9093 32.4406C21.9592 32.3527 22.0311 32.2793 22.1179 32.2276C22.2047 32.1758 22.3034 32.1475 22.4045 32.1454C22.5055 32.1433 22.6054 32.1675 22.6943 32.2156L25.8933 33.9422C26.3284 34.1779 26.1476 34.8394 25.6529 34.8196L22.9533 34.7111C22.6524 34.699 22.3678 34.5711 22.1591 34.3541C21.9504 34.1371 21.8336 33.8478 21.8333 33.5467V33.5456ZM38.1666 32.7289V33.5456C38.1668 33.8471 38.0503 34.137 37.8415 34.3545C37.6327 34.572 37.3478 34.7002 37.0466 34.7122L34.3469 34.8196C33.8523 34.8394 33.6703 34.1779 34.1066 33.9422L37.3056 32.2156C37.3945 32.1675 37.4943 32.1433 37.5954 32.1454C37.6964 32.1475 37.7952 32.1758 37.882 32.2276C37.9688 32.2793 38.0407 32.3527 38.0905 32.4406C38.1404 32.5285 38.1666 32.6279 38.1666 32.7289Z" fill="white"/>
<path fill-rule="evenodd" clip-rule="evenodd" d="M102.52 20.6667C101.903 20.6669 101.297 20.8302 100.764 21.14C100.23 21.4498 99.7879 21.8951 99.4819 22.4307L97.1568 26.5001H95.7999C95.6762 26.5001 95.5575 26.5492 95.4699 26.6368C95.3824 26.7243 95.3333 26.843 95.3333 26.9667V27.5209C95.333 27.7292 95.4025 27.9317 95.5306 28.0959C95.6587 28.2602 95.8381 28.3769 96.0403 28.4274L96.0683 28.4332C95.5811 29.4444 95.396 30.5745 95.5351 31.6882L96.3809 38.4561C96.4515 39.0205 96.7257 39.5397 97.1522 39.9161C97.5787 40.2925 98.1279 40.5002 98.6968 40.5001H98.8333C99.4521 40.5001 100.046 40.2542 100.483 39.8167C100.921 39.3791 101.167 38.7856 101.167 38.1667H112.833C112.833 38.7856 113.079 39.3791 113.517 39.8167C113.954 40.2542 114.548 40.5001 115.167 40.5001H115.303C115.872 40.5002 116.421 40.2925 116.848 39.9161C117.274 39.5397 117.548 39.0205 117.619 38.4561L118.465 31.6894C118.604 30.5757 118.419 29.4455 117.932 28.4344L117.96 28.4274C118.162 28.3769 118.341 28.2602 118.469 28.0959C118.597 27.9317 118.667 27.7292 118.667 27.5209V26.9667C118.667 26.843 118.617 26.7243 118.53 26.6368C118.442 26.5492 118.324 26.5001 118.2 26.5001H116.843L114.518 22.4307C114.212 21.8951 113.77 21.4498 113.236 21.14C112.703 20.8302 112.097 20.6669 111.48 20.6667H102.52ZM114.492 27.0881L112.493 23.5881C112.39 23.4093 112.243 23.2608 112.065 23.1575C111.887 23.0543 111.685 22.9999 111.479 23.0001H102.521C102.315 22.9999 102.113 23.0543 101.935 23.1575C101.757 23.2608 101.609 23.4093 101.507 23.5881L99.5076 27.0881C99.4063 27.2655 99.3533 27.4664 99.354 27.6707C99.3547 27.875 99.409 28.0755 99.5115 28.2522C99.6141 28.429 99.7612 28.5757 99.9382 28.6776C100.115 28.7796 100.316 28.8333 100.52 28.8334H113.48C113.684 28.8333 113.885 28.7796 114.062 28.6776C114.239 28.5757 114.386 28.429 114.488 28.2522C114.591 28.0755 114.645 27.875 114.646 27.6707C114.647 27.4664 114.594 27.2655 114.492 27.0881ZM98.8333 33.5456V32.7289C98.8332 32.6279 98.8594 32.5285 98.9093 32.4406C98.9592 32.3527 99.0311 32.2793 99.1179 32.2276C99.2047 32.1758 99.3034 32.1475 99.4045 32.1454C99.5055 32.1433 99.6054 32.1675 99.6943 32.2156L102.893 33.9422C103.328 34.1779 103.148 34.8394 102.653 34.8196L99.9533 34.7111C99.6524 34.699 99.3678 34.5711 99.1591 34.3541C98.9504 34.1371 98.8336 33.8478 98.8333 33.5467V33.5456ZM115.167 32.7289V33.5456C115.167 33.8471 115.05 34.137 114.842 34.3545C114.633 34.572 114.348 34.7002 114.047 34.7122L111.347 34.8196C110.852 34.8394 110.67 34.1779 111.107 33.9422L114.306 32.2156C114.394 32.1675 114.494 32.1433 114.595 32.1454C114.696 32.1475 114.795 32.1758 114.882 32.2276C114.969 32.2793 115.041 32.3527 115.091 32.4406C115.14 32.5285 115.167 32.6279 115.167 32.7289Z" fill="white"/>
<path fill-rule="evenodd" clip-rule="evenodd" d="M179.52 20.6667C178.903 20.6669 178.297 20.8302 177.764 21.14C177.23 21.4498 176.788 21.8951 176.482 22.4307L174.157 26.5001H172.8C172.676 26.5001 172.557 26.5492 172.47 26.6368C172.382 26.7243 172.333 26.843 172.333 26.9667V27.5209C172.333 27.7292 172.403 27.9317 172.531 28.0959C172.659 28.2602 172.838 28.3769 173.04 28.4274L173.068 28.4332C172.581 29.4444 172.396 30.5745 172.535 31.6882L173.381 38.4561C173.451 39.0205 173.726 39.5397 174.152 39.9161C174.579 40.2925 175.128 40.5002 175.697 40.5001H175.833C176.452 40.5001 177.046 40.2542 177.483 39.8167C177.921 39.3791 178.167 38.7856 178.167 38.1667H189.833C189.833 38.7856 190.079 39.3791 190.517 39.8167C190.954 40.2542 191.548 40.5001 192.167 40.5001H192.303C192.872 40.5002 193.421 40.2925 193.848 39.9161C194.274 39.5397 194.548 39.0205 194.619 38.4561L195.465 31.6894C195.604 30.5757 195.419 29.4455 194.932 28.4344L194.96 28.4274C195.162 28.3769 195.341 28.2602 195.469 28.0959C195.597 27.9317 195.667 27.7292 195.667 27.5209V26.9667C195.667 26.843 195.617 26.7243 195.53 26.6368C195.442 26.5492 195.324 26.5001 195.2 26.5001H193.843L191.518 22.4307C191.212 21.8951 190.77 21.4498 190.236 21.14C189.703 20.8302 189.097 20.6669 188.48 20.6667H179.52ZM191.492 27.0881L189.493 23.5881C189.39 23.4093 189.243 23.2608 189.065 23.1575C188.887 23.0543 188.685 22.9999 188.479 23.0001H179.521C179.315 22.9999 179.113 23.0543 178.935 23.1575C178.757 23.2608 178.609 23.4093 178.507 23.5881L176.508 27.0881C176.406 27.2655 176.353 27.4664 176.354 27.6707C176.355 27.875 176.409 28.0755 176.512 28.2522C176.614 28.429 176.761 28.5757 176.938 28.6776C177.115 28.7796 177.316 28.8333 177.52 28.8334H190.48C190.684 28.8333 190.885 28.7796 191.062 28.6776C191.239 28.5757 191.386 28.429 191.488 28.2522C191.591 28.0755 191.645 27.875 191.646 27.6707C191.647 27.4664 191.594 27.2655 191.492 27.0881ZM175.833 33.5456V32.7289C175.833 32.6279 175.859 32.5285 175.909 32.4406C175.959 32.3527 176.031 32.2793 176.118 32.2276C176.205 32.1758 176.303 32.1475 176.404 32.1454C176.506 32.1433 176.605 32.1675 176.694 32.2156L179.893 33.9422C180.328 34.1779 180.148 34.8394 179.653 34.8196L176.953 34.7111C176.652 34.699 176.368 34.5711 176.159 34.3541C175.95 34.1371 175.834 33.8478 175.833 33.5467V33.5456ZM192.167 32.7289V33.5456C192.167 33.8471 192.05 34.137 191.842 34.3545C191.633 34.572 191.348 34.7002 191.047 34.7122L188.347 34.8196C187.852 34.8394 187.67 34.1779 188.107 33.9422L191.306 32.2156C191.394 32.1675 191.494 32.1433 191.595 32.1454C191.696 32.1475 191.795 32.1758 191.882 32.2276C191.969 32.2793 192.041 32.3527 192.091 32.4406C192.14 32.5285 192.167 32.6279 192.167 32.7289Z" fill="white"/>
<path fill-rule="evenodd" clip-rule="evenodd" d="M256.52 20.6667C255.903 20.6669 255.297 20.8302 254.764 21.14C254.23 21.4498 253.788 21.8951 253.482 22.4307L251.157 26.5001H249.8C249.676 26.5001 249.557 26.5492 249.47 26.6368C249.382 26.7243 249.333 26.843 249.333 26.9667V27.5209C249.333 27.7292 249.403 27.9317 249.531 28.0959C249.659 28.2602 249.838 28.3769 250.04 28.4274L250.068 28.4332C249.581 29.4444 249.396 30.5745 249.535 31.6882L250.381 38.4561C250.451 39.0205 250.726 39.5397 251.152 39.9161C251.579 40.2925 252.128 40.5002 252.697 40.5001H252.833C253.452 40.5001 254.046 40.2542 254.483 39.8167C254.921 39.3791 255.167 38.7856 255.167 38.1667H266.833C266.833 38.7856 267.079 39.3791 267.517 39.8167C267.954 40.2542 268.548 40.5001 269.167 40.5001H269.303C269.872 40.5002 270.421 40.2925 270.848 39.9161C271.274 39.5397 271.548 39.0205 271.619 38.4561L272.465 31.6894C272.604 30.5757 272.419 29.4455 271.932 28.4344L271.96 28.4274C272.162 28.3769 272.341 28.2602 272.469 28.0959C272.597 27.9317 272.667 27.7292 272.667 27.5209V26.9667C272.667 26.843 272.617 26.7243 272.53 26.6368C272.442 26.5492 272.324 26.5001 272.2 26.5001H270.843L268.518 22.4307C268.212 21.8951 267.77 21.4498 267.236 21.14C266.703 20.8302 266.097 20.6669 265.48 20.6667H256.52ZM268.492 27.0881L266.493 23.5881C266.39 23.4093 266.243 23.2608 266.065 23.1575C265.887 23.0543 265.685 22.9999 265.479 23.0001H256.521C256.315 22.9999 256.113 23.0543 255.935 23.1575C255.757 23.2608 255.609 23.4093 255.507 23.5881L253.508 27.0881C253.406 27.2655 253.353 27.4664 253.354 27.6707C253.355 27.875 253.409 28.0755 253.512 28.2522C253.614 28.429 253.761 28.5757 253.938 28.6776C254.115 28.7796 254.316 28.8333 254.52 28.8334H267.48C267.684 28.8333 267.885 28.7796 268.062 28.6776C268.239 28.5757 268.386 28.429 268.488 28.2522C268.591 28.0755 268.645 27.875 268.646 27.6707C268.647 27.4664 268.594 27.2655 268.492 27.0881ZM252.833 33.5456V32.7289C252.833 32.6279 252.859 32.5285 252.909 32.4406C252.959 32.3527 253.031 32.2793 253.118 32.2276C253.205 32.1758 253.303 32.1475 253.404 32.1454C253.506 32.1433 253.605 32.1675 253.694 32.2156L256.893 33.9422C257.328 34.1779 257.148 34.8394 256.653 34.8196L253.953 34.7111C253.652 34.699 253.368 34.5711 253.159 34.3541C252.95 34.1371 252.834 33.8478 252.833 33.5467V33.5456ZM269.167 32.7289V33.5456C269.167 33.8471 269.05 34.137 268.842 34.3545C268.633 34.572 268.348 34.7002 268.047 34.7122L265.347 34.8196C264.852 34.8394 264.67 34.1779 265.107 33.9422L268.306 32.2156C268.394 32.1675 268.494 32.1433 268.595 32.1454C268.696 32.1475 268.795 32.1758 268.882 32.2276C268.969 32.2793 269.041 32.3527 269.091 32.4406C269.14 32.5285 269.167 32.6279 269.167 32.7289Z" fill="white"/>
<path fill-rule="evenodd" clip-rule="evenodd" d="M333.52 20.6667C332.903 20.6669 332.297 20.8302 331.764 21.14C331.23 21.4498 330.788 21.8951 330.482 22.4307L328.157 26.5001H326.8C326.676 26.5001 326.557 26.5492 326.47 26.6368C326.382 26.7243 326.333 26.843 326.333 26.9667V27.5209C326.333 27.7292 326.403 27.9317 326.531 28.0959C326.659 28.2602 326.838 28.3769 327.04 28.4274L327.068 28.4332C326.581 29.4444 326.396 30.5745 326.535 31.6882L327.381 38.4561C327.451 39.0205 327.726 39.5397 328.152 39.9161C328.579 40.2925 329.128 40.5002 329.697 40.5001H329.833C330.452 40.5001 331.046 40.2542 331.483 39.8167C331.921 39.3791 332.167 38.7856 332.167 38.1667H343.833C343.833 38.7856 344.079 39.3791 344.517 39.8167C344.954 40.2542 345.548 40.5001 346.167 40.5001H346.303C346.872 40.5002 347.421 40.2925 347.848 39.9161C348.274 39.5397 348.548 39.0205 348.619 38.4561L349.465 31.6894C349.604 30.5757 349.419 29.4455 348.932 28.4344L348.96 28.4274C349.162 28.3769 349.341 28.2602 349.469 28.0959C349.597 27.9317 349.667 27.7292 349.667 27.5209V26.9667C349.667 26.843 349.617 26.7243 349.53 26.6368C349.442 26.5492 349.324 26.5001 349.2 26.5001H347.843L345.518 22.4307C345.212 21.8951 344.77 21.4498 344.236 21.14C343.703 20.8302 343.097 20.6669 342.48 20.6667H333.52ZM345.492 27.0881L343.493 23.5881C343.39 23.4093 343.243 23.2608 343.065 23.1575C342.887 23.0543 342.685 22.9999 342.479 23.0001H333.521C333.315 22.9999 333.113 23.0543 332.935 23.1575C332.757 23.2608 332.609 23.4093 332.507 23.5881L330.508 27.0881C330.406 27.2655 330.353 27.4664 330.354 27.6707C330.355 27.875 330.409 28.0755 330.512 28.2522C330.614 28.429 330.761 28.5757 330.938 28.6776C331.115 28.7796 331.316 28.8333 331.52 28.8334H344.48C344.684 28.8333 344.885 28.7796 345.062 28.6776C345.239 28.5757 345.386 28.429 345.488 28.2522C345.591 28.0755 345.645 27.875 345.646 27.6707C345.647 27.4664 345.594 27.2655 345.492 27.0881ZM329.833 33.5456V32.7289C329.833 32.6279 329.859 32.5285 329.909 32.4406C329.959 32.3527 330.031 32.2793 330.118 32.2276C330.205 32.1758 330.303 32.1475 330.404 32.1454C330.506 32.1433 330.605 32.1675 330.694 32.2156L333.893 33.9422C334.328 34.1779 334.148 34.8394 333.653 34.8196L330.953 34.7111C330.652 34.699 330.368 34.5711 330.159 34.3541C329.95 34.1371 329.834 33.8478 329.833 33.5467V33.5456ZM346.167 32.7289V33.5456C346.167 33.8471 346.05 34.137 345.842 34.3545C345.633 34.572 345.348 34.7002 345.047 34.7122L342.347 34.8196C341.852 34.8394 341.67 34.1779 342.107 33.9422L345.306 32.2156C345.394 32.1675 345.494 32.1433 345.595 32.1454C345.696 32.1475 345.795 32.1758 345.882 32.2276C345.969 32.2793 346.041 32.3527 346.091 32.4406C346.14 32.5285 346.167 32.6279 346.167 32.7289Z" fill="white"/>
<path fill-rule="evenodd" clip-rule="evenodd" d="M25.5199 65.6667C24.903 65.6669 24.2971 65.8302 23.7636 66.14C23.2301 66.4498 22.7879 66.8951 22.4819 67.4307L20.1568 71.5001H18.7999C18.6762 71.5001 18.5575 71.5492 18.4699 71.6368C18.3824 71.7243 18.3333 71.843 18.3333 71.9667V72.5209C18.333 72.7292 18.4025 72.9317 18.5306 73.0959C18.6587 73.2602 18.8381 73.3769 19.0403 73.4274L19.0683 73.4332C18.5811 74.4444 18.396 75.5745 18.5351 76.6882L19.3809 83.4561C19.4515 84.0205 19.7257 84.5397 20.1522 84.9161C20.5787 85.2925 21.1279 85.5002 21.6968 85.5001H21.8333C22.4521 85.5001 23.0456 85.2542 23.4832 84.8167C23.9208 84.3791 24.1666 83.7856 24.1666 83.1667H35.8333C35.8333 83.7856 36.0791 84.3791 36.5167 84.8167C36.9543 85.2542 37.5477 85.5001 38.1666 85.5001H38.3031C38.8719 85.5002 39.4212 85.2925 39.8476 84.9161C40.2741 84.5397 40.5484 84.0205 40.6189 83.4561L41.4648 76.6894C41.6039 75.5757 41.4187 74.4455 40.9316 73.4344L40.9596 73.4274C41.1617 73.3769 41.3411 73.2602 41.4692 73.0959C41.5973 72.9317 41.6668 72.7292 41.6666 72.5209V71.9667C41.6666 71.843 41.6174 71.7243 41.5299 71.6368C41.4424 71.5492 41.3237 71.5001 41.1999 71.5001H39.8431L37.5179 67.4307C37.2119 66.8951 36.7698 66.4498 36.2363 66.14C35.7028 65.8302 35.0968 65.6669 34.4799 65.6667H25.5199ZM37.4923 72.0881L35.4926 68.5881C35.3905 68.4093 35.2429 68.2608 35.0649 68.1575C34.8868 68.0543 34.6846 67.9999 34.4788 68.0001H25.5211C25.3152 67.9999 25.113 68.0543 24.935 68.1575C24.7569 68.2608 24.6093 68.4093 24.5073 68.5881L22.5076 72.0881C22.4063 72.2655 22.3533 72.4664 22.354 72.6707C22.3547 72.875 22.409 73.0755 22.5115 73.2522C22.6141 73.429 22.7612 73.5757 22.9382 73.6776C23.1152 73.7796 23.3159 73.8333 23.5203 73.8334H36.4796C36.6839 73.8333 36.8846 73.7796 37.0616 73.6776C37.2386 73.5757 37.3858 73.429 37.4883 73.2522C37.5908 73.0755 37.6452 72.875 37.6459 72.6707C37.6466 72.4664 37.5936 72.2655 37.4923 72.0881ZM21.8333 78.5456V77.7289C21.8332 77.6279 21.8594 77.5285 21.9093 77.4406C21.9592 77.3527 22.0311 77.2793 22.1179 77.2276C22.2047 77.1758 22.3034 77.1475 22.4045 77.1454C22.5055 77.1433 22.6054 77.1675 22.6943 77.2156L25.8933 78.9422C26.3284 79.1779 26.1476 79.8394 25.6529 79.8196L22.9533 79.7111C22.6524 79.699 22.3678 79.5711 22.1591 79.3541C21.9504 79.1371 21.8336 78.8478 21.8333 78.5467V78.5456ZM38.1666 77.7289V78.5456C38.1668 78.8471 38.0503 79.137 37.8415 79.3545C37.6327 79.572 37.3478 79.7002 37.0466 79.7122L34.3469 79.8196C33.8523 79.8394 33.6703 79.1779 34.1066 78.9422L37.3056 77.2156C37.3945 77.1675 37.4943 77.1433 37.5954 77.1454C37.6964 77.1475 37.7952 77.1758 37.882 77.2276C37.9688 77.2793 38.0407 77.3527 38.0905 77.4406C38.1404 77.5285 38.1666 77.6279 38.1666 77.7289Z" fill="white"/>
<path fill-rule="evenodd" clip-rule="evenodd" d="M102.52 65.6667C101.903 65.6669 101.297 65.8302 100.764 66.14C100.23 66.4498 99.7879 66.8951 99.4819 67.4307L97.1568 71.5001H95.7999C95.6762 71.5001 95.5575 71.5492 95.4699 71.6368C95.3824 71.7243 95.3333 71.843 95.3333 71.9667V72.5209C95.333 72.7292 95.4025 72.9317 95.5306 73.0959C95.6587 73.2602 95.8381 73.3769 96.0403 73.4274L96.0683 73.4332C95.5811 74.4444 95.396 75.5745 95.5351 76.6882L96.3809 83.4561C96.4515 84.0205 96.7257 84.5397 97.1522 84.9161C97.5787 85.2925 98.1279 85.5002 98.6968 85.5001H98.8333C99.4521 85.5001 100.046 85.2542 100.483 84.8167C100.921 84.3791 101.167 83.7856 101.167 83.1667H112.833C112.833 83.7856 113.079 84.3791 113.517 84.8167C113.954 85.2542 114.548 85.5001 115.167 85.5001H115.303C115.872 85.5002 116.421 85.2925 116.848 84.9161C117.274 84.5397 117.548 84.0205 117.619 83.4561L118.465 76.6894C118.604 75.5757 118.419 74.4455 117.932 73.4344L117.96 73.4274C118.162 73.3769 118.341 73.2602 118.469 73.0959C118.597 72.9317 118.667 72.7292 118.667 72.5209V71.9667C118.667 71.843 118.617 71.7243 118.53 71.6368C118.442 71.5492 118.324 71.5001 118.2 71.5001H116.843L114.518 67.4307C114.212 66.8951 113.77 66.4498 113.236 66.14C112.703 65.8302 112.097 65.6669 111.48 65.6667H102.52ZM114.492 72.0881L112.493 68.5881C112.39 68.4093 112.243 68.2608 112.065 68.1575C111.887 68.0543 111.685 67.9999 111.479 68.0001H102.521C102.315 67.9999 102.113 68.0543 101.935 68.1575C101.757 68.2608 101.609 68.4093 101.507 68.5881L99.5076 72.0881C99.4063 72.2655 99.3533 72.4664 99.354 72.6707C99.3547 72.875 99.409 73.0755 99.5115 73.2522C99.6141 73.429 99.7612 73.5757 99.9382 73.6776C100.115 73.7796 100.316 73.8333 100.52 73.8334H113.48C113.684 73.8333 113.885 73.7796 114.062 73.6776C114.239 73.5757 114.386 73.429 114.488 73.2522C114.591 73.0755 114.645 72.875 114.646 72.6707C114.647 72.4664 114.594 72.2655 114.492 72.0881ZM98.8333 78.5456V77.7289C98.8332 77.6279 98.8594 77.5285 98.9093 77.4406C98.9592 77.3527 99.0311 77.2793 99.1179 77.2276C99.2047 77.1758 99.3034 77.1475 99.4045 77.1454C99.5055 77.1433 99.6054 77.1675 99.6943 77.2156L102.893 78.9422C103.328 79.1779 103.148 79.8394 102.653 79.8196L99.9533 79.7111C99.6524 79.699 99.3678 79.5711 99.1591 79.3541C98.9504 79.1371 98.8336 78.8478 98.8333 78.5467V78.5456ZM115.167 77.7289V78.5456C115.167 78.8471 115.05 79.137 114.842 79.3545C114.633 79.572 114.348 79.7002 114.047 79.7122L111.347 79.8196C110.852 79.8394 110.67 79.1779 111.107 78.9422L114.306 77.2156C114.394 77.1675 114.494 77.1433 114.595 77.1454C114.696 77.1475 114.795 77.1758 114.882 77.2276C114.969 77.2793 115.041 77.3527 115.091 77.4406C115.14 77.5285 115.167 77.6279 115.167 77.7289Z" fill="white"/>
<path fill-rule="evenodd" clip-rule="evenodd" d="M179.52 65.6667C178.903 65.6669 178.297 65.8302 177.764 66.14C177.23 66.4498 176.788 66.8951 176.482 67.4307L174.157 71.5001H172.8C172.676 71.5001 172.557 71.5492 172.47 71.6368C172.382 71.7243 172.333 71.843 172.333 71.9667V72.5209C172.333 72.7292 172.403 72.9317 172.531 73.0959C172.659 73.2602 172.838 73.3769 173.04 73.4274L173.068 73.4332C172.581 74.4444 172.396 75.5745 172.535 76.6882L173.381 83.4561C173.451 84.0205 173.726 84.5397 174.152 84.9161C174.579 85.2925 175.128 85.5002 175.697 85.5001H175.833C176.452 85.5001 177.046 85.2542 177.483 84.8167C177.921 84.3791 178.167 83.7856 178.167 83.1667H189.833C189.833 83.7856 190.079 84.3791 190.517 84.8167C190.954 85.2542 191.548 85.5001 192.167 85.5001H192.303C192.872 85.5002 193.421 85.2925 193.848 84.9161C194.274 84.5397 194.548 84.0205 194.619 83.4561L195.465 76.6894C195.604 75.5757 195.419 74.4455 194.932 73.4344L194.96 73.4274C195.162 73.3769 195.341 73.2602 195.469 73.0959C195.597 72.9317 195.667 72.7292 195.667 72.5209V71.9667C195.667 71.843 195.617 71.7243 195.53 71.6368C195.442 71.5492 195.324 71.5001 195.2 71.5001H193.843L191.518 67.4307C191.212 66.8951 190.77 66.4498 190.236 66.14C189.703 65.8302 189.097 65.6669 188.48 65.6667H179.52ZM191.492 72.0881L189.493 68.5881C189.39 68.4093 189.243 68.2608 189.065 68.1575C188.887 68.0543 188.685 67.9999 188.479 68.0001H179.521C179.315 67.9999 179.113 68.0543 178.935 68.1575C178.757 68.2608 178.609 68.4093 178.507 68.5881L176.508 72.0881C176.406 72.2655 176.353 72.4664 176.354 72.6707C176.355 72.875 176.409 73.0755 176.512 73.2522C176.614 73.429 176.761 73.5757 176.938 73.6776C177.115 73.7796 177.316 73.8333 177.52 73.8334H190.48C190.684 73.8333 190.885 73.7796 191.062 73.6776C191.239 73.5757 191.386 73.429 191.488 73.2522C191.591 73.0755 191.645 72.875 191.646 72.6707C191.647 72.4664 191.594 72.2655 191.492 72.0881ZM175.833 78.5456V77.7289C175.833 77.6279 175.859 77.5285 175.909 77.4406C175.959 77.3527 176.031 77.2793 176.118 77.2276C176.205 77.1758 176.303 77.1475 176.404 77.1454C176.506 77.1433 176.605 77.1675 176.694 77.2156L179.893 78.9422C180.328 79.1779 180.148 79.8394 179.653 79.8196L176.953 79.7111C176.652 79.699 176.368 79.5711 176.159 79.3541C175.95 79.1371 175.834 78.8478 175.833 78.5467V78.5456ZM192.167 77.7289V78.5456C192.167 78.8471 192.05 79.137 191.842 79.3545C191.633 79.572 191.348 79.7002 191.047 79.7122L188.347 79.8196C187.852 79.8394 187.67 79.1779 188.107 78.9422L191.306 77.2156C191.394 77.1675 191.494 77.1433 191.595 77.1454C191.696 77.1475 191.795 77.1758 191.882 77.2276C191.969 77.2793 192.041 77.3527 192.091 77.4406C192.14 77.5285 192.167 77.6279 192.167 77.7289Z" fill="white"/>
<path fill-rule="evenodd" clip-rule="evenodd" d="M256.52 65.6667C255.903 65.6669 255.297 65.8302 254.764 66.14C254.23 66.4498 253.788 66.8951 253.482 67.4307L251.157 71.5001H249.8C249.676 71.5001 249.557 71.5492 249.47 71.6368C249.382 71.7243 249.333 71.843 249.333 71.9667V72.5209C249.333 72.7292 249.403 72.9317 249.531 73.0959C249.659 73.2602 249.838 73.3769 250.04 73.4274L250.068 73.4332C249.581 74.4444 249.396 75.5745 249.535 76.6882L250.381 83.4561C250.451 84.0205 250.726 84.5397 251.152 84.9161C251.579 85.2925 252.128 85.5002 252.697 85.5001H252.833C253.452 85.5001 254.046 85.2542 254.483 84.8167C254.921 84.3791 255.167 83.7856 255.167 83.1667H266.833C266.833 83.7856 267.079 84.3791 267.517 84.8167C267.954 85.2542 268.548 85.5001 269.167 85.5001H269.303C269.872 85.5002 270.421 85.2925 270.848 84.9161C271.274 84.5397 271.548 84.0205 271.619 83.4561L272.465 76.6894C272.604 75.5757 272.419 74.4455 271.932 73.4344L271.96 73.4274C272.162 73.3769 272.341 73.2602 272.469 73.0959C272.597 72.9317 272.667 72.7292 272.667 72.5209V71.9667C272.667 71.843 272.617 71.7243 272.53 71.6368C272.442 71.5492 272.324 71.5001 272.2 71.5001H270.843L268.518 67.4307C268.212 66.8951 267.77 66.4498 267.236 66.14C266.703 65.8302 266.097 65.6669 265.48 65.6667H256.52ZM268.492 72.0881L266.493 68.5881C266.39 68.4093 266.243 68.2608 266.065 68.1575C265.887 68.0543 265.685 67.9999 265.479 68.0001H256.521C256.315 67.9999 256.113 68.0543 255.935 68.1575C255.757 68.2608 255.609 68.4093 255.507 68.5881L253.508 72.0881C253.406 72.2655 253.353 72.4664 253.354 72.6707C253.355 72.875 253.409 73.0755 253.512 73.2522C253.614 73.429 253.761 73.5757 253.938 73.6776C254.115 73.7796 254.316 73.8333 254.52 73.8334H267.48C267.684 73.8333 267.885 73.7796 268.062 73.6776C268.239 73.5757 268.386 73.429 268.488 73.2522C268.591 73.0755 268.645 72.875 268.646 72.6707C268.647 72.4664 268.594 72.2655 268.492 72.0881ZM252.833 78.5456V77.7289C252.833 77.6279 252.859 77.5285 252.909 77.4406C252.959 77.3527 253.031 77.2793 253.118 77.2276C253.205 77.1758 253.303 77.1475 253.404 77.1454C253.506 77.1433 253.605 77.1675 253.694 77.2156L256.893 78.9422C257.328 79.1779 257.148 79.8394 256.653 79.8196L253.953 79.7111C253.652 79.699 253.368 79.5711 253.159 79.3541C252.95 79.1371 252.834 78.8478 252.833 78.5467V78.5456ZM269.167 77.7289V78.5456C269.167 78.8471 269.05 79.137 268.842 79.3545C268.633 79.572 268.348 79.7002 268.047 79.7122L265.347 79.8196C264.852 79.8394 264.67 79.1779 265.107 78.9422L268.306 77.2156C268.394 77.1675 268.494 77.1433 268.595 77.1454C268.696 77.1475 268.795 77.1758 268.882 77.2276C268.969 77.2793 269.041 77.3527 269.091 77.4406C269.14 77.5285 269.167 77.6279 269.167 77.7289Z" fill="white"/>
<path fill-rule="evenodd" clip-rule="evenodd" d="M333.52 65.6667C332.903 65.6669 332.297 65.8302 331.764 66.14C331.23 66.4498 330.788 66.8951 330.482 67.4307L328.157 71.5001H326.8C326.676 71.5001 326.557 71.5492 326.47 71.6368C326.382 71.7243 326.333 71.843 326.333 71.9667V72.5209C326.333 72.7292 326.403 72.9317 326.531 73.0959C326.659 73.2602 326.838 73.3769 327.04 73.4274L327.068 73.4332C326.581 74.4444 326.396 75.5745 326.535 76.6882L327.381 83.4561C327.451 84.0205 327.726 84.5397 328.152 84.9161C328.579 85.2925 329.128 85.5002 329.697 85.5001H329.833C330.452 85.5001 331.046 85.2542 331.483 84.8167C331.921 84.3791 332.167 83.7856 332.167 83.1667H343.833C343.833 83.7856 344.079 84.3791 344.517 84.8167C344.954 85.2542 345.548 85.5001 346.167 85.5001H346.303C346.872 85.5002 347.421 85.2925 347.848 84.9161C348.274 84.5397 348.548 84.0205 348.619 83.4561L349.465 76.6894C349.604 75.5757 349.419 74.4455 348.932 73.4344L348.96 73.4274C349.162 73.3769 349.341 73.2602 349.469 73.0959C349.597 72.9317 349.667 72.7292 349.667 72.5209V71.9667C349.667 71.843 349.617 71.7243 349.53 71.6368C349.442 71.5492 349.324 71.5001 349.2 71.5001H347.843L345.518 67.4307C345.212 66.8951 344.77 66.4498 344.236 66.14C343.703 65.8302 343.097 65.6669 342.48 65.6667H333.52ZM345.492 72.0881L343.493 68.5881C343.39 68.4093 343.243 68.2608 343.065 68.1575C342.887 68.0543 342.685 67.9999 342.479 68.0001H333.521C333.315 67.9999 333.113 68.0543 332.935 68.1575C332.757 68.2608 332.609 68.4093 332.507 68.5881L330.508 72.0881C330.406 72.2655 330.353 72.4664 330.354 72.6707C330.355 72.875 330.409 73.0755 330.512 73.2522C330.614 73.429 330.761 73.5757 330.938 73.6776C331.115 73.7796 331.316 73.8333 331.52 73.8334H344.48C344.684 73.8333 344.885 73.7796 345.062 73.6776C345.239 73.5757 345.386 73.429 345.488 73.2522C345.591 73.0755 345.645 72.875 345.646 72.6707C345.647 72.4664 345.594 72.2655 345.492 72.0881ZM329.833 78.5456V77.7289C329.833 77.6279 329.859 77.5285 329.909 77.4406C329.959 77.3527 330.031 77.2793 330.118 77.2276C330.205 77.1758 330.303 77.1475 330.404 77.1454C330.506 77.1433 330.605 77.1675 330.694 77.2156L333.893 78.9422C334.328 79.1779 334.148 79.8394 333.653 79.8196L330.953 79.7111C330.652 79.699 330.368 79.5711 330.159 79.3541C329.95 79.1371 329.834 78.8478 329.833 78.5467V78.5456ZM346.167 77.7289V78.5456C346.167 78.8471 346.05 79.137 345.842 79.3545C345.633 79.572 345.348 79.7002 345.047 79.7122L342.347 79.8196C341.852 79.8394 341.67 79.1779 342.107 78.9422L345.306 77.2156C345.394 77.1675 345.494 77.1433 345.595 77.1454C345.696 77.1475 345.795 77.1758 345.882 77.2276C345.969 77.2793 346.041 77.3527 346.091 77.4406C346.14 77.5285 346.167 77.6279 346.167 77.7289Z" fill="white"/>
<path fill-rule="evenodd" clip-rule="evenodd" d="M25.5199 110.667C24.903 110.667 24.2971 110.83 23.7636 111.14C23.2301 111.45 22.7879 111.895 22.4819 112.431L20.1568 116.5H18.7999C18.6762 116.5 18.5575 116.549 18.4699 116.637C18.3824 116.724 18.3333 116.843 18.3333 116.967V117.521C18.333 117.729 18.4025 117.932 18.5306 118.096C18.6587 118.26 18.8381 118.377 19.0403 118.427L19.0683 118.433C18.5811 119.444 18.396 120.575 18.5351 121.688L19.3809 128.456C19.4515 129.021 19.7257 129.54 20.1522 129.916C20.5787 130.293 21.1279 130.5 21.6968 130.5H21.8333C22.4521 130.5 23.0456 130.254 23.4832 129.817C23.9208 129.379 24.1666 128.786 24.1666 128.167H35.8333C35.8333 128.786 36.0791 129.379 36.5167 129.817C36.9543 130.254 37.5477 130.5 38.1666 130.5H38.3031C38.8719 130.5 39.4212 130.293 39.8476 129.916C40.2741 129.54 40.5484 129.021 40.6189 128.456L41.4648 121.689C41.6039 120.576 41.4187 119.446 40.9316 118.434L40.9596 118.427C41.1617 118.377 41.3411 118.26 41.4692 118.096C41.5973 117.932 41.6668 117.729 41.6666 117.521V116.967C41.6666 116.843 41.6174 116.724 41.5299 116.637C41.4424 116.549 41.3237 116.5 41.1999 116.5H39.8431L37.5179 112.431C37.2119 111.895 36.7698 111.45 36.2363 111.14C35.7028 110.83 35.0968 110.667 34.4799 110.667H25.5199ZM37.4923 117.088L35.4926 113.588C35.3905 113.409 35.2429 113.261 35.0649 113.158C34.8868 113.054 34.6846 113 34.4788 113H25.5211C25.3152 113 25.113 113.054 24.935 113.158C24.7569 113.261 24.6093 113.409 24.5073 113.588L22.5076 117.088C22.4063 117.265 22.3533 117.466 22.354 117.671C22.3547 117.875 22.409 118.076 22.5115 118.252C22.6141 118.429 22.7612 118.576 22.9382 118.678C23.1152 118.78 23.3159 118.833 23.5203 118.833H36.4796C36.6839 118.833 36.8846 118.78 37.0616 118.678C37.2386 118.576 37.3858 118.429 37.4883 118.252C37.5908 118.076 37.6452 117.875 37.6459 117.671C37.6466 117.466 37.5936 117.265 37.4923 117.088ZM21.8333 123.546V122.729C21.8332 122.628 21.8594 122.529 21.9093 122.441C21.9592 122.353 22.0311 122.279 22.1179 122.228C22.2047 122.176 22.3034 122.147 22.4045 122.145C22.5055 122.143 22.6054 122.167 22.6943 122.216L25.8933 123.942C26.3284 124.178 26.1476 124.839 25.6529 124.82L22.9533 124.711C22.6524 124.699 22.3678 124.571 22.1591 124.354C21.9504 124.137 21.8336 123.848 21.8333 123.547V123.546ZM38.1666 122.729V123.546C38.1668 123.847 38.0503 124.137 37.8415 124.354C37.6327 124.572 37.3478 124.7 37.0466 124.712L34.3469 124.82C33.8523 124.839 33.6703 124.178 34.1066 123.942L37.3056 122.216C37.3945 122.167 37.4943 122.143 37.5954 122.145C37.6964 122.147 37.7952 122.176 37.882 122.228C37.9688 122.279 38.0407 122.353 38.0905 122.441C38.1404 122.529 38.1666 122.628 38.1666 122.729Z" fill="white"/>
<path fill-rule="evenodd" clip-rule="evenodd" d="M102.52 110.667C101.903 110.667 101.297 110.83 100.764 111.14C100.23 111.45 99.7879 111.895 99.4819 112.431L97.1568 116.5H95.7999C95.6762 116.5 95.5575 116.549 95.4699 116.637C95.3824 116.724 95.3333 116.843 95.3333 116.967V117.521C95.333 117.729 95.4025 117.932 95.5306 118.096C95.6587 118.26 95.8381 118.377 96.0403 118.427L96.0683 118.433C95.5811 119.444 95.396 120.575 95.5351 121.688L96.3809 128.456C96.4515 129.021 96.7257 129.54 97.1522 129.916C97.5787 130.293 98.1279 130.5 98.6968 130.5H98.8333C99.4521 130.5 100.046 130.254 100.483 129.817C100.921 129.379 101.167 128.786 101.167 128.167H112.833C112.833 128.786 113.079 129.379 113.517 129.817C113.954 130.254 114.548 130.5 115.167 130.5H115.303C115.872 130.5 116.421 130.293 116.848 129.916C117.274 129.54 117.548 129.021 117.619 128.456L118.465 121.689C118.604 120.576 118.419 119.446 117.932 118.434L117.96 118.427C118.162 118.377 118.341 118.26 118.469 118.096C118.597 117.932 118.667 117.729 118.667 117.521V116.967C118.667 116.843 118.617 116.724 118.53 116.637C118.442 116.549 118.324 116.5 118.2 116.5H116.843L114.518 112.431C114.212 111.895 113.77 111.45 113.236 111.14C112.703 110.83 112.097 110.667 111.48 110.667H102.52ZM114.492 117.088L112.493 113.588C112.39 113.409 112.243 113.261 112.065 113.158C111.887 113.054 111.685 113 111.479 113H102.521C102.315 113 102.113 113.054 101.935 113.158C101.757 113.261 101.609 113.409 101.507 113.588L99.5076 117.088C99.4063 117.265 99.3533 117.466 99.354 117.671C99.3547 117.875 99.409 118.076 99.5115 118.252C99.6141 118.429 99.7612 118.576 99.9382 118.678C100.115 118.78 100.316 118.833 100.52 118.833H113.48C113.684 118.833 113.885 118.78 114.062 118.678C114.239 118.576 114.386 118.429 114.488 118.252C114.591 118.076 114.645 117.875 114.646 117.671C114.647 117.466 114.594 117.265 114.492 117.088ZM98.8333 123.546V122.729C98.8332 122.628 98.8594 122.529 98.9093 122.441C98.9592 122.353 99.0311 122.279 99.1179 122.228C99.2047 122.176 99.3034 122.147 99.4045 122.145C99.5055 122.143 99.6054 122.167 99.6943 122.216L102.893 123.942C103.328 124.178 103.148 124.839 102.653 124.82L99.9533 124.711C99.6524 124.699 99.3678 124.571 99.1591 124.354C98.9504 124.137 98.8336 123.848 98.8333 123.547V123.546ZM115.167 122.729V123.546C115.167 123.847 115.05 124.137 114.842 124.354C114.633 124.572 114.348 124.7 114.047 124.712L111.347 124.82C110.852 124.839 110.67 124.178 111.107 123.942L114.306 122.216C114.394 122.167 114.494 122.143 114.595 122.145C114.696 122.147 114.795 122.176 114.882 122.228C114.969 122.279 115.041 122.353 115.091 122.441C115.14 122.529 115.167 122.628 115.167 122.729Z" fill="white"/>
<path fill-rule="evenodd" clip-rule="evenodd" d="M179.52 110.667C178.903 110.667 178.297 110.83 177.764 111.14C177.23 111.45 176.788 111.895 176.482 112.431L174.157 116.5H172.8C172.676 116.5 172.557 116.549 172.47 116.637C172.382 116.724 172.333 116.843 172.333 116.967V117.521C172.333 117.729 172.403 117.932 172.531 118.096C172.659 118.26 172.838 118.377 173.04 118.427L173.068 118.433C172.581 119.444 172.396 120.575 172.535 121.688L173.381 128.456C173.451 129.021 173.726 129.54 174.152 129.916C174.579 130.293 175.128 130.5 175.697 130.5H175.833C176.452 130.5 177.046 130.254 177.483 129.817C177.921 129.379 178.167 128.786 178.167 128.167H189.833C189.833 128.786 190.079 129.379 190.517 129.817C190.954 130.254 191.548 130.5 192.167 130.5H192.303C192.872 130.5 193.421 130.293 193.848 129.916C194.274 129.54 194.548 129.021 194.619 128.456L195.465 121.689C195.604 120.576 195.419 119.446 194.932 118.434L194.96 118.427C195.162 118.377 195.341 118.26 195.469 118.096C195.597 117.932 195.667 117.729 195.667 117.521V116.967C195.667 116.843 195.617 116.724 195.53 116.637C195.442 116.549 195.324 116.5 195.2 116.5H193.843L191.518 112.431C191.212 111.895 190.77 111.45 190.236 111.14C189.703 110.83 189.097 110.667 188.48 110.667H179.52ZM191.492 117.088L189.493 113.588C189.39 113.409 189.243 113.261 189.065 113.158C188.887 113.054 188.685 113 188.479 113H179.521C179.315 113 179.113 113.054 178.935 113.158C178.757 113.261 178.609 113.409 178.507 113.588L176.508 117.088C176.406 117.265 176.353 117.466 176.354 117.671C176.355 117.875 176.409 118.076 176.512 118.252C176.614 118.429 176.761 118.576 176.938 118.678C177.115 118.78 177.316 118.833 177.52 118.833H190.48C190.684 118.833 190.885 118.78 191.062 118.678C191.239 118.576 191.386 118.429 191.488 118.252C191.591 118.076 191.645 117.875 191.646 117.671C191.647 117.466 191.594 117.265 191.492 117.088ZM175.833 123.546V122.729C175.833 122.628 175.859 122.529 175.909 122.441C175.959 122.353 176.031 122.279 176.118 122.228C176.205 122.176 176.303 122.147 176.404 122.145C176.506 122.143 176.605 122.167 176.694 122.216L179.893 123.942C180.328 124.178 180.148 124.839 179.653 124.82L176.953 124.711C176.652 124.699 176.368 124.571 176.159 124.354C175.95 124.137 175.834 123.848 175.833 123.547V123.546ZM192.167 122.729V123.546C192.167 123.847 192.05 124.137 191.842 124.354C191.633 124.572 191.348 124.7 191.047 124.712L188.347 124.82C187.852 124.839 187.67 124.178 188.107 123.942L191.306 122.216C191.394 122.167 191.494 122.143 191.595 122.145C191.696 122.147 191.795 122.176 191.882 122.228C191.969 122.279 192.041 122.353 192.091 122.441C192.14 122.529 192.167 122.628 192.167 122.729Z" fill="white"/>
<path fill-rule="evenodd" clip-rule="evenodd" d="M256.52 110.667C255.903 110.667 255.297 110.83 254.764 111.14C254.23 111.45 253.788 111.895 253.482 112.431L251.157 116.5H249.8C249.676 116.5 249.557 116.549 249.47 116.637C249.382 116.724 249.333 116.843 249.333 116.967V117.521C249.333 117.729 249.403 117.932 249.531 118.096C249.659 118.26 249.838 118.377 250.04 118.427L250.068 118.433C249.581 119.444 249.396 120.575 249.535 121.688L250.381 128.456C250.451 129.021 250.726 129.54 251.152 129.916C251.579 130.293 252.128 130.5 252.697 130.5H252.833C253.452 130.5 254.046 130.254 254.483 129.817C254.921 129.379 255.167 128.786 255.167 128.167H266.833C266.833 128.786 267.079 129.379 267.517 129.817C267.954 130.254 268.548 130.5 269.167 130.5H269.303C269.872 130.5 270.421 130.293 270.848 129.916C271.274 129.54 271.548 129.021 271.619 128.456L272.465 121.689C272.604 120.576 272.419 119.446 271.932 118.434L271.96 118.427C272.162 118.377 272.341 118.26 272.469 118.096C272.597 117.932 272.667 117.729 272.667 117.521V116.967C272.667 116.843 272.617 116.724 272.53 116.637C272.442 116.549 272.324 116.5 272.2 116.5H270.843L268.518 112.431C268.212 111.895 267.77 111.45 267.236 111.14C266.703 110.83 266.097 110.667 265.48 110.667H256.52ZM268.492 117.088L266.493 113.588C266.39 113.409 266.243 113.261 266.065 113.158C265.887 113.054 265.685 113 265.479 113H256.521C256.315 113 256.113 113.054 255.935 113.158C255.757 113.261 255.609 113.409 255.507 113.588L253.508 117.088C253.406 117.265 253.353 117.466 253.354 117.671C253.355 117.875 253.409 118.076 253.512 118.252C253.614 118.429 253.761 118.576 253.938 118.678C254.115 118.78 254.316 118.833 254.52 118.833H267.48C267.684 118.833 267.885 118.78 268.062 118.678C268.239 118.576 268.386 118.429 268.488 118.252C268.591 118.076 268.645 117.875 268.646 117.671C268.647 117.466 268.594 117.265 268.492 117.088ZM252.833 123.546V122.729C252.833 122.628 252.859 122.529 252.909 122.441C252.959 122.353 253.031 122.279 253.118 122.228C253.205 122.176 253.303 122.147 253.404 122.145C253.506 122.143 253.605 122.167 253.694 122.216L256.893 123.942C257.328 124.178 257.148 124.839 256.653 124.82L253.953 124.711C253.652 124.699 253.368 124.571 253.159 124.354C252.95 124.137 252.834 123.848 252.833 123.547V123.546ZM269.167 122.729V123.546C269.167 123.847 269.05 124.137 268.842 124.354C268.633 124.572 268.348 124.7 268.047 124.712L265.347 124.82C264.852 124.839 264.67 124.178 265.107 123.942L268.306 122.216C268.394 122.167 268.494 122.143 268.595 122.145C268.696 122.147 268.795 122.176 268.882 122.228C268.969 122.279 269.041 122.353 269.091 122.441C269.14 122.529 269.167 122.628 269.167 122.729Z" fill="white"/>
<path fill-rule="evenodd" clip-rule="evenodd" d="M333.52 110.667C332.903 110.667 332.297 110.83 331.764 111.14C331.23 111.45 330.788 111.895 330.482 112.431L328.157 116.5H326.8C326.676 116.5 326.557 116.549 326.47 116.637C326.382 116.724 326.333 116.843 326.333 116.967V117.521C326.333 117.729 326.403 117.932 326.531 118.096C326.659 118.26 326.838 118.377 327.04 118.427L327.068 118.433C326.581 119.444 326.396 120.575 326.535 121.688L327.381 128.456C327.451 129.021 327.726 129.54 328.152 129.916C328.579 130.293 329.128 130.5 329.697 130.5H329.833C330.452 130.5 331.046 130.254 331.483 129.817C331.921 129.379 332.167 128.786 332.167 128.167H343.833C343.833 128.786 344.079 129.379 344.517 129.817C344.954 130.254 345.548 130.5 346.167 130.5H346.303C346.872 130.5 347.421 130.293 347.848 129.916C348.274 129.54 348.548 129.021 348.619 128.456L349.465 121.689C349.604 120.576 349.419 119.446 348.932 118.434L348.96 118.427C349.162 118.377 349.341 118.26 349.469 118.096C349.597 117.932 349.667 117.729 349.667 117.521V116.967C349.667 116.843 349.617 116.724 349.53 116.637C349.442 116.549 349.324 116.5 349.2 116.5H347.843L345.518 112.431C345.212 111.895 344.77 111.45 344.236 111.14C343.703 110.83 343.097 110.667 342.48 110.667H333.52ZM345.492 117.088L343.493 113.588C343.39 113.409 343.243 113.261 343.065 113.158C342.887 113.054 342.685 113 342.479 113H333.521C333.315 113 333.113 113.054 332.935 113.158C332.757 113.261 332.609 113.409 332.507 113.588L330.508 117.088C330.406 117.265 330.353 117.466 330.354 117.671C330.355 117.875 330.409 118.076 330.512 118.252C330.614 118.429 330.761 118.576 330.938 118.678C331.115 118.78 331.316 118.833 331.52 118.833H344.48C344.684 118.833 344.885 118.78 345.062 118.678C345.239 118.576 345.386 118.429 345.488 118.252C345.591 118.076 345.645 117.875 345.646 117.671C345.647 117.466 345.594 117.265 345.492 117.088ZM329.833 123.546V122.729C329.833 122.628 329.859 122.529 329.909 122.441C329.959 122.353 330.031 122.279 330.118 122.228C330.205 122.176 330.303 122.147 330.404 122.145C330.506 122.143 330.605 122.167 330.694 122.216L333.893 123.942C334.328 124.178 334.148 124.839 333.653 124.82L330.953 124.711C330.652 124.699 330.368 124.571 330.159 124.354C329.95 124.137 329.834 123.848 329.833 123.547V123.546ZM346.167 122.729V123.546C346.167 123.847 346.05 124.137 345.842 124.354C345.633 124.572 345.348 124.7 345.047 124.712L342.347 124.82C341.852 124.839 341.67 124.178 342.107 123.942L345.306 122.216C345.394 122.167 345.494 122.143 345.595 122.145C345.696 122.147 345.795 122.176 345.882 122.228C345.969 122.279 346.041 122.353 346.091 122.441C346.14 122.529 346.167 122.628 346.167 122.729Z" fill="white"/>
<path fill-rule="evenodd" clip-rule="evenodd" d="M25.5199 155.667C24.903 155.667 24.2971 155.83 23.7636 156.14C23.2301 156.45 22.7879 156.895 22.4819 157.431L20.1568 161.5H18.7999C18.6762 161.5 18.5575 161.549 18.4699 161.637C18.3824 161.724 18.3333 161.843 18.3333 161.967V162.521C18.333 162.729 18.4025 162.932 18.5306 163.096C18.6587 163.26 18.8381 163.377 19.0403 163.427L19.0683 163.433C18.5811 164.444 18.396 165.575 18.5351 166.688L19.3809 173.456C19.4515 174.021 19.7257 174.54 20.1522 174.916C20.5787 175.293 21.1279 175.5 21.6968 175.5H21.8333C22.4521 175.5 23.0456 175.254 23.4832 174.817C23.9208 174.379 24.1666 173.786 24.1666 173.167H35.8333C35.8333 173.786 36.0791 174.379 36.5167 174.817C36.9543 175.254 37.5477 175.5 38.1666 175.5H38.3031C38.8719 175.5 39.4212 175.293 39.8476 174.916C40.2741 174.54 40.5484 174.021 40.6189 173.456L41.4648 166.689C41.6039 165.576 41.4187 164.446 40.9316 163.434L40.9596 163.427C41.1617 163.377 41.3411 163.26 41.4692 163.096C41.5973 162.932 41.6668 162.729 41.6666 162.521V161.967C41.6666 161.843 41.6174 161.724 41.5299 161.637C41.4424 161.549 41.3237 161.5 41.1999 161.5H39.8431L37.5179 157.431C37.2119 156.895 36.7698 156.45 36.2363 156.14C35.7028 155.83 35.0968 155.667 34.4799 155.667H25.5199ZM37.4923 162.088L35.4926 158.588C35.3905 158.409 35.2429 158.261 35.0649 158.158C34.8868 158.054 34.6846 158 34.4788 158H25.5211C25.3152 158 25.113 158.054 24.935 158.158C24.7569 158.261 24.6093 158.409 24.5073 158.588L22.5076 162.088C22.4063 162.265 22.3533 162.466 22.354 162.671C22.3547 162.875 22.409 163.076 22.5115 163.252C22.6141 163.429 22.7612 163.576 22.9382 163.678C23.1152 163.78 23.3159 163.833 23.5203 163.833H36.4796C36.6839 163.833 36.8846 163.78 37.0616 163.678C37.2386 163.576 37.3858 163.429 37.4883 163.252C37.5908 163.076 37.6452 162.875 37.6459 162.671C37.6466 162.466 37.5936 162.265 37.4923 162.088ZM21.8333 168.546V167.729C21.8332 167.628 21.8594 167.529 21.9093 167.441C21.9592 167.353 22.0311 167.279 22.1179 167.228C22.2047 167.176 22.3034 167.147 22.4045 167.145C22.5055 167.143 22.6054 167.167 22.6943 167.216L25.8933 168.942C26.3284 169.178 26.1476 169.839 25.6529 169.82L22.9533 169.711C22.6524 169.699 22.3678 169.571 22.1591 169.354C21.9504 169.137 21.8336 168.848 21.8333 168.547V168.546ZM38.1666 167.729V168.546C38.1668 168.847 38.0503 169.137 37.8415 169.354C37.6327 169.572 37.3478 169.7 37.0466 169.712L34.3469 169.82C33.8523 169.839 33.6703 169.178 34.1066 168.942L37.3056 167.216C37.3945 167.167 37.4943 167.143 37.5954 167.145C37.6964 167.147 37.7952 167.176 37.882 167.228C37.9688 167.279 38.0407 167.353 38.0905 167.441C38.1404 167.529 38.1666 167.628 38.1666 167.729Z" fill="white"/>
<path fill-rule="evenodd" clip-rule="evenodd" d="M102.52 155.667C101.903 155.667 101.297 155.83 100.764 156.14C100.23 156.45 99.7879 156.895 99.4819 157.431L97.1568 161.5H95.7999C95.6762 161.5 95.5575 161.549 95.4699 161.637C95.3824 161.724 95.3333 161.843 95.3333 161.967V162.521C95.333 162.729 95.4025 162.932 95.5306 163.096C95.6587 163.26 95.8381 163.377 96.0403 163.427L96.0683 163.433C95.5811 164.444 95.396 165.575 95.5351 166.688L96.3809 173.456C96.4515 174.021 96.7257 174.54 97.1522 174.916C97.5787 175.293 98.1279 175.5 98.6968 175.5H98.8333C99.4521 175.5 100.046 175.254 100.483 174.817C100.921 174.379 101.167 173.786 101.167 173.167H112.833C112.833 173.786 113.079 174.379 113.517 174.817C113.954 175.254 114.548 175.5 115.167 175.5H115.303C115.872 175.5 116.421 175.293 116.848 174.916C117.274 174.54 117.548 174.021 117.619 173.456L118.465 166.689C118.604 165.576 118.419 164.446 117.932 163.434L117.96 163.427C118.162 163.377 118.341 163.26 118.469 163.096C118.597 162.932 118.667 162.729 118.667 162.521V161.967C118.667 161.843 118.617 161.724 118.53 161.637C118.442 161.549 118.324 161.5 118.2 161.5H116.843L114.518 157.431C114.212 156.895 113.77 156.45 113.236 156.14C112.703 155.83 112.097 155.667 111.48 155.667H102.52ZM114.492 162.088L112.493 158.588C112.39 158.409 112.243 158.261 112.065 158.158C111.887 158.054 111.685 158 111.479 158H102.521C102.315 158 102.113 158.054 101.935 158.158C101.757 158.261 101.609 158.409 101.507 158.588L99.5076 162.088C99.4063 162.265 99.3533 162.466 99.354 162.671C99.3547 162.875 99.409 163.076 99.5115 163.252C99.6141 163.429 99.7612 163.576 99.9382 163.678C100.115 163.78 100.316 163.833 100.52 163.833H113.48C113.684 163.833 113.885 163.78 114.062 163.678C114.239 163.576 114.386 163.429 114.488 163.252C114.591 163.076 114.645 162.875 114.646 162.671C114.647 162.466 114.594 162.265 114.492 162.088ZM98.8333 168.546V167.729C98.8332 167.628 98.8594 167.529 98.9093 167.441C98.9592 167.353 99.0311 167.279 99.1179 167.228C99.2047 167.176 99.3034 167.147 99.4045 167.145C99.5055 167.143 99.6054 167.167 99.6943 167.216L102.893 168.942C103.328 169.178 103.148 169.839 102.653 169.82L99.9533 169.711C99.6524 169.699 99.3678 169.571 99.1591 169.354C98.9504 169.137 98.8336 168.848 98.8333 168.547V168.546ZM115.167 167.729V168.546C115.167 168.847 115.05 169.137 114.842 169.354C114.633 169.572 114.348 169.7 114.047 169.712L111.347 169.82C110.852 169.839 110.67 169.178 111.107 168.942L114.306 167.216C114.394 167.167 114.494 167.143 114.595 167.145C114.696 167.147 114.795 167.176 114.882 167.228C114.969 167.279 115.041 167.353 115.091 167.441C115.14 167.529 115.167 167.628 115.167 167.729Z" fill="white"/>
<path fill-rule="evenodd" clip-rule="evenodd" d="M179.52 155.667C178.903 155.667 178.297 155.83 177.764 156.14C177.23 156.45 176.788 156.895 176.482 157.431L174.157 161.5H172.8C172.676 161.5 172.557 161.549 172.47 161.637C172.382 161.724 172.333 161.843 172.333 161.967V162.521C172.333 162.729 172.403 162.932 172.531 163.096C172.659 163.26 172.838 163.377 173.04 163.427L173.068 163.433C172.581 164.444 172.396 165.575 172.535 166.688L173.381 173.456C173.451 174.021 173.726 174.54 174.152 174.916C174.579 175.293 175.128 175.5 175.697 175.5H175.833C176.452 175.5 177.046 175.254 177.483 174.817C177.921 174.379 178.167 173.786 178.167 173.167H189.833C189.833 173.786 190.079 174.379 190.517 174.817C190.954 175.254 191.548 175.5 192.167 175.5H192.303C192.872 175.5 193.421 175.293 193.848 174.916C194.274 174.54 194.548 174.021 194.619 173.456L195.465 166.689C195.604 165.576 195.419 164.446 194.932 163.434L194.96 163.427C195.162 163.377 195.341 163.26 195.469 163.096C195.597 162.932 195.667 162.729 195.667 162.521V161.967C195.667 161.843 195.617 161.724 195.53 161.637C195.442 161.549 195.324 161.5 195.2 161.5H193.843L191.518 157.431C191.212 156.895 190.77 156.45 190.236 156.14C189.703 155.83 189.097 155.667 188.48 155.667H179.52ZM191.492 162.088L189.493 158.588C189.39 158.409 189.243 158.261 189.065 158.158C188.887 158.054 188.685 158 188.479 158H179.521C179.315 158 179.113 158.054 178.935 158.158C178.757 158.261 178.609 158.409 178.507 158.588L176.508 162.088C176.406 162.265 176.353 162.466 176.354 162.671C176.355 162.875 176.409 163.076 176.512 163.252C176.614 163.429 176.761 163.576 176.938 163.678C177.115 163.78 177.316 163.833 177.52 163.833H190.48C190.684 163.833 190.885 163.78 191.062 163.678C191.239 163.576 191.386 163.429 191.488 163.252C191.591 163.076 191.645 162.875 191.646 162.671C191.647 162.466 191.594 162.265 191.492 162.088ZM175.833 168.546V167.729C175.833 167.628 175.859 167.529 175.909 167.441C175.959 167.353 176.031 167.279 176.118 167.228C176.205 167.176 176.303 167.147 176.404 167.145C176.506 167.143 176.605 167.167 176.694 167.216L179.893 168.942C180.328 169.178 180.148 169.839 179.653 169.82L176.953 169.711C176.652 169.699 176.368 169.571 176.159 169.354C175.95 169.137 175.834 168.848 175.833 168.547V168.546ZM192.167 167.729V168.546C192.167 168.847 192.05 169.137 191.842 169.354C191.633 169.572 191.348 169.7 191.047 169.712L188.347 169.82C187.852 169.839 187.67 169.178 188.107 168.942L191.306 167.216C191.394 167.167 191.494 167.143 191.595 167.145C191.696 167.147 191.795 167.176 191.882 167.228C191.969 167.279 192.041 167.353 192.091 167.441C192.14 167.529 192.167 167.628 192.167 167.729Z" fill="white"/>
<path fill-rule="evenodd" clip-rule="evenodd" d="M256.52 155.667C255.903 155.667 255.297 155.83 254.764 156.14C254.23 156.45 253.788 156.895 253.482 157.431L251.157 161.5H249.8C249.676 161.5 249.557 161.549 249.47 161.637C249.382 161.724 249.333 161.843 249.333 161.967V162.521C249.333 162.729 249.403 162.932 249.531 163.096C249.659 163.26 249.838 163.377 250.04 163.427L250.068 163.433C249.581 164.444 249.396 165.575 249.535 166.688L250.381 173.456C250.451 174.021 250.726 174.54 251.152 174.916C251.579 175.293 252.128 175.5 252.697 175.5H252.833C253.452 175.5 254.046 175.254 254.483 174.817C254.921 174.379 255.167 173.786 255.167 173.167H266.833C266.833 173.786 267.079 174.379 267.517 174.817C267.954 175.254 268.548 175.5 269.167 175.5H269.303C269.872 175.5 270.421 175.293 270.848 174.916C271.274 174.54 271.548 174.021 271.619 173.456L272.465 166.689C272.604 165.576 272.419 164.446 271.932 163.434L271.96 163.427C272.162 163.377 272.341 163.26 272.469 163.096C272.597 162.932 272.667 162.729 272.667 162.521V161.967C272.667 161.843 272.617 161.724 272.53 161.637C272.442 161.549 272.324 161.5 272.2 161.5H270.843L268.518 157.431C268.212 156.895 267.77 156.45 267.236 156.14C266.703 155.83 266.097 155.667 265.48 155.667H256.52ZM268.492 162.088L266.493 158.588C266.39 158.409 266.243 158.261 266.065 158.158C265.887 158.054 265.685 158 265.479 158H256.521C256.315 158 256.113 158.054 255.935 158.158C255.757 158.261 255.609 158.409 255.507 158.588L253.508 162.088C253.406 162.265 253.353 162.466 253.354 162.671C253.355 162.875 253.409 163.076 253.512 163.252C253.614 163.429 253.761 163.576 253.938 163.678C254.115 163.78 254.316 163.833 254.52 163.833H267.48C267.684 163.833 267.885 163.78 268.062 163.678C268.239 163.576 268.386 163.429 268.488 163.252C268.591 163.076 268.645 162.875 268.646 162.671C268.647 162.466 268.594 162.265 268.492 162.088ZM252.833 168.546V167.729C252.833 167.628 252.859 167.529 252.909 167.441C252.959 167.353 253.031 167.279 253.118 167.228C253.205 167.176 253.303 167.147 253.404 167.145C253.506 167.143 253.605 167.167 253.694 167.216L256.893 168.942C257.328 169.178 257.148 169.839 256.653 169.82L253.953 169.711C253.652 169.699 253.368 169.571 253.159 169.354C252.95 169.137 252.834 168.848 252.833 168.547V168.546ZM269.167 167.729V168.546C269.167 168.847 269.05 169.137 268.842 169.354C268.633 169.572 268.348 169.7 268.047 169.712L265.347 169.82C264.852 169.839 264.67 169.178 265.107 168.942L268.306 167.216C268.394 167.167 268.494 167.143 268.595 167.145C268.696 167.147 268.795 167.176 268.882 167.228C268.969 167.279 269.041 167.353 269.091 167.441C269.14 167.529 269.167 167.628 269.167 167.729Z" fill="white"/>
<path fill-rule="evenodd" clip-rule="evenodd" d="M333.52 155.667C332.903 155.667 332.297 155.83 331.764 156.14C331.23 156.45 330.788 156.895 330.482 157.431L328.157 161.5H326.8C326.676 161.5 326.557 161.549 326.47 161.637C326.382 161.724 326.333 161.843 326.333 161.967V162.521C326.333 162.729 326.403 162.932 326.531 163.096C326.659 163.26 326.838 163.377 327.04 163.427L327.068 163.433C326.581 164.444 326.396 165.575 326.535 166.688L327.381 173.456C327.451 174.021 327.726 174.54 328.152 174.916C328.579 175.293 329.128 175.5 329.697 175.5H329.833C330.452 175.5 331.046 175.254 331.483 174.817C331.921 174.379 332.167 173.786 332.167 173.167H343.833C343.833 173.786 344.079 174.379 344.517 174.817C344.954 175.254 345.548 175.5 346.167 175.5H346.303C346.872 175.5 347.421 175.293 347.848 174.916C348.274 174.54 348.548 174.021 348.619 173.456L349.465 166.689C349.604 165.576 349.419 164.446 348.932 163.434L348.96 163.427C349.162 163.377 349.341 163.26 349.469 163.096C349.597 162.932 349.667 162.729 349.667 162.521V161.967C349.667 161.843 349.617 161.724 349.53 161.637C349.442 161.549 349.324 161.5 349.2 161.5H347.843L345.518 157.431C345.212 156.895 344.77 156.45 344.236 156.14C343.703 155.83 343.097 155.667 342.48 155.667H333.52ZM345.492 162.088L343.493 158.588C343.39 158.409 343.243 158.261 343.065 158.158C342.887 158.054 342.685 158 342.479 158H333.521C333.315 158 333.113 158.054 332.935 158.158C332.757 158.261 332.609 158.409 332.507 158.588L330.508 162.088C330.406 162.265 330.353 162.466 330.354 162.671C330.355 162.875 330.409 163.076 330.512 163.252C330.614 163.429 330.761 163.576 330.938 163.678C331.115 163.78 331.316 163.833 331.52 163.833H344.48C344.684 163.833 344.885 163.78 345.062 163.678C345.239 163.576 345.386 163.429 345.488 163.252C345.591 163.076 345.645 162.875 345.646 162.671C345.647 162.466 345.594 162.265 345.492 162.088ZM329.833 168.546V167.729C329.833 167.628 329.859 167.529 329.909 167.441C329.959 167.353 330.031 167.279 330.118 167.228C330.205 167.176 330.303 167.147 330.404 167.145C330.506 167.143 330.605 167.167 330.694 167.216L333.893 168.942C334.328 169.178 334.148 169.839 333.653 169.82L330.953 169.711C330.652 169.699 330.368 169.571 330.159 169.354C329.95 169.137 329.834 168.848 329.833 168.547V168.546ZM346.167 167.729V168.546C346.167 168.847 346.05 169.137 345.842 169.354C345.633 169.572 345.348 169.7 345.047 169.712L342.347 169.82C341.852 169.839 341.67 169.178 342.107 168.942L345.306 167.216C345.394 167.167 345.494 167.143 345.595 167.145C345.696 167.147 345.795 167.176 345.882 167.228C345.969 167.279 346.041 167.353 346.091 167.441C346.14 167.529 346.167 167.628 346.167 167.729Z" fill="white"/>
<path fill-rule="evenodd" clip-rule="evenodd" d="M25.5199 200.667C24.903 200.667 24.2971 200.83 23.7636 201.14C23.2301 201.45 22.7879 201.895 22.4819 202.431L20.1568 206.5H18.7999C18.6762 206.5 18.5575 206.549 18.4699 206.637C18.3824 206.724 18.3333 206.843 18.3333 206.967V207.521C18.333 207.729 18.4025 207.932 18.5306 208.096C18.6587 208.26 18.8381 208.377 19.0403 208.427L19.0683 208.433C18.5811 209.444 18.396 210.575 18.5351 211.688L19.3809 218.456C19.4515 219.021 19.7257 219.54 20.1522 219.916C20.5787 220.293 21.1279 220.5 21.6968 220.5H21.8333C22.4521 220.5 23.0456 220.254 23.4832 219.817C23.9208 219.379 24.1666 218.786 24.1666 218.167H35.8333C35.8333 218.786 36.0791 219.379 36.5167 219.817C36.9543 220.254 37.5477 220.5 38.1666 220.5H38.3031C38.8719 220.5 39.4212 220.293 39.8476 219.916C40.2741 219.54 40.5484 219.021 40.6189 218.456L41.4648 211.689C41.6039 210.576 41.4187 209.446 40.9316 208.434L40.9596 208.427C41.1617 208.377 41.3411 208.26 41.4692 208.096C41.5973 207.932 41.6668 207.729 41.6666 207.521V206.967C41.6666 206.843 41.6174 206.724 41.5299 206.637C41.4424 206.549 41.3237 206.5 41.1999 206.5H39.8431L37.5179 202.431C37.2119 201.895 36.7698 201.45 36.2363 201.14C35.7028 200.83 35.0968 200.667 34.4799 200.667H25.5199ZM37.4923 207.088L35.4926 203.588C35.3905 203.409 35.2429 203.261 35.0649 203.158C34.8868 203.054 34.6846 203 34.4788 203H25.5211C25.3152 203 25.113 203.054 24.935 203.158C24.7569 203.261 24.6093 203.409 24.5073 203.588L22.5076 207.088C22.4063 207.265 22.3533 207.466 22.354 207.671C22.3547 207.875 22.409 208.076 22.5115 208.252C22.6141 208.429 22.7612 208.576 22.9382 208.678C23.1152 208.78 23.3159 208.833 23.5203 208.833H36.4796C36.6839 208.833 36.8846 208.78 37.0616 208.678C37.2386 208.576 37.3858 208.429 37.4883 208.252C37.5908 208.076 37.6452 207.875 37.6459 207.671C37.6466 207.466 37.5936 207.265 37.4923 207.088ZM21.8333 213.546V212.729C21.8332 212.628 21.8594 212.529 21.9093 212.441C21.9592 212.353 22.0311 212.279 22.1179 212.228C22.2047 212.176 22.3034 212.147 22.4045 212.145C22.5055 212.143 22.6054 212.167 22.6943 212.216L25.8933 213.942C26.3284 214.178 26.1476 214.839 25.6529 214.82L22.9533 214.711C22.6524 214.699 22.3678 214.571 22.1591 214.354C21.9504 214.137 21.8336 213.848 21.8333 213.547V213.546ZM38.1666 212.729V213.546C38.1668 213.847 38.0503 214.137 37.8415 214.354C37.6327 214.572 37.3478 214.7 37.0466 214.712L34.3469 214.82C33.8523 214.839 33.6703 214.178 34.1066 213.942L37.3056 212.216C37.3945 212.167 37.4943 212.143 37.5954 212.145C37.6964 212.147 37.7952 212.176 37.882 212.228C37.9688 212.279 38.0407 212.353 38.0905 212.441C38.1404 212.529 38.1666 212.628 38.1666 212.729Z" fill="white"/>
<path fill-rule="evenodd" clip-rule="evenodd" d="M102.52 200.667C101.903 200.667 101.297 200.83 100.764 201.14C100.23 201.45 99.7879 201.895 99.4819 202.431L97.1568 206.5H95.7999C95.6762 206.5 95.5575 206.549 95.4699 206.637C95.3824 206.724 95.3333 206.843 95.3333 206.967V207.521C95.333 207.729 95.4025 207.932 95.5306 208.096C95.6587 208.26 95.8381 208.377 96.0403 208.427L96.0683 208.433C95.5811 209.444 95.396 210.575 95.5351 211.688L96.3809 218.456C96.4515 219.021 96.7257 219.54 97.1522 219.916C97.5787 220.293 98.1279 220.5 98.6968 220.5H98.8333C99.4521 220.5 100.046 220.254 100.483 219.817C100.921 219.379 101.167 218.786 101.167 218.167H112.833C112.833 218.786 113.079 219.379 113.517 219.817C113.954 220.254 114.548 220.5 115.167 220.5H115.303C115.872 220.5 116.421 220.293 116.848 219.916C117.274 219.54 117.548 219.021 117.619 218.456L118.465 211.689C118.604 210.576 118.419 209.446 117.932 208.434L117.96 208.427C118.162 208.377 118.341 208.26 118.469 208.096C118.597 207.932 118.667 207.729 118.667 207.521V206.967C118.667 206.843 118.617 206.724 118.53 206.637C118.442 206.549 118.324 206.5 118.2 206.5H116.843L114.518 202.431C114.212 201.895 113.77 201.45 113.236 201.14C112.703 200.83 112.097 200.667 111.48 200.667H102.52ZM114.492 207.088L112.493 203.588C112.39 203.409 112.243 203.261 112.065 203.158C111.887 203.054 111.685 203 111.479 203H102.521C102.315 203 102.113 203.054 101.935 203.158C101.757 203.261 101.609 203.409 101.507 203.588L99.5076 207.088C99.4063 207.265 99.3533 207.466 99.354 207.671C99.3547 207.875 99.409 208.076 99.5115 208.252C99.6141 208.429 99.7612 208.576 99.9382 208.678C100.115 208.78 100.316 208.833 100.52 208.833H113.48C113.684 208.833 113.885 208.78 114.062 208.678C114.239 208.576 114.386 208.429 114.488 208.252C114.591 208.076 114.645 207.875 114.646 207.671C114.647 207.466 114.594 207.265 114.492 207.088ZM98.8333 213.546V212.729C98.8332 212.628 98.8594 212.529 98.9093 212.441C98.9592 212.353 99.0311 212.279 99.1179 212.228C99.2047 212.176 99.3034 212.147 99.4045 212.145C99.5055 212.143 99.6054 212.167 99.6943 212.216L102.893 213.942C103.328 214.178 103.148 214.839 102.653 214.82L99.9533 214.711C99.6524 214.699 99.3678 214.571 99.1591 214.354C98.9504 214.137 98.8336 213.848 98.8333 213.547V213.546ZM115.167 212.729V213.546C115.167 213.847 115.05 214.137 114.842 214.354C114.633 214.572 114.348 214.7 114.047 214.712L111.347 214.82C110.852 214.839 110.67 214.178 111.107 213.942L114.306 212.216C114.394 212.167 114.494 212.143 114.595 212.145C114.696 212.147 114.795 212.176 114.882 212.228C114.969 212.279 115.041 212.353 115.091 212.441C115.14 212.529 115.167 212.628 115.167 212.729Z" fill="white"/>
<path fill-rule="evenodd" clip-rule="evenodd" d="M179.52 200.667C178.903 200.667 178.297 200.83 177.764 201.14C177.23 201.45 176.788 201.895 176.482 202.431L174.157 206.5H172.8C172.676 206.5 172.557 206.549 172.47 206.637C172.382 206.724 172.333 206.843 172.333 206.967V207.521C172.333 207.729 172.403 207.932 172.531 208.096C172.659 208.26 172.838 208.377 173.04 208.427L173.068 208.433C172.581 209.444 172.396 210.575 172.535 211.688L173.381 218.456C173.451 219.021 173.726 219.54 174.152 219.916C174.579 220.293 175.128 220.5 175.697 220.5H175.833C176.452 220.5 177.046 220.254 177.483 219.817C177.921 219.379 178.167 218.786 178.167 218.167H189.833C189.833 218.786 190.079 219.379 190.517 219.817C190.954 220.254 191.548 220.5 192.167 220.5H192.303C192.872 220.5 193.421 220.293 193.848 219.916C194.274 219.54 194.548 219.021 194.619 218.456L195.465 211.689C195.604 210.576 195.419 209.446 194.932 208.434L194.96 208.427C195.162 208.377 195.341 208.26 195.469 208.096C195.597 207.932 195.667 207.729 195.667 207.521V206.967C195.667 206.843 195.617 206.724 195.53 206.637C195.442 206.549 195.324 206.5 195.2 206.5H193.843L191.518 202.431C191.212 201.895 190.77 201.45 190.236 201.14C189.703 200.83 189.097 200.667 188.48 200.667H179.52ZM191.492 207.088L189.493 203.588C189.39 203.409 189.243 203.261 189.065 203.158C188.887 203.054 188.685 203 188.479 203H179.521C179.315 203 179.113 203.054 178.935 203.158C178.757 203.261 178.609 203.409 178.507 203.588L176.508 207.088C176.406 207.265 176.353 207.466 176.354 207.671C176.355 207.875 176.409 208.076 176.512 208.252C176.614 208.429 176.761 208.576 176.938 208.678C177.115 208.78 177.316 208.833 177.52 208.833H190.48C190.684 208.833 190.885 208.78 191.062 208.678C191.239 208.576 191.386 208.429 191.488 208.252C191.591 208.076 191.645 207.875 191.646 207.671C191.647 207.466 191.594 207.265 191.492 207.088ZM175.833 213.546V212.729C175.833 212.628 175.859 212.529 175.909 212.441C175.959 212.353 176.031 212.279 176.118 212.228C176.205 212.176 176.303 212.147 176.404 212.145C176.506 212.143 176.605 212.167 176.694 212.216L179.893 213.942C180.328 214.178 180.148 214.839 179.653 214.82L176.953 214.711C176.652 214.699 176.368 214.571 176.159 214.354C175.95 214.137 175.834 213.848 175.833 213.547V213.546ZM192.167 212.729V213.546C192.167 213.847 192.05 214.137 191.842 214.354C191.633 214.572 191.348 214.7 191.047 214.712L188.347 214.82C187.852 214.839 187.67 214.178 188.107 213.942L191.306 212.216C191.394 212.167 191.494 212.143 191.595 212.145C191.696 212.147 191.795 212.176 191.882 212.228C191.969 212.279 192.041 212.353 192.091 212.441C192.14 212.529 192.167 212.628 192.167 212.729Z" fill="white"/>
<path fill-rule="evenodd" clip-rule="evenodd" d="M256.52 200.667C255.903 200.667 255.297 200.83 254.764 201.14C254.23 201.45 253.788 201.895 253.482 202.431L251.157 206.5H249.8C249.676 206.5 249.557 206.549 249.47 206.637C249.382 206.724 249.333 206.843 249.333 206.967V207.521C249.333 207.729 249.403 207.932 249.531 208.096C249.659 208.26 249.838 208.377 250.04 208.427L250.068 208.433C249.581 209.444 249.396 210.575 249.535 211.688L250.381 218.456C250.451 219.021 250.726 219.54 251.152 219.916C251.579 220.293 252.128 220.5 252.697 220.5H252.833C253.452 220.5 254.046 220.254 254.483 219.817C254.921 219.379 255.167 218.786 255.167 218.167H266.833C266.833 218.786 267.079 219.379 267.517 219.817C267.954 220.254 268.548 220.5 269.167 220.5H269.303C269.872 220.5 270.421 220.293 270.848 219.916C271.274 219.54 271.548 219.021 271.619 218.456L272.465 211.689C272.604 210.576 272.419 209.446 271.932 208.434L271.96 208.427C272.162 208.377 272.341 208.26 272.469 208.096C272.597 207.932 272.667 207.729 272.667 207.521V206.967C272.667 206.843 272.617 206.724 272.53 206.637C272.442 206.549 272.324 206.5 272.2 206.5H270.843L268.518 202.431C268.212 201.895 267.77 201.45 267.236 201.14C266.703 200.83 266.097 200.667 265.48 200.667H256.52ZM268.492 207.088L266.493 203.588C266.39 203.409 266.243 203.261 266.065 203.158C265.887 203.054 265.685 203 265.479 203H256.521C256.315 203 256.113 203.054 255.935 203.158C255.757 203.261 255.609 203.409 255.507 203.588L253.508 207.088C253.406 207.265 253.353 207.466 253.354 207.671C253.355 207.875 253.409 208.076 253.512 208.252C253.614 208.429 253.761 208.576 253.938 208.678C254.115 208.78 254.316 208.833 254.52 208.833H267.48C267.684 208.833 267.885 208.78 268.062 208.678C268.239 208.576 268.386 208.429 268.488 208.252C268.591 208.076 268.645 207.875 268.646 207.671C268.647 207.466 268.594 207.265 268.492 207.088ZM252.833 213.546V212.729C252.833 212.628 252.859 212.529 252.909 212.441C252.959 212.353 253.031 212.279 253.118 212.228C253.205 212.176 253.303 212.147 253.404 212.145C253.506 212.143 253.605 212.167 253.694 212.216L256.893 213.942C257.328 214.178 257.148 214.839 256.653 214.82L253.953 214.711C253.652 214.699 253.368 214.571 253.159 214.354C252.95 214.137 252.834 213.848 252.833 213.547V213.546ZM269.167 212.729V213.546C269.167 213.847 269.05 214.137 268.842 214.354C268.633 214.572 268.348 214.7 268.047 214.712L265.347 214.82C264.852 214.839 264.67 214.178 265.107 213.942L268.306 212.216C268.394 212.167 268.494 212.143 268.595 212.145C268.696 212.147 268.795 212.176 268.882 212.228C268.969 212.279 269.041 212.353 269.091 212.441C269.14 212.529 269.167 212.628 269.167 212.729Z" fill="white"/>
<path fill-rule="evenodd" clip-rule="evenodd" d="M333.52 200.667C332.903 200.667 332.297 200.83 331.764 201.14C331.23 201.45 330.788 201.895 330.482 202.431L328.157 206.5H326.8C326.676 206.5 326.557 206.549 326.47 206.637C326.382 206.724 326.333 206.843 326.333 206.967V207.521C326.333 207.729 326.403 207.932 326.531 208.096C326.659 208.26 326.838 208.377 327.04 208.427L327.068 208.433C326.581 209.444 326.396 210.575 326.535 211.688L327.381 218.456C327.451 219.021 327.726 219.54 328.152 219.916C328.579 220.293 329.128 220.5 329.697 220.5H329.833C330.452 220.5 331.046 220.254 331.483 219.817C331.921 219.379 332.167 218.786 332.167 218.167H343.833C343.833 218.786 344.079 219.379 344.517 219.817C344.954 220.254 345.548 220.5 346.167 220.5H346.303C346.872 220.5 347.421 220.293 347.848 219.916C348.274 219.54 348.548 219.021 348.619 218.456L349.465 211.689C349.604 210.576 349.419 209.446 348.932 208.434L348.96 208.427C349.162 208.377 349.341 208.26 349.469 208.096C349.597 207.932 349.667 207.729 349.667 207.521V206.967C349.667 206.843 349.617 206.724 349.53 206.637C349.442 206.549 349.324 206.5 349.2 206.5H347.843L345.518 202.431C345.212 201.895 344.77 201.45 344.236 201.14C343.703 200.83 343.097 200.667 342.48 200.667H333.52ZM345.492 207.088L343.493 203.588C343.39 203.409 343.243 203.261 343.065 203.158C342.887 203.054 342.685 203 342.479 203H333.521C333.315 203 333.113 203.054 332.935 203.158C332.757 203.261 332.609 203.409 332.507 203.588L330.508 207.088C330.406 207.265 330.353 207.466 330.354 207.671C330.355 207.875 330.409 208.076 330.512 208.252C330.614 208.429 330.761 208.576 330.938 208.678C331.115 208.78 331.316 208.833 331.52 208.833H344.48C344.684 208.833 344.885 208.78 345.062 208.678C345.239 208.576 345.386 208.429 345.488 208.252C345.591 208.076 345.645 207.875 345.646 207.671C345.647 207.466 345.594 207.265 345.492 207.088ZM329.833 213.546V212.729C329.833 212.628 329.859 212.529 329.909 212.441C329.959 212.353 330.031 212.279 330.118 212.228C330.205 212.176 330.303 212.147 330.404 212.145C330.506 212.143 330.605 212.167 330.694 212.216L333.893 213.942C334.328 214.178 334.148 214.839 333.653 214.82L330.953 214.711C330.652 214.699 330.368 214.571 330.159 214.354C329.95 214.137 329.834 213.848 329.833 213.547V213.546ZM346.167 212.729V213.546C346.167 213.847 346.05 214.137 345.842 214.354C345.633 214.572 345.348 214.7 345.047 214.712L342.347 214.82C341.852 214.839 341.67 214.178 342.107 213.942L345.306 212.216C345.394 212.167 345.494 212.143 345.595 212.145C345.696 212.147 345.795 212.176 345.882 212.228C345.969 212.279 346.041 212.353 346.091 212.441C346.14 212.529 346.167 212.628 346.167 212.729Z" fill="white"/>
</svg>
