<svg viewBox="0 0 370 240" xmlns="http://www.w3.org/2000/svg"><rect width="370" height="240" fill="#000"/><g>
<path fill-rule="evenodd" clip-rule="evenodd" d="M25.5199 20.6667C24.903 20.6669 24.2971 20.8302 23.7636 21.14C23.2301 21.4498 22.7879 21.8951 22.4819 22.4307L20.1568 26.5001H18.7999C18.6762 26.5001 18.5575 26.5492 18.4699 26.6368C18.3824 26.7243 18.3333 26.843 18.3333 26.9667V27.5209C18.333 27.7292 18.4025 27.9317 18.5306 28.0959C18.6587 28.2602 18.8381 28.3769 19.0403 28.4274L19.0683 28.4332C18.5811 29.4444 18.396 30.5745 18.5351 31.6882L19.3809 38.4561C19.4515 39.0205 19.7257 39.5397 20.1522 39.9161C20.5787 40.2925 21.1279 40.5002 21.6968 40.5001H21.8333C22.4521 40.5001 23.0456 40.2542 23.4832 39.8167C23.9208 39.3791 24.1666 38.7856 24.1666 38.1667H35.8333C35.8333 38.7856 36.0791 39.3791 36.5167 39.8167C36.9543 40.2542 37.5477 40.5001 38.1666 40.5001H38.3031C38.8719 40.5002 39.4212 40.2925 39.8476 39.9161C40.2741 39.5397 40.5484 39.0205 40.6189 38.4561L41.4648 31.6894C41.6039 30.5757 41.4187 29.4455 40.9316 28.4344L40.9596 28.4274C41.1617 28.3769 41.3411 28.2602 41.4692 28.0959C41.5973 27.9317 41.6668 27.7292 41.6666 27.5209V26.9667C41.6666 26.843 41.6174 26.7243 41.5299 26.6368C41.4424 26.5492 41.3237 26.5001 41.1999 26.5001H39.8431L37.5179 22.4307C37.2119 21.8951 36.7698 21.4498 36.2363 21.14C35.7028 20.8302 35.0968 20.6669 34.4799 20.6667H25.5199ZM37.4923 27.0881L35.4926 23.5881C35.3905 23.4093 35.2429 23.2608 35.0649 23.1575C34.8868 23.0543 34.6846 22.9999 34.4788 23.0001H25.5211C25.3152 22.9999 25.113 23.0543 24.935 23.1575C24.7569 23.2608 24.6093 23.4093 24.5073 23.5881L22.5076 27.0881C22.4063 27.2655 22.3533 27.4664 22.354 27.6707C22.3547 27.875 22.409 28.0755 22.5115 28.2522C22.6141 28.429 22.7612 28.5757 22.9382 28.6776C23.1152 28.7796 23.3159 28.8333 23.5203 28.8334H36.4796C36.6839 28.8333 36.8846 28.7796 37.0616 28.6776C37.2386 28.5757 37.3858 28.429 37.4883 28.2522C37.5908 28.0755 37.6452 27.875 37.6459 27.6707C37.6466 27.4664 37.5936 27.2655 37.4923 27.0881ZM21.8333 33.5456V32.7289C21.8332 32.6279 21.8594 32.5285 21.9093 32.4406C21.9592 32.3527 22.0311 32.2793 22.1179 32.2276C22.2047 32.1758 22.3034 32.1475 22.4045 32.1454C22.5055 32.1433 22.6054 32.1675 22.6943 32.2156L25.8933 33.9422C26.3284 34.1779 26.1476 34.8394 25.6529 34.8196L22.9533 34.7111C22.6524 34.699 22.3678 34.5711 22.1591 34.3541C21.9504 34.1371 21.8336 33.8478 21.8333 33.5467V33.5456ZM38.1666 32.7289V33.5456C38.1668 33.8471 38.0503 34.137 37.8415 34.3545C37.6327 34.572 37.3478 34.7002 37.0466 34.7122L34.3469 34.8196C33.8523 34.8394 33.6703 34.1779 34.1066 33.9422L37.3056 32.2156C37.3945 32.1675 37.4943 32.1433 37.5954 32.1454C37.6964 32.1475 37.7952 32.1758 37.882 32.2276C37.9688 32.2793 38.0407 32.3527 38.0905 32.4406C38.1404 32.5285 38.1666 32.6279 38.1666 32.7289Z" fill="#fff"/>
<path d="M106.16 22.0948C106.774 22.0629 107.513 22.0933 108.13 22.1144C111.864 22.242 115.958 23.2696 118.821 25.7833C119.98 26.8004 120.94 28.2053 120.997 29.7853C121.048 31.2146 120.368 32.551 119.407 33.5831C117.222 35.9298 113.878 37.1168 110.78 37.6378C109.851 37.794 108.851 37.8606 107.921 37.9064C103.46 38.032 98.6434 37.2257 95.166 34.2247C92.7091 32.1044 92.1579 28.8329 94.4736 26.3878C97.3744 23.3251 102.008 22.3049 106.063 22.1007C106.096 22.0983 106.128 22.0965 106.16 22.0948ZM106.442 23.504C105.435 23.5384 104.368 23.5838 103.365 23.7579C100.724 24.2164 97.838 25.0641 95.915 27.0284C94.0944 28.8884 94.3069 31.4169 96.2324 33.1154C98.4333 35.0565 101.436 35.9006 104.302 36.2482C105.279 36.3579 106.642 36.4214 107.608 36.381L107.684 36.3781C108.361 36.336 109.088 36.3422 109.762 36.2521C112.773 35.8489 116.115 34.9642 118.248 32.673C120.066 30.72 119.573 28.22 117.615 26.5929C114.548 24.0441 110.313 23.4058 106.442 23.504ZM106.025 24.295C109.77 24.1363 114.095 24.7253 117.038 27.2452C118.683 28.6536 118.965 30.7898 117.416 32.3898C115.143 34.737 111.195 35.5689 108.05 35.6984L107.994 35.7013C104.328 35.8804 99.8288 35.1954 96.9502 32.7413C95.3383 31.3668 95.0252 29.1598 96.5723 27.5958C98.8457 25.298 102.799 24.4402 105.908 24.3029C105.947 24.2998 105.986 24.2969 106.025 24.295ZM113.379 27.2286C113.082 27.1619 112.675 27.0974 112.373 27.1368C111.737 27.2152 111.139 27.3424 110.721 27.8829C110.485 28.1929 110.383 28.5852 110.439 28.9708C110.588 30.0145 111.825 30.2252 112.689 30.4142C113.034 30.4896 114.191 30.7378 113.698 31.3898C113.336 31.869 112.194 31.8689 111.771 31.4747C111.561 31.3014 111.529 31.1475 111.464 30.8937C111.121 30.8782 110.672 30.8706 110.328 30.8956C110.304 32.2029 111.37 32.6588 112.526 32.6798C113.261 32.6669 113.995 32.598 114.55 32.0519C115.068 31.5409 115.099 30.5334 114.545 30.0431C113.801 29.3854 112.726 29.4248 111.853 29.0636C111.541 28.9345 111.471 28.527 111.714 28.295C111.928 28.0855 112.308 28.0053 112.599 28.0128C113.129 28.0267 113.448 28.1845 113.645 28.6779C113.878 28.6817 114.494 28.718 114.674 28.629C114.729 28.5448 114.724 28.4394 114.701 28.3439C114.558 27.7347 113.954 27.358 113.379 27.2286ZM106.17 27.2491C105.832 27.242 105.376 27.225 105.047 27.257C105.021 27.2992 105.007 27.3278 105.003 27.3781C104.96 27.8783 105.002 28.4012 105.004 28.9044C105.006 29.4877 104.975 30.0792 105.005 30.6613C105.015 30.8646 105.039 31.0709 105.088 31.2687C105.203 31.7352 105.467 32.1111 105.885 32.3546C106.493 32.7088 107.449 32.7566 108.126 32.5704C108.618 32.4349 109.06 32.1417 109.312 31.6906C109.687 31.0221 109.546 29.0271 109.549 28.2062C109.549 27.9057 109.558 27.5483 109.531 27.254C109.212 27.2413 108.73 27.2263 108.414 27.2599C108.285 28.4357 108.529 29.8828 108.312 31.0275C108.142 31.915 106.286 32.001 106.206 30.7892C106.129 29.6125 106.219 28.4242 106.17 27.2491ZM101.311 27.2384C100.863 27.2403 100.282 27.2243 99.8428 27.257C99.7946 27.3129 99.7782 27.3605 99.7773 27.4347C99.7594 29.0734 99.7535 30.7171 99.7783 32.3556C99.7791 32.4057 99.7901 32.4493 99.8057 32.4962C99.9889 32.6246 100.674 32.5699 100.916 32.5509C100.941 31.923 100.93 31.2464 100.93 30.6144L101.897 30.6124C102.071 30.9231 102.953 32.316 103.151 32.5558L103.485 32.5675C103.805 32.5658 104.192 32.5733 104.505 32.547C104.258 32.0872 103.378 30.9489 103.029 30.462C104.37 30.0981 104.602 28.1567 103.333 27.4796C103.141 27.3779 102.932 27.3096 102.717 27.2775C102.354 27.2217 101.694 27.2368 101.311 27.2384ZM100.929 28.1075C101.41 28.1027 102.098 28.0482 102.541 28.171C103.127 28.3335 103.22 29.0587 102.827 29.4747C102.381 29.8088 101.513 29.709 100.929 29.7081C100.922 29.1801 100.929 28.6368 100.929 28.1075Z" fill="#fff"/>
<path fill-rule="evenodd" clip-rule="evenodd" d="M179.52 20.6667C178.903 20.6669 178.297 20.8302 177.763 21.14C177.23 21.4498 176.788 21.8951 176.482 22.4307L174.157 26.5001H172.8C172.676 26.5001 172.557 26.5492 172.47 26.6368C172.382 26.7243 172.333 26.843 172.333 26.9667V27.5209C172.333 27.7292 172.402 27.9317 172.53 28.0959C172.658 28.2602 172.838 28.3769 173.04 28.4274L173.068 28.4332C172.581 29.4444 172.396 30.5745 172.535 31.6882L173.381 38.4561C173.451 39.0205 173.725 39.5397 174.152 39.9161C174.578 40.2925 175.128 40.5002 175.697 40.5001H175.833C176.452 40.5001 177.045 40.2542 177.483 39.8167C177.921 39.3791 178.166 38.7856 178.166 38.1667H189.833C189.833 38.7856 190.079 39.3791 190.516 39.8167C190.954 40.2542 191.548 40.5001 192.166 40.5001H192.303C192.872 40.5002 193.421 40.2925 193.847 39.9161C194.274 39.5397 194.548 39.0205 194.619 38.4561L195.465 31.6894C195.604 30.5757 195.418 29.4455 194.931 28.4344L194.959 28.4274C195.161 28.3769 195.341 28.2602 195.469 28.0959C195.597 27.9317 195.667 27.7292 195.666 27.5209V26.9667C195.666 26.843 195.617 26.7243 195.53 26.6368C195.442 26.5492 195.323 26.5001 195.2 26.5001H193.843L191.518 22.4307C191.212 21.8951 190.77 21.4498 190.236 21.14C189.703 20.8302 189.097 20.6669 188.48 20.6667H179.52ZM191.492 27.0881L189.492 23.5881C189.39 23.4093 189.243 23.2608 189.065 23.1575C188.887 23.0543 188.684 22.9999 188.479 23.0001H179.521C179.315 22.9999 179.113 23.0543 178.935 23.1575C178.757 23.2608 178.609 23.4093 178.507 23.5881L176.507 27.0881C176.406 27.2655 176.353 27.4664 176.354 27.6707C176.354 27.875 176.409 28.0755 176.511 28.2522C176.614 28.429 176.761 28.5757 176.938 28.6776C177.115 28.7796 177.316 28.8333 177.52 28.8334H190.479C190.684 28.8333 190.884 28.7796 191.061 28.6776C191.238 28.5757 191.386 28.429 191.488 28.2522C191.591 28.0755 191.645 27.875 191.646 27.6707C191.646 27.4664 191.593 27.2655 191.492 27.0881ZM175.833 33.5456V32.7289C175.833 32.6279 175.859 32.5285 175.909 32.4406C175.959 32.3527 176.031 32.2793 176.118 32.2276C176.204 32.1758 176.303 32.1475 176.404 32.1454C176.505 32.1433 176.605 32.1675 176.694 32.2156L179.893 33.9422C180.328 34.1779 180.147 34.8394 179.653 34.8196L176.953 34.7111C176.652 34.699 176.368 34.5711 176.159 34.3541C175.95 34.1371 175.833 33.8478 175.833 33.5467V33.5456ZM192.166 32.7289V33.5456C192.167 33.8471 192.05 34.137 191.841 34.3545C191.632 34.572 191.348 34.7002 191.046 34.7122L188.347 34.8196C187.852 34.8394 187.67 34.1779 188.106 33.9422L191.305 32.2156C191.394 32.1675 191.494 32.1433 191.595 32.1454C191.696 32.1475 191.795 32.1758 191.882 32.2276C191.969 32.2793 192.04 32.3527 192.09 32.4406C192.14 32.5285 192.166 32.6279 192.166 32.7289Z" fill="#fff"/>
<path fill-rule="evenodd" clip-rule="evenodd" d="M260.16 22.095C260.774 22.0631 261.512 22.0935 262.13 22.1146C265.863 22.2422 269.958 23.2699 272.821 25.7835C273.979 26.8006 274.94 28.2055 274.997 29.7855C275.048 31.2147 274.368 32.5512 273.407 33.5833C271.221 35.93 267.878 37.117 264.78 37.638C263.851 37.7942 262.85 37.8608 261.921 37.9066C257.46 38.0321 252.643 37.2259 249.166 34.2249C246.709 32.1046 246.158 28.833 248.473 26.388C251.374 23.3253 256.008 22.3051 260.063 22.1009C260.095 22.0985 260.128 22.0967 260.16 22.095ZM260.442 23.5042C259.435 23.5386 258.368 23.584 257.365 23.7581C254.724 24.2166 251.838 25.0643 249.915 27.0286C248.094 28.8885 248.307 31.4171 250.232 33.1155C252.433 35.0567 255.435 35.9008 258.301 36.2484C259.279 36.3581 260.641 36.4216 261.608 36.3812L261.683 36.3782C262.361 36.3362 263.088 36.3424 263.761 36.2523C266.773 35.8491 270.114 34.9643 272.248 32.6732C274.066 30.7202 273.572 28.2201 271.615 26.5931C268.548 24.0443 264.312 23.406 260.442 23.5042ZM260.025 24.2952C263.77 24.1365 268.095 24.7255 271.038 27.2454C272.683 28.6538 272.965 30.79 271.416 32.39C269.142 34.7372 265.194 35.5691 262.05 35.6985L261.994 35.7015C258.328 35.8805 253.829 35.1956 250.95 32.7415C249.338 31.367 249.025 29.1599 250.572 27.596C252.845 25.2981 256.799 24.4403 259.908 24.303C259.947 24.3 259.986 24.2971 260.025 24.2952ZM267.379 27.2288C267.082 27.1621 266.675 27.0976 266.373 27.137C265.737 27.2154 265.138 27.3426 264.72 27.8831C264.484 28.193 264.383 28.5854 264.439 28.971C264.588 30.0147 265.825 30.2254 266.689 30.4144C267.034 30.4898 268.191 30.738 267.698 31.39C267.336 31.8692 266.194 31.8691 265.771 31.4749C265.561 31.3016 265.529 31.1477 265.464 30.8939C265.12 30.8784 264.671 30.8707 264.328 30.8958C264.304 32.2031 265.37 32.6589 266.526 32.68C267.261 32.6671 267.995 32.5982 268.55 32.0521C269.068 31.5411 269.098 30.5336 268.545 30.0433C267.801 29.3855 266.725 29.425 265.852 29.0638C265.54 28.9347 265.471 28.5272 265.714 28.2952C265.928 28.0857 266.308 28.0055 266.598 28.013C267.129 28.0269 267.448 28.1847 267.644 28.678C267.878 28.6819 268.494 28.7182 268.674 28.6292C268.728 28.545 268.723 28.4396 268.701 28.3441C268.558 27.7349 267.954 27.3582 267.379 27.2288ZM260.17 27.2493C259.832 27.2421 259.375 27.2252 259.047 27.2571C259.021 27.2994 259.007 27.328 259.003 27.3782C258.96 27.8785 259.001 28.4014 259.004 28.9046C259.006 29.4879 258.974 30.0793 259.005 30.6614C259.015 30.8648 259.039 31.0711 259.088 31.2689C259.203 31.7354 259.467 32.1113 259.885 32.3548C260.493 32.709 261.449 32.7568 262.126 32.5706C262.618 32.435 263.06 32.1419 263.312 31.6907C263.686 31.0222 263.546 29.0273 263.549 28.2064C263.549 27.9059 263.557 27.5485 263.531 27.2542C263.212 27.2415 262.73 27.2265 262.414 27.2601C262.285 28.4358 262.529 29.883 262.311 31.0276C262.142 31.9151 260.285 32.0012 260.206 30.7894C260.129 29.6127 260.219 28.4244 260.17 27.2493ZM255.31 27.2386C254.863 27.2405 254.282 27.2245 253.843 27.2571C253.794 27.3131 253.778 27.3607 253.777 27.4349C253.759 29.0736 253.753 30.7173 253.778 32.3558C253.779 32.4058 253.79 32.4495 253.805 32.4964C253.989 32.6248 254.674 32.5701 254.916 32.5511C254.94 31.9232 254.93 31.2466 254.929 30.6146L255.897 30.6126C256.071 30.9233 256.952 32.3162 257.151 32.556L257.485 32.5677C257.804 32.566 258.192 32.5735 258.505 32.5472C258.258 32.0874 257.378 30.9491 257.029 30.4622C258.37 30.0983 258.602 28.1569 257.333 27.4798C257.14 27.3781 256.932 27.3098 256.717 27.2776C256.354 27.2218 255.694 27.2369 255.31 27.2386ZM254.928 28.1077C255.409 28.1028 256.097 28.0484 256.541 28.1712C257.127 28.3337 257.219 29.0588 256.827 29.4749C256.38 29.809 255.513 29.7092 254.928 29.7083C254.921 29.1803 254.929 28.637 254.928 28.1077Z" fill="#fff"/>
<path fill-rule="evenodd" clip-rule="evenodd" d="M333.519 20.6667C332.903 20.6669 332.297 20.8302 331.763 21.14C331.23 21.4498 330.787 21.8951 330.481 22.4307L328.156 26.5001H326.799C326.676 26.5001 326.557 26.5492 326.469 26.6368C326.382 26.7243 326.333 26.843 326.333 26.9667V27.5209C326.333 27.7292 326.402 27.9317 326.53 28.0959C326.658 28.2602 326.838 28.3769 327.04 28.4274L327.068 28.4332C326.581 29.4444 326.395 30.5745 326.535 31.6882L327.38 38.4561C327.451 39.0205 327.725 39.5397 328.152 39.9161C328.578 40.2925 329.127 40.5002 329.696 40.5001H329.833C330.452 40.5001 331.045 40.2542 331.483 39.8167C331.92 39.3791 332.166 38.7856 332.166 38.1667H343.833C343.833 38.7856 344.079 39.3791 344.516 39.8167C344.954 40.2542 345.547 40.5001 346.166 40.5001H346.303C346.871 40.5002 347.421 40.2925 347.847 39.9161C348.274 39.5397 348.548 39.0205 348.618 38.4561L349.464 31.6894C349.603 30.5757 349.418 29.4455 348.931 28.4344L348.959 28.4274C349.161 28.3769 349.341 28.2602 349.469 28.0959C349.597 27.9317 349.666 27.7292 349.666 27.5209V26.9667C349.666 26.843 349.617 26.7243 349.529 26.6368C349.442 26.5492 349.323 26.5001 349.199 26.5001H347.843L345.517 22.4307C345.211 21.8951 344.769 21.4498 344.236 21.14C343.702 20.8302 343.096 20.6669 342.479 20.6667H333.519ZM345.492 27.0881L343.492 23.5881C343.39 23.4093 343.242 23.2608 343.064 23.1575C342.886 23.0543 342.684 22.9999 342.478 23.0001H333.521C333.315 22.9999 333.113 23.0543 332.934 23.1575C332.756 23.2608 332.609 23.4093 332.507 23.5881L330.507 27.0881C330.406 27.2655 330.353 27.4664 330.353 27.6707C330.354 27.875 330.408 28.0755 330.511 28.2522C330.614 28.429 330.761 28.5757 330.938 28.6776C331.115 28.7796 331.315 28.8333 331.52 28.8334H344.479C344.683 28.8333 344.884 28.7796 345.061 28.6776C345.238 28.5757 345.385 28.429 345.488 28.2522C345.59 28.0755 345.645 27.875 345.645 27.6707C345.646 27.4664 345.593 27.2655 345.492 27.0881ZM329.833 33.5456V32.7289C329.833 32.6279 329.859 32.5285 329.909 32.4406C329.959 32.3527 330.031 32.2793 330.117 32.2276C330.204 32.1758 330.303 32.1475 330.404 32.1454C330.505 32.1433 330.605 32.1675 330.694 32.2156L333.893 33.9422C334.328 34.1779 334.147 34.8394 333.652 34.8196L330.953 34.7111C330.652 34.699 330.367 34.5711 330.159 34.3541C329.95 34.1371 329.833 33.8478 329.833 33.5467V33.5456ZM346.166 32.7289V33.5456C346.166 33.8471 346.05 34.137 345.841 34.3545C345.632 34.572 345.347 34.7002 345.046 34.7122L342.346 34.8196C341.852 34.8394 341.67 34.1779 342.106 33.9422L345.305 32.2156C345.394 32.1675 345.494 32.1433 345.595 32.1454C345.696 32.1475 345.795 32.1758 345.881 32.2276C345.968 32.2793 346.04 32.3527 346.09 32.4406C346.14 32.5285 346.166 32.6279 346.166 32.7289Z" fill="#fff"/>
<path fill-rule="evenodd" clip-rule="evenodd" d="M183.16 67.095C183.774 67.0631 184.513 67.0935 185.13 67.1146C188.864 67.2422 192.958 68.2699 195.821 70.7835C196.98 71.8006 197.94 73.2055 197.997 74.7855C198.048 76.2147 197.368 77.5512 196.407 78.5833C194.222 80.93 190.878 82.117 187.78 82.638C186.851 82.7942 185.851 82.8608 184.921 82.9066C180.46 83.0321 175.643 82.2259 172.166 79.2249C169.709 77.1046 169.158 73.833 171.474 71.388C174.374 68.3253 179.008 67.3051 183.063 67.1009C183.096 67.0985 183.128 67.0967 183.16 67.095ZM183.442 68.5042C182.435 68.5386 181.368 68.584 180.365 68.7581C177.724 69.2166 174.838 70.0643 172.915 72.0286C171.094 73.8885 171.307 76.4171 173.232 78.1155C175.433 80.0567 178.436 80.9008 181.302 81.2484C182.279 81.3581 183.642 81.4216 184.608 81.3812L184.684 81.3782C185.361 81.3362 186.088 81.3424 186.762 81.2523C189.773 80.8491 193.115 79.9643 195.248 77.6732C197.066 75.7202 196.573 73.2201 194.615 71.5931C191.548 69.0443 187.312 68.406 183.442 68.5042ZM183.025 69.2952C186.77 69.1365 191.095 69.7255 194.038 72.2454C195.683 73.6538 195.965 75.79 194.416 77.39C192.143 79.7372 188.195 80.5691 185.05 80.6985L184.994 80.7015C181.328 80.8805 176.829 80.1956 173.95 77.7415C172.338 76.367 172.025 74.1599 173.572 72.596C175.846 70.2981 179.799 69.4403 182.908 69.303C182.947 69.3 182.986 69.2971 183.025 69.2952ZM190.379 72.2288C190.082 72.1621 189.675 72.0976 189.373 72.137C188.737 72.2154 188.139 72.3426 187.721 72.8831C187.485 73.193 187.383 73.5854 187.439 73.971C187.588 75.0147 188.825 75.2254 189.689 75.4144C190.034 75.4898 191.191 75.738 190.698 76.39C190.336 76.8692 189.194 76.8691 188.771 76.4749C188.561 76.3016 188.529 76.1477 188.464 75.8939C188.121 75.8784 187.672 75.8707 187.328 75.8958C187.304 77.2031 188.37 77.6589 189.526 77.68C190.261 77.6671 190.995 77.5982 191.55 77.0521C192.068 76.5411 192.099 75.5336 191.545 75.0433C190.801 74.3855 189.726 74.425 188.853 74.0638C188.541 73.9347 188.471 73.5272 188.714 73.2952C188.928 73.0857 189.308 73.0055 189.599 73.013C190.129 73.0269 190.448 73.1847 190.645 73.678C190.878 73.6819 191.494 73.7182 191.674 73.6292C191.729 73.545 191.723 73.4396 191.701 73.3441C191.558 72.7349 190.954 72.3582 190.379 72.2288ZM183.17 72.2493C182.832 72.2421 182.376 72.2252 182.047 72.2571C182.021 72.2994 182.007 72.328 182.003 72.3782C181.96 72.8785 182.002 73.4014 182.004 73.9046C182.006 74.4879 181.975 75.0793 182.005 75.6614C182.015 75.8648 182.039 76.0711 182.088 76.2689C182.203 76.7354 182.467 77.1113 182.885 77.3548C183.493 77.709 184.449 77.7568 185.126 77.5706C185.618 77.435 186.06 77.1419 186.312 76.6907C186.687 76.0222 186.546 74.0273 186.549 73.2064C186.549 72.9059 186.557 72.5485 186.531 72.2542C186.212 72.2415 185.73 72.2265 185.414 72.2601C185.285 73.4358 185.529 74.883 185.312 76.0276C185.142 76.9151 183.286 77.0012 183.206 75.7894C183.129 74.6127 183.219 73.4244 183.17 72.2493ZM178.311 72.2386C177.863 72.2405 177.282 72.2245 176.843 72.2571C176.795 72.3131 176.778 72.3607 176.777 72.4349C176.759 74.0736 176.753 75.7173 176.778 77.3558C176.779 77.4058 176.79 77.4495 176.806 77.4964C176.989 77.6248 177.674 77.5701 177.916 77.5511C177.941 76.9232 177.93 76.2466 177.93 75.6146L178.897 75.6126C179.071 75.9233 179.953 77.3162 180.151 77.556L180.485 77.5677C180.805 77.566 181.192 77.5735 181.505 77.5472C181.258 77.0874 180.378 75.9491 180.029 75.4622C181.37 75.0983 181.602 73.1569 180.333 72.4798C180.141 72.3781 179.932 72.3098 179.717 72.2776C179.354 72.2218 178.694 72.2369 178.311 72.2386ZM177.929 73.1077C178.41 73.1028 179.098 73.0484 179.541 73.1712C180.127 73.3337 180.22 74.0588 179.827 74.4749C179.381 74.809 178.513 74.7092 177.929 74.7083C177.922 74.1803 177.929 73.637 177.929 73.1077Z" fill="#fff"/>
<path fill-rule="evenodd" clip-rule="evenodd" d="M256.52 65.6667C255.903 65.6669 255.297 65.8302 254.763 66.14C254.23 66.4498 253.788 66.8951 253.482 67.4307L251.157 71.5001H249.8C249.676 71.5001 249.557 71.5492 249.47 71.6368C249.382 71.7243 249.333 71.843 249.333 71.9667V72.5209C249.333 72.7292 249.402 72.9317 249.53 73.0959C249.658 73.2602 249.838 73.3769 250.04 73.4274L250.068 73.4332C249.581 74.4444 249.396 75.5745 249.535 76.6882L250.381 83.4561C250.451 84.0205 250.725 84.5397 251.152 84.9161C251.578 85.2925 252.128 85.5002 252.697 85.5001H252.833C253.452 85.5001 254.045 85.2542 254.483 84.8167C254.921 84.3791 255.166 83.7856 255.166 83.1667H266.833C266.833 83.7856 267.079 84.3791 267.516 84.8167C267.954 85.2542 268.548 85.5001 269.166 85.5001H269.303C269.872 85.5002 270.421 85.2925 270.847 84.9161C271.274 84.5397 271.548 84.0205 271.619 83.4561L272.465 76.6894C272.604 75.5757 272.418 74.4455 271.931 73.4344L271.959 73.4274C272.161 73.3769 272.341 73.2602 272.469 73.0959C272.597 72.9317 272.667 72.7292 272.666 72.5209V71.9667C272.666 71.843 272.617 71.7243 272.53 71.6368C272.442 71.5492 272.323 71.5001 272.2 71.5001H270.843L268.518 67.4307C268.212 66.8951 267.77 66.4498 267.236 66.14C266.703 65.8302 266.097 65.6669 265.48 65.6667H256.52ZM268.492 72.0881L266.492 68.5881C266.39 68.4093 266.243 68.2608 266.065 68.1575C265.887 68.0543 265.684 67.9999 265.479 68.0001H256.521C256.315 67.9999 256.113 68.0543 255.935 68.1575C255.757 68.2608 255.609 68.4093 255.507 68.5881L253.507 72.0881C253.406 72.2655 253.353 72.4664 253.354 72.6707C253.354 72.875 253.409 73.0755 253.511 73.2522C253.614 73.429 253.761 73.5757 253.938 73.6776C254.115 73.7796 254.316 73.8333 254.52 73.8334H267.479C267.684 73.8333 267.884 73.7796 268.061 73.6776C268.238 73.5757 268.386 73.429 268.488 73.2522C268.591 73.0755 268.645 72.875 268.646 72.6707C268.646 72.4664 268.593 72.2655 268.492 72.0881ZM252.833 78.5456V77.7289C252.833 77.6279 252.859 77.5285 252.909 77.4406C252.959 77.3527 253.031 77.2793 253.118 77.2276C253.204 77.1758 253.303 77.1475 253.404 77.1454C253.505 77.1433 253.605 77.1675 253.694 77.2156L256.893 78.9422C257.328 79.1779 257.147 79.8394 256.653 79.8196L253.953 79.7111C253.652 79.699 253.368 79.5711 253.159 79.3541C252.95 79.1371 252.833 78.8478 252.833 78.5467V78.5456ZM269.166 77.7289V78.5456C269.167 78.8471 269.05 79.137 268.841 79.3545C268.632 79.572 268.348 79.7002 268.046 79.7122L265.347 79.8196C264.852 79.8394 264.67 79.1779 265.106 78.9422L268.305 77.2156C268.394 77.1675 268.494 77.1433 268.595 77.1454C268.696 77.1475 268.795 77.1758 268.882 77.2276C268.969 77.2793 269.04 77.3527 269.09 77.4406C269.14 77.5285 269.166 77.6279 269.166 77.7289Z" fill="#fff"/>
<path fill-rule="evenodd" clip-rule="evenodd" d="M337.16 67.095C337.774 67.0631 338.512 67.0935 339.13 67.1146C342.863 67.2422 346.958 68.2699 349.821 70.7835C350.979 71.8006 351.94 73.2055 351.997 74.7855C352.048 76.2147 351.368 77.5512 350.407 78.5833C348.221 80.93 344.878 82.117 341.78 82.638C340.851 82.7942 339.85 82.8608 338.921 82.9066C334.46 83.0321 329.643 82.2259 326.166 79.2249C323.709 77.1046 323.158 73.833 325.473 71.388C328.374 68.3253 333.008 67.3051 337.063 67.1009C337.095 67.0985 337.128 67.0967 337.16 67.095ZM337.442 68.5042C336.435 68.5386 335.368 68.584 334.365 68.7581C331.724 69.2166 328.838 70.0643 326.915 72.0286C325.094 73.8885 325.307 76.4171 327.232 78.1155C329.433 80.0567 332.435 80.9008 335.301 81.2484C336.279 81.3581 337.641 81.4216 338.608 81.3812L338.683 81.3782C339.361 81.3362 340.088 81.3424 340.761 81.2523C343.773 80.8491 347.114 79.9643 349.248 77.6732C351.066 75.7202 350.572 73.2201 348.615 71.5931C345.548 69.0443 341.312 68.406 337.442 68.5042ZM337.025 69.2952C340.77 69.1365 345.095 69.7255 348.038 72.2454C349.683 73.6538 349.965 75.79 348.416 77.39C346.142 79.7372 342.194 80.5691 339.05 80.6985L338.994 80.7015C335.328 80.8805 330.829 80.1956 327.95 77.7415C326.338 76.367 326.025 74.1599 327.572 72.596C329.845 70.2981 333.799 69.4403 336.908 69.303C336.947 69.3 336.986 69.2971 337.025 69.2952ZM344.379 72.2288C344.082 72.1621 343.675 72.0976 343.373 72.137C342.737 72.2154 342.138 72.3426 341.72 72.8831C341.484 73.193 341.383 73.5854 341.439 73.971C341.588 75.0147 342.825 75.2254 343.689 75.4144C344.034 75.4898 345.191 75.738 344.698 76.39C344.336 76.8692 343.194 76.8691 342.771 76.4749C342.561 76.3016 342.529 76.1477 342.464 75.8939C342.12 75.8784 341.671 75.8707 341.328 75.8958C341.304 77.2031 342.37 77.6589 343.526 77.68C344.261 77.6671 344.995 77.5982 345.55 77.0521C346.068 76.5411 346.098 75.5336 345.545 75.0433C344.801 74.3855 343.725 74.425 342.852 74.0638C342.54 73.9347 342.471 73.5272 342.714 73.2952C342.928 73.0857 343.308 73.0055 343.598 73.013C344.129 73.0269 344.448 73.1847 344.644 73.678C344.878 73.6819 345.494 73.7182 345.674 73.6292C345.728 73.545 345.723 73.4396 345.701 73.3441C345.558 72.7349 344.954 72.3582 344.379 72.2288ZM337.17 72.2493C336.832 72.2421 336.375 72.2252 336.047 72.2571C336.021 72.2994 336.007 72.328 336.003 72.3782C335.96 72.8785 336.001 73.4014 336.004 73.9046C336.006 74.4879 335.974 75.0793 336.005 75.6614C336.015 75.8648 336.039 76.0711 336.088 76.2689C336.203 76.7354 336.467 77.1113 336.885 77.3548C337.493 77.709 338.449 77.7568 339.126 77.5706C339.618 77.435 340.06 77.1419 340.312 76.6907C340.686 76.0222 340.546 74.0273 340.549 73.2064C340.549 72.9059 340.557 72.5485 340.531 72.2542C340.212 72.2415 339.73 72.2265 339.414 72.2601C339.285 73.4358 339.529 74.883 339.311 76.0276C339.142 76.9151 337.285 77.0012 337.206 75.7894C337.129 74.6127 337.219 73.4244 337.17 72.2493ZM332.31 72.2386C331.863 72.2405 331.282 72.2245 330.843 72.2571C330.794 72.3131 330.778 72.3607 330.777 72.4349C330.759 74.0736 330.753 75.7173 330.778 77.3558C330.779 77.4058 330.79 77.4495 330.805 77.4964C330.989 77.6248 331.674 77.5701 331.916 77.5511C331.94 76.9232 331.93 76.2466 331.929 75.6146L332.897 75.6126C333.071 75.9233 333.952 77.3162 334.151 77.556L334.485 77.5677C334.804 77.566 335.192 77.5735 335.505 77.5472C335.258 77.0874 334.378 75.9491 334.029 75.4622C335.37 75.0983 335.602 73.1569 334.333 72.4798C334.14 72.3781 333.932 72.3098 333.717 72.2776C333.354 72.2218 332.694 72.2369 332.31 72.2386ZM331.928 73.1077C332.409 73.1028 333.097 73.0484 333.541 73.1712C334.127 73.3337 334.219 74.0588 333.827 74.4749C333.38 74.809 332.513 74.7092 331.928 74.7083C331.921 74.1803 331.929 73.637 331.928 73.1077Z" fill="#fff"/>
<path fill-rule="evenodd" clip-rule="evenodd" d="M106.16 112.095C106.774 112.063 107.513 112.093 108.13 112.115C111.864 112.242 115.958 113.27 118.821 115.784C119.98 116.801 120.94 118.206 120.997 119.785C121.048 121.215 120.368 122.551 119.407 123.583C117.222 125.93 113.878 127.117 110.78 127.638C109.851 127.794 108.851 127.861 107.921 127.907C103.46 128.032 98.6433 127.226 95.166 124.225C92.7092 122.105 92.1579 118.833 94.4736 116.388C97.3744 113.325 102.008 112.305 106.063 112.101C106.096 112.098 106.128 112.097 106.16 112.095ZM106.442 113.504C105.435 113.539 104.368 113.584 103.365 113.758C100.724 114.217 97.838 115.064 95.915 117.029C94.0944 118.889 94.3069 121.417 96.2324 123.116C98.4333 125.057 101.436 125.901 104.302 126.248C105.279 126.358 106.642 126.422 107.608 126.381L107.684 126.378C108.361 126.336 109.088 126.342 109.762 126.252C112.773 125.849 116.115 124.964 118.248 122.673C120.066 120.72 119.573 118.22 117.615 116.593C114.548 114.044 110.312 113.406 106.442 113.504ZM106.025 114.295C109.77 114.136 114.095 114.726 117.038 117.245C118.683 118.654 118.965 120.79 117.416 122.39C115.143 124.737 111.195 125.569 108.05 125.699L107.994 125.701C104.328 125.881 99.8288 125.196 96.9502 122.742C95.3382 121.367 95.0251 119.16 96.5722 117.596C98.8456 115.298 102.799 114.44 105.908 114.303C105.947 114.3 105.986 114.297 106.025 114.295ZM113.379 117.229C113.082 117.162 112.675 117.098 112.373 117.137C111.737 117.215 111.139 117.343 110.721 117.883C110.485 118.193 110.383 118.585 110.439 118.971C110.588 120.015 111.825 120.225 112.689 120.414C113.034 120.49 114.191 120.738 113.698 121.39C113.336 121.869 112.194 121.869 111.771 121.475C111.561 121.302 111.529 121.148 111.464 120.894C111.121 120.878 110.672 120.871 110.328 120.896C110.304 122.203 111.37 122.659 112.526 122.68C113.261 122.667 113.995 122.598 114.55 122.052C115.068 121.541 115.099 120.534 114.545 120.043C113.801 119.386 112.726 119.425 111.853 119.064C111.541 118.935 111.471 118.527 111.714 118.295C111.928 118.086 112.308 118.005 112.599 118.013C113.129 118.027 113.448 118.185 113.645 118.678C113.878 118.682 114.494 118.718 114.674 118.629C114.729 118.545 114.723 118.44 114.701 118.344C114.558 117.735 113.954 117.358 113.379 117.229ZM106.17 117.249C105.832 117.242 105.376 117.225 105.047 117.257C105.021 117.299 105.007 117.328 105.003 117.378C104.96 117.879 105.002 118.401 105.004 118.905C105.006 119.488 104.975 120.079 105.005 120.661C105.015 120.865 105.039 121.071 105.088 121.269C105.203 121.735 105.467 122.111 105.885 122.355C106.493 122.709 107.449 122.757 108.126 122.571C108.618 122.435 109.06 122.142 109.312 121.691C109.687 121.022 109.546 119.027 109.549 118.206C109.549 117.906 109.557 117.549 109.531 117.254C109.212 117.241 108.73 117.226 108.414 117.26C108.285 118.436 108.529 119.883 108.312 121.028C108.142 121.915 106.286 122.001 106.206 120.789C106.129 119.613 106.219 118.424 106.17 117.249ZM101.311 117.239C100.863 117.24 100.282 117.225 99.8428 117.257C99.7946 117.313 99.7782 117.361 99.7773 117.435C99.7594 119.074 99.7534 120.717 99.7783 122.356C99.7791 122.406 99.7901 122.449 99.8056 122.496C99.9889 122.625 100.674 122.57 100.916 122.551C100.941 121.923 100.93 121.247 100.93 120.615L101.897 120.613C102.071 120.923 102.953 122.316 103.151 122.556L103.485 122.568C103.805 122.566 104.192 122.573 104.505 122.547C104.258 122.087 103.378 120.949 103.029 120.462C104.37 120.098 104.602 118.157 103.333 117.48C103.141 117.378 102.932 117.31 102.717 117.278C102.354 117.222 101.694 117.237 101.311 117.239ZM100.929 118.108C101.41 118.103 102.098 118.048 102.541 118.171C103.127 118.334 103.22 119.059 102.827 119.475C102.381 119.809 101.513 119.709 100.929 119.708C100.922 119.18 100.929 118.637 100.929 118.108Z" fill="#fff"/>
<path fill-rule="evenodd" clip-rule="evenodd" d="M179.52 110.667C178.903 110.667 178.297 110.83 177.763 111.14C177.23 111.45 176.788 111.895 176.482 112.431L174.157 116.5H172.8C172.676 116.5 172.557 116.549 172.47 116.637C172.382 116.724 172.333 116.843 172.333 116.967V117.521C172.333 117.729 172.402 117.932 172.53 118.096C172.658 118.26 172.838 118.377 173.04 118.427L173.068 118.433C172.581 119.444 172.396 120.575 172.535 121.688L173.381 128.456C173.451 129.021 173.725 129.54 174.152 129.916C174.578 130.293 175.128 130.5 175.697 130.5H175.833C176.452 130.5 177.045 130.254 177.483 129.817C177.921 129.379 178.166 128.786 178.166 128.167H189.833C189.833 128.786 190.079 129.379 190.516 129.817C190.954 130.254 191.548 130.5 192.166 130.5H192.303C192.872 130.5 193.421 130.293 193.847 129.916C194.274 129.54 194.548 129.021 194.619 128.456L195.465 121.689C195.604 120.576 195.418 119.446 194.931 118.434L194.959 118.427C195.161 118.377 195.341 118.26 195.469 118.096C195.597 117.932 195.667 117.729 195.666 117.521V116.967C195.666 116.843 195.617 116.724 195.53 116.637C195.442 116.549 195.323 116.5 195.2 116.5H193.843L191.518 112.431C191.212 111.895 190.77 111.45 190.236 111.14C189.703 110.83 189.097 110.667 188.48 110.667H179.52ZM191.492 117.088L189.492 113.588C189.39 113.409 189.243 113.261 189.065 113.158C188.887 113.054 188.684 113 188.479 113H179.521C179.315 113 179.113 113.054 178.935 113.158C178.757 113.261 178.609 113.409 178.507 113.588L176.507 117.088C176.406 117.265 176.353 117.466 176.354 117.671C176.354 117.875 176.409 118.076 176.511 118.252C176.614 118.429 176.761 118.576 176.938 118.678C177.115 118.78 177.316 118.833 177.52 118.833H190.479C190.684 118.833 190.884 118.78 191.061 118.678C191.238 118.576 191.386 118.429 191.488 118.252C191.591 118.076 191.645 117.875 191.646 117.671C191.646 117.466 191.593 117.265 191.492 117.088ZM175.833 123.546V122.729C175.833 122.628 175.859 122.529 175.909 122.441C175.959 122.353 176.031 122.279 176.118 122.228C176.204 122.176 176.303 122.147 176.404 122.145C176.505 122.143 176.605 122.167 176.694 122.216L179.893 123.942C180.328 124.178 180.147 124.839 179.653 124.82L176.953 124.711C176.652 124.699 176.368 124.571 176.159 124.354C175.95 124.137 175.833 123.848 175.833 123.547V123.546ZM192.166 122.729V123.546C192.167 123.847 192.05 124.137 191.841 124.354C191.632 124.572 191.348 124.7 191.046 124.712L188.347 124.82C187.852 124.839 187.67 124.178 188.106 123.942L191.305 122.216C191.394 122.167 191.494 122.143 191.595 122.145C191.696 122.147 191.795 122.176 191.882 122.228C191.969 122.279 192.04 122.353 192.09 122.441C192.14 122.529 192.166 122.628 192.166 122.729Z" fill="#fff"/>
<path fill-rule="evenodd" clip-rule="evenodd" d="M260.16 112.095C260.774 112.063 261.512 112.093 262.13 112.115C265.863 112.242 269.958 113.27 272.821 115.784C273.979 116.801 274.94 118.206 274.997 119.785C275.048 121.215 274.368 122.551 273.407 123.583C271.221 125.93 267.878 127.117 264.78 127.638C263.851 127.794 262.85 127.861 261.921 127.907C257.46 128.032 252.643 127.226 249.166 124.225C246.709 122.105 246.158 118.833 248.473 116.388C251.374 113.325 256.008 112.305 260.063 112.101C260.095 112.098 260.128 112.097 260.16 112.095ZM260.442 113.504C259.435 113.539 258.368 113.584 257.365 113.758C254.724 114.217 251.838 115.064 249.915 117.029C248.094 118.889 248.307 121.417 250.232 123.116C252.433 125.057 255.435 125.901 258.301 126.248C259.279 126.358 260.641 126.422 261.608 126.381L261.683 126.378C262.361 126.336 263.088 126.342 263.761 126.252C266.773 125.849 270.114 124.964 272.248 122.673C274.066 120.72 273.572 118.22 271.615 116.593C268.548 114.044 264.312 113.406 260.442 113.504ZM260.025 114.295C263.77 114.136 268.095 114.726 271.038 117.245C272.683 118.654 272.965 120.79 271.416 122.39C269.142 124.737 265.194 125.569 262.05 125.699L261.994 125.701C258.328 125.881 253.829 125.196 250.95 122.742C249.338 121.367 249.025 119.16 250.572 117.596C252.845 115.298 256.799 114.44 259.908 114.303C259.947 114.3 259.986 114.297 260.025 114.295ZM267.379 117.229C267.082 117.162 266.675 117.098 266.373 117.137C265.737 117.215 265.138 117.343 264.72 117.883C264.484 118.193 264.383 118.585 264.439 118.971C264.588 120.015 265.825 120.225 266.689 120.414C267.034 120.49 268.191 120.738 267.698 121.39C267.336 121.869 266.194 121.869 265.771 121.475C265.561 121.302 265.529 121.148 265.464 120.894C265.12 120.878 264.671 120.871 264.328 120.896C264.304 122.203 265.37 122.659 266.526 122.68C267.261 122.667 267.995 122.598 268.55 122.052C269.068 121.541 269.098 120.534 268.545 120.043C267.801 119.386 266.725 119.425 265.852 119.064C265.54 118.935 265.471 118.527 265.714 118.295C265.928 118.086 266.308 118.005 266.598 118.013C267.129 118.027 267.448 118.185 267.644 118.678C267.878 118.682 268.494 118.718 268.674 118.629C268.728 118.545 268.723 118.44 268.701 118.344C268.558 117.735 267.954 117.358 267.379 117.229ZM260.17 117.249C259.832 117.242 259.375 117.225 259.047 117.257C259.021 117.299 259.007 117.328 259.003 117.378C258.96 117.879 259.001 118.401 259.004 118.905C259.006 119.488 258.974 120.079 259.005 120.661C259.015 120.865 259.039 121.071 259.088 121.269C259.203 121.735 259.467 122.111 259.885 122.355C260.493 122.709 261.449 122.757 262.126 122.571C262.618 122.435 263.06 122.142 263.312 121.691C263.686 121.022 263.546 119.027 263.549 118.206C263.549 117.906 263.557 117.549 263.531 117.254C263.212 117.241 262.73 117.226 262.414 117.26C262.285 118.436 262.529 119.883 262.311 121.028C262.142 121.915 260.285 122.001 260.206 120.789C260.129 119.613 260.219 118.424 260.17 117.249ZM255.31 117.239C254.863 117.24 254.282 117.225 253.843 117.257C253.794 117.313 253.778 117.361 253.777 117.435C253.759 119.074 253.753 120.717 253.778 122.356C253.779 122.406 253.79 122.449 253.805 122.496C253.989 122.625 254.674 122.57 254.916 122.551C254.94 121.923 254.93 121.247 254.929 120.615L255.897 120.613C256.071 120.923 256.952 122.316 257.151 122.556L257.485 122.568C257.804 122.566 258.192 122.573 258.505 122.547C258.258 122.087 257.378 120.949 257.029 120.462C258.37 120.098 258.602 118.157 257.333 117.48C257.14 117.378 256.932 117.31 256.717 117.278C256.354 117.222 255.694 117.237 255.31 117.239ZM254.928 118.108C255.409 118.103 256.097 118.048 256.541 118.171C257.127 118.334 257.219 119.059 256.827 119.475C256.38 119.809 255.513 119.709 254.928 119.708C254.921 119.18 254.929 118.637 254.928 118.108Z" fill="#fff"/>
<path fill-rule="evenodd" clip-rule="evenodd" d="M333.519 110.667C332.903 110.667 332.297 110.83 331.763 111.14C331.23 111.45 330.787 111.895 330.481 112.431L328.156 116.5H326.799C326.676 116.5 326.557 116.549 326.469 116.637C326.382 116.724 326.333 116.843 326.333 116.967V117.521C326.333 117.729 326.402 117.932 326.53 118.096C326.658 118.26 326.838 118.377 327.04 118.427L327.068 118.433C326.581 119.444 326.395 120.575 326.535 121.688L327.38 128.456C327.451 129.021 327.725 129.54 328.152 129.916C328.578 130.293 329.127 130.5 329.696 130.5H329.833C330.452 130.5 331.045 130.254 331.483 129.817C331.92 129.379 332.166 128.786 332.166 128.167H343.833C343.833 128.786 344.079 129.379 344.516 129.817C344.954 130.254 345.547 130.5 346.166 130.5H346.303C346.871 130.5 347.421 130.293 347.847 129.916C348.274 129.54 348.548 129.021 348.618 128.456L349.464 121.689C349.603 120.576 349.418 119.446 348.931 118.434L348.959 118.427C349.161 118.377 349.341 118.26 349.469 118.096C349.597 117.932 349.666 117.729 349.666 117.521V116.967C349.666 116.843 349.617 116.724 349.529 116.637C349.442 116.549 349.323 116.5 349.199 116.5H347.843L345.517 112.431C345.211 111.895 344.769 111.45 344.236 111.14C343.702 110.83 343.096 110.667 342.479 110.667H333.519ZM345.492 117.088L343.492 113.588C343.39 113.409 343.242 113.261 343.064 113.158C342.886 113.054 342.684 113 342.478 113H333.521C333.315 113 333.113 113.054 332.934 113.158C332.756 113.261 332.609 113.409 332.507 113.588L330.507 117.088C330.406 117.265 330.353 117.466 330.353 117.671C330.354 117.875 330.408 118.076 330.511 118.252C330.614 118.429 330.761 118.576 330.938 118.678C331.115 118.78 331.315 118.833 331.52 118.833H344.479C344.683 118.833 344.884 118.78 345.061 118.678C345.238 118.576 345.385 118.429 345.488 118.252C345.59 118.076 345.645 117.875 345.645 117.671C345.646 117.466 345.593 117.265 345.492 117.088ZM329.833 123.546V122.729C329.833 122.628 329.859 122.529 329.909 122.441C329.959 122.353 330.031 122.279 330.117 122.228C330.204 122.176 330.303 122.147 330.404 122.145C330.505 122.143 330.605 122.167 330.694 122.216L333.893 123.942C334.328 124.178 334.147 124.839 333.652 124.82L330.953 124.711C330.652 124.699 330.367 124.571 330.159 124.354C329.95 124.137 329.833 123.848 329.833 123.547V123.546ZM346.166 122.729V123.546C346.166 123.847 346.05 124.137 345.841 124.354C345.632 124.572 345.347 124.7 345.046 124.712L342.346 124.82C341.852 124.839 341.67 124.178 342.106 123.942L345.305 122.216C345.394 122.167 345.494 122.143 345.595 122.145C345.696 122.147 345.795 122.176 345.881 122.228C345.968 122.279 346.04 122.353 346.09 122.441C346.14 122.529 346.166 122.628 346.166 122.729Z" fill="#fff"/>
<path fill-rule="evenodd" clip-rule="evenodd" d="M183.16 157.095C183.774 157.063 184.513 157.093 185.13 157.115C188.864 157.242 192.958 158.27 195.821 160.784C196.98 161.801 197.94 163.206 197.997 164.785C198.048 166.215 197.368 167.551 196.407 168.583C194.222 170.93 190.878 172.117 187.78 172.638C186.851 172.794 185.851 172.861 184.921 172.907C180.46 173.032 175.643 172.226 172.166 169.225C169.709 167.105 169.158 163.833 171.474 161.388C174.374 158.325 179.008 157.305 183.063 157.101C183.096 157.098 183.128 157.097 183.16 157.095ZM183.442 158.504C182.435 158.539 181.368 158.584 180.365 158.758C177.724 159.217 174.838 160.064 172.915 162.029C171.094 163.889 171.307 166.417 173.232 168.116C175.433 170.057 178.436 170.901 181.302 171.248C182.279 171.358 183.642 171.422 184.608 171.381L184.684 171.378C185.361 171.336 186.088 171.342 186.762 171.252C189.773 170.849 193.115 169.964 195.248 167.673C197.066 165.72 196.573 163.22 194.615 161.593C191.548 159.044 187.312 158.406 183.442 158.504ZM183.025 159.295C186.77 159.136 191.095 159.726 194.038 162.245C195.683 163.654 195.965 165.79 194.416 167.39C192.143 169.737 188.195 170.569 185.05 170.699L184.994 170.701C181.328 170.881 176.829 170.196 173.95 167.742C172.338 166.367 172.025 164.16 173.572 162.596C175.846 160.298 179.799 159.44 182.908 159.303C182.947 159.3 182.986 159.297 183.025 159.295ZM190.379 162.229C190.082 162.162 189.675 162.098 189.373 162.137C188.737 162.215 188.139 162.343 187.721 162.883C187.485 163.193 187.383 163.585 187.439 163.971C187.588 165.015 188.825 165.225 189.689 165.414C190.034 165.49 191.191 165.738 190.698 166.39C190.336 166.869 189.194 166.869 188.771 166.475C188.561 166.302 188.529 166.148 188.464 165.894C188.121 165.878 187.672 165.871 187.328 165.896C187.304 167.203 188.37 167.659 189.526 167.68C190.261 167.667 190.995 167.598 191.55 167.052C192.068 166.541 192.099 165.534 191.545 165.043C190.801 164.386 189.726 164.425 188.853 164.064C188.541 163.935 188.471 163.527 188.714 163.295C188.928 163.086 189.308 163.005 189.599 163.013C190.129 163.027 190.448 163.185 190.645 163.678C190.878 163.682 191.494 163.718 191.674 163.629C191.729 163.545 191.723 163.44 191.701 163.344C191.558 162.735 190.954 162.358 190.379 162.229ZM183.17 162.249C182.832 162.242 182.376 162.225 182.047 162.257C182.021 162.299 182.007 162.328 182.003 162.378C181.96 162.879 182.002 163.401 182.004 163.905C182.006 164.488 181.975 165.079 182.005 165.661C182.015 165.865 182.039 166.071 182.088 166.269C182.203 166.735 182.467 167.111 182.885 167.355C183.493 167.709 184.449 167.757 185.126 167.571C185.618 167.435 186.06 167.142 186.312 166.691C186.687 166.022 186.546 164.027 186.549 163.206C186.549 162.906 186.557 162.549 186.531 162.254C186.212 162.241 185.73 162.226 185.414 162.26C185.285 163.436 185.529 164.883 185.312 166.028C185.142 166.915 183.286 167.001 183.206 165.789C183.129 164.613 183.219 163.424 183.17 162.249ZM178.311 162.239C177.863 162.24 177.282 162.225 176.843 162.257C176.795 162.313 176.778 162.361 176.777 162.435C176.759 164.074 176.753 165.717 176.778 167.356C176.779 167.406 176.79 167.449 176.806 167.496C176.989 167.625 177.674 167.57 177.916 167.551C177.941 166.923 177.93 166.247 177.93 165.615L178.897 165.613C179.071 165.923 179.953 167.316 180.151 167.556L180.485 167.568C180.805 167.566 181.192 167.573 181.505 167.547C181.258 167.087 180.378 165.949 180.029 165.462C181.37 165.098 181.602 163.157 180.333 162.48C180.141 162.378 179.932 162.31 179.717 162.278C179.354 162.222 178.694 162.237 178.311 162.239ZM177.929 163.108C178.41 163.103 179.098 163.048 179.541 163.171C180.127 163.334 180.22 164.059 179.827 164.475C179.381 164.809 178.513 164.709 177.929 164.708C177.922 164.18 177.929 163.637 177.929 163.108Z" fill="#fff"/>
<path fill-rule="evenodd" clip-rule="evenodd" d="M256.52 155.667C255.903 155.667 255.297 155.83 254.763 156.14C254.23 156.45 253.788 156.895 253.482 157.431L251.157 161.5H249.8C249.676 161.5 249.557 161.549 249.47 161.637C249.382 161.724 249.333 161.843 249.333 161.967V162.521C249.333 162.729 249.402 162.932 249.53 163.096C249.658 163.26 249.838 163.377 250.04 163.427L250.068 163.433C249.581 164.444 249.396 165.575 249.535 166.688L250.381 173.456C250.451 174.021 250.725 174.54 251.152 174.916C251.578 175.293 252.128 175.5 252.697 175.5H252.833C253.452 175.5 254.045 175.254 254.483 174.817C254.921 174.379 255.166 173.786 255.166 173.167H266.833C266.833 173.786 267.079 174.379 267.516 174.817C267.954 175.254 268.548 175.5 269.166 175.5H269.303C269.872 175.5 270.421 175.293 270.847 174.916C271.274 174.54 271.548 174.021 271.619 173.456L272.465 166.689C272.604 165.576 272.418 164.446 271.931 163.434L271.959 163.427C272.161 163.377 272.341 163.26 272.469 163.096C272.597 162.932 272.667 162.729 272.666 162.521V161.967C272.666 161.843 272.617 161.724 272.53 161.637C272.442 161.549 272.323 161.5 272.2 161.5H270.843L268.518 157.431C268.212 156.895 267.77 156.45 267.236 156.14C266.703 155.83 266.097 155.667 265.48 155.667H256.52ZM268.492 162.088L266.492 158.588C266.39 158.409 266.243 158.261 266.065 158.158C265.887 158.054 265.684 158 265.479 158H256.521C256.315 158 256.113 158.054 255.935 158.158C255.757 158.261 255.609 158.409 255.507 158.588L253.507 162.088C253.406 162.265 253.353 162.466 253.354 162.671C253.354 162.875 253.409 163.076 253.511 163.252C253.614 163.429 253.761 163.576 253.938 163.678C254.115 163.78 254.316 163.833 254.52 163.833H267.479C267.684 163.833 267.884 163.78 268.061 163.678C268.238 163.576 268.386 163.429 268.488 163.252C268.591 163.076 268.645 162.875 268.646 162.671C268.646 162.466 268.593 162.265 268.492 162.088ZM252.833 168.546V167.729C252.833 167.628 252.859 167.529 252.909 167.441C252.959 167.353 253.031 167.279 253.118 167.228C253.204 167.176 253.303 167.147 253.404 167.145C253.505 167.143 253.605 167.167 253.694 167.216L256.893 168.942C257.328 169.178 257.147 169.839 256.653 169.82L253.953 169.711C253.652 169.699 253.368 169.571 253.159 169.354C252.95 169.137 252.833 168.848 252.833 168.547V168.546ZM269.166 167.729V168.546C269.167 168.847 269.05 169.137 268.841 169.354C268.632 169.572 268.348 169.7 268.046 169.712L265.347 169.82C264.852 169.839 264.67 169.178 265.106 168.942L268.305 167.216C268.394 167.167 268.494 167.143 268.595 167.145C268.696 167.147 268.795 167.176 268.882 167.228C268.969 167.279 269.04 167.353 269.09 167.441C269.14 167.529 269.166 167.628 269.166 167.729Z" fill="#fff"/>
<path fill-rule="evenodd" clip-rule="evenodd" d="M337.16 157.095C337.774 157.063 338.512 157.093 339.13 157.115C342.863 157.242 346.958 158.27 349.821 160.784C350.979 161.801 351.94 163.206 351.997 164.785C352.048 166.215 351.368 167.551 350.407 168.583C348.221 170.93 344.878 172.117 341.78 172.638C340.851 172.794 339.85 172.861 338.921 172.907C334.46 173.032 329.643 172.226 326.166 169.225C323.709 167.105 323.158 163.833 325.473 161.388C328.374 158.325 333.008 157.305 337.063 157.101C337.095 157.098 337.128 157.097 337.16 157.095ZM337.442 158.504C336.435 158.539 335.368 158.584 334.365 158.758C331.724 159.217 328.838 160.064 326.915 162.029C325.094 163.889 325.307 166.417 327.232 168.116C329.433 170.057 332.435 170.901 335.301 171.248C336.279 171.358 337.641 171.422 338.608 171.381L338.683 171.378C339.361 171.336 340.088 171.342 340.761 171.252C343.773 170.849 347.114 169.964 349.248 167.673C351.066 165.72 350.572 163.22 348.615 161.593C345.548 159.044 341.312 158.406 337.442 158.504ZM337.025 159.295C340.77 159.136 345.095 159.726 348.038 162.245C349.683 163.654 349.965 165.79 348.416 167.39C346.142 169.737 342.194 170.569 339.05 170.699L338.994 170.701C335.328 170.881 330.829 170.196 327.95 167.742C326.338 166.367 326.025 164.16 327.572 162.596C329.845 160.298 333.799 159.44 336.908 159.303C336.947 159.3 336.986 159.297 337.025 159.295ZM344.379 162.229C344.082 162.162 343.675 162.098 343.373 162.137C342.737 162.215 342.138 162.343 341.72 162.883C341.484 163.193 341.383 163.585 341.439 163.971C341.588 165.015 342.825 165.225 343.689 165.414C344.034 165.49 345.191 165.738 344.698 166.39C344.336 166.869 343.194 166.869 342.771 166.475C342.561 166.302 342.529 166.148 342.464 165.894C342.12 165.878 341.671 165.871 341.328 165.896C341.304 167.203 342.37 167.659 343.526 167.68C344.261 167.667 344.995 167.598 345.55 167.052C346.068 166.541 346.098 165.534 345.545 165.043C344.801 164.386 343.725 164.425 342.852 164.064C342.54 163.935 342.471 163.527 342.714 163.295C342.928 163.086 343.308 163.005 343.598 163.013C344.129 163.027 344.448 163.185 344.644 163.678C344.878 163.682 345.494 163.718 345.674 163.629C345.728 163.545 345.723 163.44 345.701 163.344C345.558 162.735 344.954 162.358 344.379 162.229ZM337.17 162.249C336.832 162.242 336.375 162.225 336.047 162.257C336.021 162.299 336.007 162.328 336.003 162.378C335.96 162.879 336.001 163.401 336.004 163.905C336.006 164.488 335.974 165.079 336.005 165.661C336.015 165.865 336.039 166.071 336.088 166.269C336.203 166.735 336.467 167.111 336.885 167.355C337.493 167.709 338.449 167.757 339.126 167.571C339.618 167.435 340.06 167.142 340.312 166.691C340.686 166.022 340.546 164.027 340.549 163.206C340.549 162.906 340.557 162.549 340.531 162.254C340.212 162.241 339.73 162.226 339.414 162.26C339.285 163.436 339.529 164.883 339.311 166.028C339.142 166.915 337.285 167.001 337.206 165.789C337.129 164.613 337.219 163.424 337.17 162.249ZM332.31 162.239C331.863 162.24 331.282 162.225 330.843 162.257C330.794 162.313 330.778 162.361 330.777 162.435C330.759 164.074 330.753 165.717 330.778 167.356C330.779 167.406 330.79 167.449 330.805 167.496C330.989 167.625 331.674 167.57 331.916 167.551C331.94 166.923 331.93 166.247 331.929 165.615L332.897 165.613C333.071 165.923 333.952 167.316 334.151 167.556L334.485 167.568C334.804 167.566 335.192 167.573 335.505 167.547C335.258 167.087 334.378 165.949 334.029 165.462C335.37 165.098 335.602 163.157 334.333 162.48C334.14 162.378 333.932 162.31 333.717 162.278C333.354 162.222 332.694 162.237 332.31 162.239ZM331.928 163.108C332.409 163.103 333.097 163.048 333.541 163.171C334.127 163.334 334.219 164.059 333.827 164.475C333.38 164.809 332.513 164.709 331.928 164.708C331.921 164.18 331.929 163.637 331.928 163.108Z" fill="#fff"/>
<path fill-rule="evenodd" clip-rule="evenodd" d="M25.5199 200.667C24.903 200.667 24.2971 200.83 23.7636 201.14C23.2301 201.45 22.7879 201.895 22.4819 202.431L20.1568 206.5H18.7999C18.6762 206.5 18.5575 206.549 18.4699 206.637C18.3824 206.724 18.3333 206.843 18.3333 206.967V207.521C18.333 207.729 18.4025 207.932 18.5306 208.096C18.6587 208.26 18.8381 208.377 19.0403 208.427L19.0683 208.433C18.5811 209.444 18.396 210.575 18.5351 211.688L19.3809 218.456C19.4515 219.021 19.7257 219.54 20.1522 219.916C20.5787 220.293 21.1279 220.5 21.6968 220.5H21.8333C22.4521 220.5 23.0456 220.254 23.4832 219.817C23.9208 219.379 24.1666 218.786 24.1666 218.167H35.8333C35.8333 218.786 36.0791 219.379 36.5167 219.817C36.9543 220.254 37.5477 220.5 38.1666 220.5H38.3031C38.8719 220.5 39.4212 220.293 39.8476 219.916C40.2741 219.54 40.5484 219.021 40.6189 218.456L41.4648 211.689C41.6039 210.576 41.4187 209.446 40.9316 208.434L40.9596 208.427C41.1617 208.377 41.3411 208.26 41.4692 208.096C41.5973 207.932 41.6668 207.729 41.6666 207.521V206.967C41.6666 206.843 41.6174 206.724 41.5299 206.637C41.4424 206.549 41.3237 206.5 41.1999 206.5H39.8431L37.5179 202.431C37.2119 201.895 36.7698 201.45 36.2363 201.14C35.7028 200.83 35.0968 200.667 34.4799 200.667H25.5199ZM37.4923 207.088L35.4926 203.588C35.3905 203.409 35.2429 203.261 35.0649 203.158C34.8868 203.054 34.6846 203 34.4788 203H25.5211C25.3152 203 25.113 203.054 24.935 203.158C24.7569 203.261 24.6093 203.409 24.5073 203.588L22.5076 207.088C22.4063 207.265 22.3533 207.466 22.354 207.671C22.3547 207.875 22.409 208.076 22.5115 208.252C22.6141 208.429 22.7612 208.576 22.9382 208.678C23.1152 208.78 23.3159 208.833 23.5203 208.833H36.4796C36.6839 208.833 36.8846 208.78 37.0616 208.678C37.2386 208.576 37.3858 208.429 37.4883 208.252C37.5908 208.076 37.6452 207.875 37.6459 207.671C37.6466 207.466 37.5936 207.265 37.4923 207.088ZM21.8333 213.546V212.729C21.8332 212.628 21.8594 212.529 21.9093 212.441C21.9592 212.353 22.0311 212.279 22.1179 212.228C22.2047 212.176 22.3034 212.147 22.4045 212.145C22.5055 212.143 22.6054 212.167 22.6943 212.216L25.8933 213.942C26.3284 214.178 26.1476 214.839 25.6529 214.82L22.9533 214.711C22.6524 214.699 22.3678 214.571 22.1591 214.354C21.9504 214.137 21.8336 213.848 21.8333 213.547V213.546ZM38.1666 212.729V213.546C38.1668 213.847 38.0503 214.137 37.8415 214.354C37.6327 214.572 37.3478 214.7 37.0466 214.712L34.3469 214.82C33.8523 214.839 33.6703 214.178 34.1066 213.942L37.3056 212.216C37.3945 212.167 37.4943 212.143 37.5954 212.145C37.6964 212.147 37.7952 212.176 37.882 212.228C37.9688 212.279 38.0407 212.353 38.0905 212.441C38.1404 212.529 38.1666 212.628 38.1666 212.729Z" fill="#fff"/>
<path fill-rule="evenodd" clip-rule="evenodd" d="M106.16 202.095C106.774 202.063 107.513 202.093 108.13 202.115C111.864 202.242 115.958 203.27 118.821 205.784C119.98 206.801 120.94 208.206 120.997 209.785C121.048 211.215 120.368 212.551 119.407 213.583C117.222 215.93 113.878 217.117 110.78 217.638C109.851 217.794 108.851 217.861 107.921 217.907C103.46 218.032 98.6433 217.226 95.166 214.225C92.7092 212.105 92.1579 208.833 94.4736 206.388C97.3744 203.325 102.008 202.305 106.063 202.101C106.096 202.098 106.128 202.097 106.16 202.095ZM106.442 203.504C105.435 203.539 104.368 203.584 103.365 203.758C100.724 204.217 97.838 205.064 95.915 207.029C94.0944 208.889 94.3069 211.417 96.2324 213.116C98.4333 215.057 101.436 215.901 104.302 216.248C105.279 216.358 106.642 216.422 107.608 216.381L107.684 216.378C108.361 216.336 109.088 216.342 109.762 216.252C112.773 215.849 116.115 214.964 118.248 212.673C120.066 210.72 119.573 208.22 117.615 206.593C114.548 204.044 110.312 203.406 106.442 203.504ZM106.025 204.295C109.77 204.136 114.095 204.726 117.038 207.245C118.683 208.654 118.965 210.79 117.416 212.39C115.143 214.737 111.195 215.569 108.05 215.699L107.994 215.701C104.328 215.881 99.8288 215.196 96.9502 212.742C95.3382 211.367 95.0251 209.16 96.5722 207.596C98.8456 205.298 102.799 204.44 105.908 204.303C105.947 204.3 105.986 204.297 106.025 204.295ZM113.379 207.229C113.082 207.162 112.675 207.098 112.373 207.137C111.737 207.215 111.139 207.343 110.721 207.883C110.485 208.193 110.383 208.585 110.439 208.971C110.588 210.015 111.825 210.225 112.689 210.414C113.034 210.49 114.191 210.738 113.698 211.39C113.336 211.869 112.194 211.869 111.771 211.475C111.561 211.302 111.529 211.148 111.464 210.894C111.121 210.878 110.672 210.871 110.328 210.896C110.304 212.203 111.37 212.659 112.526 212.68C113.261 212.667 113.995 212.598 114.55 212.052C115.068 211.541 115.099 210.534 114.545 210.043C113.801 209.386 112.726 209.425 111.853 209.064C111.541 208.935 111.471 208.527 111.714 208.295C111.928 208.086 112.308 208.005 112.599 208.013C113.129 208.027 113.448 208.185 113.645 208.678C113.878 208.682 114.494 208.718 114.674 208.629C114.729 208.545 114.723 208.44 114.701 208.344C114.558 207.735 113.954 207.358 113.379 207.229ZM106.17 207.249C105.832 207.242 105.376 207.225 105.047 207.257C105.021 207.299 105.007 207.328 105.003 207.378C104.96 207.879 105.002 208.401 105.004 208.905C105.006 209.488 104.975 210.079 105.005 210.661C105.015 210.865 105.039 211.071 105.088 211.269C105.203 211.735 105.467 212.111 105.885 212.355C106.493 212.709 107.449 212.757 108.126 212.571C108.618 212.435 109.06 212.142 109.312 211.691C109.687 211.022 109.546 209.027 109.549 208.206C109.549 207.906 109.557 207.549 109.531 207.254C109.212 207.241 108.73 207.226 108.414 207.26C108.285 208.436 108.529 209.883 108.312 211.028C108.142 211.915 106.286 212.001 106.206 210.789C106.129 209.613 106.219 208.424 106.17 207.249ZM101.311 207.239C100.863 207.24 100.282 207.225 99.8428 207.257C99.7946 207.313 99.7782 207.361 99.7773 207.435C99.7594 209.074 99.7534 210.717 99.7783 212.356C99.7791 212.406 99.7901 212.449 99.8056 212.496C99.9889 212.625 100.674 212.57 100.916 212.551C100.941 211.923 100.93 211.247 100.93 210.615L101.897 210.613C102.071 210.923 102.953 212.316 103.151 212.556L103.485 212.568C103.805 212.566 104.192 212.573 104.505 212.547C104.258 212.087 103.378 210.949 103.029 210.462C104.37 210.098 104.602 208.157 103.333 207.48C103.141 207.378 102.932 207.31 102.717 207.278C102.354 207.222 101.694 207.237 101.311 207.239ZM100.929 208.108C101.41 208.103 102.098 208.048 102.541 208.171C103.127 208.334 103.22 209.059 102.827 209.475C102.381 209.809 101.513 209.709 100.929 209.708C100.922 209.18 100.929 208.637 100.929 208.108Z" fill="#fff"/>
<path fill-rule="evenodd" clip-rule="evenodd" d="M179.52 200.667C178.903 200.667 178.297 200.83 177.763 201.14C177.23 201.45 176.788 201.895 176.482 202.431L174.157 206.5H172.8C172.676 206.5 172.557 206.549 172.47 206.637C172.382 206.724 172.333 206.843 172.333 206.967V207.521C172.333 207.729 172.402 207.932 172.53 208.096C172.658 208.26 172.838 208.377 173.04 208.427L173.068 208.433C172.581 209.444 172.396 210.575 172.535 211.688L173.381 218.456C173.451 219.021 173.725 219.54 174.152 219.916C174.578 220.293 175.128 220.5 175.697 220.5H175.833C176.452 220.5 177.045 220.254 177.483 219.817C177.921 219.379 178.166 218.786 178.166 218.167H189.833C189.833 218.786 190.079 219.379 190.516 219.817C190.954 220.254 191.548 220.5 192.166 220.5H192.303C192.872 220.5 193.421 220.293 193.847 219.916C194.274 219.54 194.548 219.021 194.619 218.456L195.465 211.689C195.604 210.576 195.418 209.446 194.931 208.434L194.959 208.427C195.161 208.377 195.341 208.26 195.469 208.096C195.597 207.932 195.667 207.729 195.666 207.521V206.967C195.666 206.843 195.617 206.724 195.53 206.637C195.442 206.549 195.323 206.5 195.2 206.5H193.843L191.518 202.431C191.212 201.895 190.77 201.45 190.236 201.14C189.703 200.83 189.097 200.667 188.48 200.667H179.52ZM191.492 207.088L189.492 203.588C189.39 203.409 189.243 203.261 189.065 203.158C188.887 203.054 188.684 203 188.479 203H179.521C179.315 203 179.113 203.054 178.935 203.158C178.757 203.261 178.609 203.409 178.507 203.588L176.507 207.088C176.406 207.265 176.353 207.466 176.354 207.671C176.354 207.875 176.409 208.076 176.511 208.252C176.614 208.429 176.761 208.576 176.938 208.678C177.115 208.78 177.316 208.833 177.52 208.833H190.479C190.684 208.833 190.884 208.78 191.061 208.678C191.238 208.576 191.386 208.429 191.488 208.252C191.591 208.076 191.645 207.875 191.646 207.671C191.646 207.466 191.593 207.265 191.492 207.088ZM175.833 213.546V212.729C175.833 212.628 175.859 212.529 175.909 212.441C175.959 212.353 176.031 212.279 176.118 212.228C176.204 212.176 176.303 212.147 176.404 212.145C176.505 212.143 176.605 212.167 176.694 212.216L179.893 213.942C180.328 214.178 180.147 214.839 179.653 214.82L176.953 214.711C176.652 214.699 176.368 214.571 176.159 214.354C175.95 214.137 175.833 213.848 175.833 213.547V213.546ZM192.166 212.729V213.546C192.167 213.847 192.05 214.137 191.841 214.354C191.632 214.572 191.348 214.7 191.046 214.712L188.347 214.82C187.852 214.839 187.67 214.178 188.106 213.942L191.305 212.216C191.394 212.167 191.494 212.143 191.595 212.145C191.696 212.147 191.795 212.176 191.882 212.228C191.969 212.279 192.04 212.353 192.09 212.441C192.14 212.529 192.166 212.628 192.166 212.729Z" fill="#fff"/>
<path fill-rule="evenodd" clip-rule="evenodd" d="M260.16 202.095C260.774 202.063 261.512 202.093 262.13 202.115C265.863 202.242 269.958 203.27 272.821 205.784C273.979 206.801 274.94 208.206 274.997 209.785C275.048 211.215 274.368 212.551 273.407 213.583C271.221 215.93 267.878 217.117 264.78 217.638C263.851 217.794 262.85 217.861 261.921 217.907C257.46 218.032 252.643 217.226 249.166 214.225C246.709 212.105 246.158 208.833 248.473 206.388C251.374 203.325 256.008 202.305 260.063 202.101C260.095 202.098 260.128 202.097 260.16 202.095ZM260.442 203.504C259.435 203.539 258.368 203.584 257.365 203.758C254.724 204.217 251.838 205.064 249.915 207.029C248.094 208.889 248.307 211.417 250.232 213.116C252.433 215.057 255.435 215.901 258.301 216.248C259.279 216.358 260.641 216.422 261.608 216.381L261.683 216.378C262.361 216.336 263.088 216.342 263.761 216.252C266.773 215.849 270.114 214.964 272.248 212.673C274.066 210.72 273.572 208.22 271.615 206.593C268.548 204.044 264.312 203.406 260.442 203.504ZM260.025 204.295C263.77 204.136 268.095 204.726 271.038 207.245C272.683 208.654 272.965 210.79 271.416 212.39C269.142 214.737 265.194 215.569 262.05 215.699L261.994 215.701C258.328 215.881 253.829 215.196 250.95 212.742C249.338 211.367 249.025 209.16 250.572 207.596C252.845 205.298 256.799 204.44 259.908 204.303C259.947 204.3 259.986 204.297 260.025 204.295ZM267.379 207.229C267.082 207.162 266.675 207.098 266.373 207.137C265.737 207.215 265.138 207.343 264.72 207.883C264.484 208.193 264.383 208.585 264.439 208.971C264.588 210.015 265.825 210.225 266.689 210.414C267.034 210.49 268.191 210.738 267.698 211.39C267.336 211.869 266.194 211.869 265.771 211.475C265.561 211.302 265.529 211.148 265.464 210.894C265.12 210.878 264.671 210.871 264.328 210.896C264.304 212.203 265.37 212.659 266.526 212.68C267.261 212.667 267.995 212.598 268.55 212.052C269.068 211.541 269.098 210.534 268.545 210.043C267.801 209.386 266.725 209.425 265.852 209.064C265.54 208.935 265.471 208.527 265.714 208.295C265.928 208.086 266.308 208.005 266.598 208.013C267.129 208.027 267.448 208.185 267.644 208.678C267.878 208.682 268.494 208.718 268.674 208.629C268.728 208.545 268.723 208.44 268.701 208.344C268.558 207.735 267.954 207.358 267.379 207.229ZM260.17 207.249C259.832 207.242 259.375 207.225 259.047 207.257C259.021 207.299 259.007 207.328 259.003 207.378C258.96 207.879 259.001 208.401 259.004 208.905C259.006 209.488 258.974 210.079 259.005 210.661C259.015 210.865 259.039 211.071 259.088 211.269C259.203 211.735 259.467 212.111 259.885 212.355C260.493 212.709 261.449 212.757 262.126 212.571C262.618 212.435 263.06 212.142 263.312 211.691C263.686 211.022 263.546 209.027 263.549 208.206C263.549 207.906 263.557 207.549 263.531 207.254C263.212 207.241 262.73 207.226 262.414 207.26C262.285 208.436 262.529 209.883 262.311 211.028C262.142 211.915 260.285 212.001 260.206 210.789C260.129 209.613 260.219 208.424 260.17 207.249ZM255.31 207.239C254.863 207.24 254.282 207.225 253.843 207.257C253.794 207.313 253.778 207.361 253.777 207.435C253.759 209.074 253.753 210.717 253.778 212.356C253.779 212.406 253.79 212.449 253.805 212.496C253.989 212.625 254.674 212.57 254.916 212.551C254.94 211.923 254.93 211.247 254.929 210.615L255.897 210.613C256.071 210.923 256.952 212.316 257.151 212.556L257.485 212.568C257.804 212.566 258.192 212.573 258.505 212.547C258.258 212.087 257.378 210.949 257.029 210.462C258.37 210.098 258.602 208.157 257.333 207.48C257.14 207.378 256.932 207.31 256.717 207.278C256.354 207.222 255.694 207.237 255.31 207.239ZM254.928 208.108C255.409 208.103 256.097 208.048 256.541 208.171C257.127 208.334 257.219 209.059 256.827 209.475C256.38 209.809 255.513 209.709 254.928 209.708C254.921 209.18 254.929 208.637 254.928 208.108Z" fill="#fff"/>
<path fill-rule="evenodd" clip-rule="evenodd" d="M333.519 200.667C332.903 200.667 332.297 200.83 331.763 201.14C331.23 201.45 330.787 201.895 330.481 202.431L328.156 206.5H326.799C326.676 206.5 326.557 206.549 326.469 206.637C326.382 206.724 326.333 206.843 326.333 206.967V207.521C326.333 207.729 326.402 207.932 326.53 208.096C326.658 208.26 326.838 208.377 327.04 208.427L327.068 208.433C326.581 209.444 326.395 210.575 326.535 211.688L327.38 218.456C327.451 219.021 327.725 219.54 328.152 219.916C328.578 220.293 329.127 220.5 329.696 220.5H329.833C330.452 220.5 331.045 220.254 331.483 219.817C331.92 219.379 332.166 218.786 332.166 218.167H343.833C343.833 218.786 344.079 219.379 344.516 219.817C344.954 220.254 345.547 220.5 346.166 220.5H346.303C346.871 220.5 347.421 220.293 347.847 219.916C348.274 219.54 348.548 219.021 348.618 218.456L349.464 211.689C349.603 210.576 349.418 209.446 348.931 208.434L348.959 208.427C349.161 208.377 349.341 208.26 349.469 208.096C349.597 207.932 349.666 207.729 349.666 207.521V206.967C349.666 206.843 349.617 206.724 349.529 206.637C349.442 206.549 349.323 206.5 349.199 206.5H347.843L345.517 202.431C345.211 201.895 344.769 201.45 344.236 201.14C343.702 200.83 343.096 200.667 342.479 200.667H333.519ZM345.492 207.088L343.492 203.588C343.39 203.409 343.242 203.261 343.064 203.158C342.886 203.054 342.684 203 342.478 203H333.521C333.315 203 333.113 203.054 332.934 203.158C332.756 203.261 332.609 203.409 332.507 203.588L330.507 207.088C330.406 207.265 330.353 207.466 330.353 207.671C330.354 207.875 330.408 208.076 330.511 208.252C330.614 208.429 330.761 208.576 330.938 208.678C331.115 208.78 331.315 208.833 331.52 208.833H344.479C344.683 208.833 344.884 208.78 345.061 208.678C345.238 208.576 345.385 208.429 345.488 208.252C345.59 208.076 345.645 207.875 345.645 207.671C345.646 207.466 345.593 207.265 345.492 207.088ZM329.833 213.546V212.729C329.833 212.628 329.859 212.529 329.909 212.441C329.959 212.353 330.031 212.279 330.117 212.228C330.204 212.176 330.303 212.147 330.404 212.145C330.505 212.143 330.605 212.167 330.694 212.216L333.893 213.942C334.328 214.178 334.147 214.839 333.652 214.82L330.953 214.711C330.652 214.699 330.367 214.571 330.159 214.354C329.95 214.137 329.833 213.848 329.833 213.547V213.546ZM346.166 212.729V213.546C346.166 213.847 346.05 214.137 345.841 214.354C345.632 214.572 345.347 214.7 345.046 214.712L342.346 214.82C341.852 214.839 341.67 214.178 342.106 213.942L345.305 212.216C345.394 212.167 345.494 212.143 345.595 212.145C345.696 212.147 345.795 212.176 345.881 212.228C345.968 212.279 346.04 212.353 346.09 212.441C346.14 212.529 346.166 212.628 346.166 212.729Z" fill="#fff"/>
</g></svg>