<svg width="42" height="42" viewBox="0 0 42 42" fill="none" xmlns="http://www.w3.org/2000/svg">
<path fill-rule="evenodd" clip-rule="evenodd" d="M13.9626 6.84448C13.0577 6.84477 12.1691 7.08422 11.3866 7.53857C10.6041 7.99291 9.95562 8.646 9.50683 9.43168L6.09659 15.4H4.10656C3.92504 15.4 3.75095 15.4721 3.62259 15.6005C3.49423 15.7289 3.42212 15.903 3.42212 16.0845V16.8973C3.42178 17.2028 3.52368 17.4997 3.7116 17.7406C3.89951 17.9816 4.16262 18.1527 4.45905 18.2268L4.50012 18.2353C3.78562 19.7183 3.51411 21.3759 3.71814 23.0093L4.9587 32.9355C5.06215 33.7633 5.46443 34.5249 6.08991 35.0769C6.71539 35.629 7.52099 35.9336 8.35525 35.9334H8.55545C9.46308 35.9334 10.3335 35.5728 10.9753 34.931C11.6171 34.2892 11.9777 33.4188 11.9777 32.5111H29.0888C29.0888 33.4188 29.4493 34.2892 30.0911 34.931C30.7329 35.5728 31.6034 35.9334 32.511 35.9334H32.7112C33.5455 35.9336 34.3511 35.629 34.9766 35.0769C35.602 34.5249 36.0043 33.7633 36.1078 32.9355L37.3483 23.0111C37.5524 21.3776 37.2808 19.72 36.5663 18.2371L36.6074 18.2268C36.9038 18.1527 37.167 17.9816 37.3549 17.7406C37.5428 17.4997 37.6447 17.2028 37.6443 16.8973V16.0845C37.6443 15.903 37.5722 15.7289 37.4439 15.6005C37.3155 15.4721 37.1414 15.4 36.9599 15.4H34.9699L31.5596 9.43168C31.1108 8.646 30.4624 7.99291 29.6799 7.53857C28.8974 7.08422 28.0087 6.84477 27.1039 6.84448H13.9626ZM31.522 16.2624L28.5891 11.1291C28.4394 10.867 28.223 10.6491 27.9618 10.4976C27.7007 10.3462 27.4041 10.2665 27.1022 10.2667H13.9643C13.6624 10.2665 13.3658 10.3462 13.1046 10.4976C12.8435 10.6491 12.6271 10.867 12.4773 11.1291L9.54448 16.2624C9.39585 16.5226 9.31816 16.8173 9.31917 17.1169C9.32018 17.4166 9.39987 17.7107 9.55024 17.9699C9.70062 18.2291 9.91643 18.4442 10.1761 18.5938C10.4357 18.7434 10.7301 18.8222 11.0297 18.8223H30.0367C30.3364 18.8222 30.6308 18.7434 30.8904 18.5938C31.15 18.4442 31.3658 18.2291 31.5162 17.9699C31.6666 17.7107 31.7463 17.4166 31.7473 17.1169C31.7483 16.8173 31.6706 16.5226 31.522 16.2624ZM8.55545 25.7334V24.5357C8.55537 24.3874 8.5938 24.2417 8.66698 24.1128C8.74015 23.9839 8.84556 23.8762 8.97288 23.8003C9.1002 23.7244 9.24505 23.6829 9.39325 23.6798C9.54144 23.6767 9.68789 23.7122 9.81825 23.7828L14.5101 26.3152C15.1484 26.6609 14.8831 27.6311 14.1576 27.602L10.1981 27.4428C9.75686 27.4252 9.33952 27.2376 9.03337 26.9193C8.72723 26.6011 8.55598 26.1768 8.55545 25.7351V25.7334ZM32.511 24.5357V25.7334C32.5114 26.1756 32.3405 26.6008 32.0343 26.9198C31.728 27.2388 31.3102 27.4269 30.8683 27.4445L26.9088 27.602C26.1833 27.6311 25.9164 26.6609 26.5563 26.3152L31.2482 23.7828C31.3786 23.7122 31.525 23.6767 31.6732 23.6798C31.8214 23.6829 31.9663 23.7244 32.0936 23.8003C32.2209 23.8762 32.3263 23.9839 32.3995 24.1128C32.4727 24.2417 32.5111 24.3874 32.511 24.5357Z" fill="white"/>
</svg>
