<svg width="40" height="35" viewBox="0 0 40 35" fill="none" xmlns="http://www.w3.org/2000/svg">
<path d="M12.609 0.0438982C15.2592 -0.308308 17.7246 1.51805 19.3562 3.40106C20.1884 4.34853 20.8136 3.17004 21.3786 2.60409C22.8569 1.12329 24.612 0.0226964 26.7675 0.00955676C27.9874 -0.0349925 29.7476 0.588331 29.9343 1.96679C30.0065 2.4996 28.5044 2.82103 28.1412 2.92876C25.6453 3.66904 24.2524 5.55555 24.0827 8.12642C23.9402 10.2849 25.6255 10.0151 27.0262 9.31376C30.0323 7.49996 32.4783 4.83412 35.3122 2.78868C36.1154 2.20896 37.4353 2.36308 38.0764 3.17905C39.7517 5.31129 40.088 8.31331 39.9824 10.9481C39.5715 18.3717 33.5222 23.2895 26.237 22.9908C25.9582 22.9794 25.5317 22.9742 25.3174 23.1625C25.1387 23.6974 28.2494 30.334 28.4881 31.8481C28.5002 32.3691 28.5043 32.7664 28.1302 33.1804C27.149 34.2662 23.2493 34.5079 21.737 34.5794C19.5839 34.6813 13.5161 34.6995 11.9302 33.2255C11.5763 32.8965 11.4936 32.5105 11.5197 32.0384C11.598 30.6209 13.5864 26.3626 14.2177 24.7957C14.3859 24.3781 14.7478 23.6986 14.6971 23.2516C14.6883 23.1736 14.6707 23.0994 14.593 23.0703C14.1716 22.9127 12.4453 22.9586 11.8469 22.9153C9.56176 22.7498 7.05093 21.9521 5.19258 20.5875C2.46099 18.5912 0.65112 15.5765 0.173381 12.227C-0.250125 9.41018 0.0433447 5.84164 1.71282 3.43629C2.40477 2.43935 3.56624 2.13421 4.62223 2.77114C5.5006 3.30086 6.26412 4.047 7.06114 4.69869C8.50252 5.87729 9.88722 7.13524 11.3784 8.25306C12.2307 8.90575 14.5834 10.6374 15.6826 9.39322C16.0165 9.01531 15.9298 8.00434 15.8504 7.49493C15.5103 5.31589 14.116 3.61899 12.0023 2.95756C11.4612 2.76831 10.7809 2.70696 10.2938 2.40464C9.84528 2.12625 10.1558 1.4333 10.4018 1.12868C10.9781 0.414898 11.7366 0.150324 12.609 0.0438982Z" fill="#FDFDFC"/>
</svg>
