<svg width="29" height="36" viewBox="0 0 29 36" fill="none" xmlns="http://www.w3.org/2000/svg">
<path d="M15.6292 0.440507C15.2109 0.153573 14.7156 0 14.2083 0C13.7011 0 13.2058 0.153573 12.7875 0.440507L11.6692 1.20501C8.8148 3.16134 5.51585 4.3715 2.07351 4.72501C1.50336 4.78533 0.975811 5.05487 0.592833 5.48153C0.209856 5.90819 -0.00136156 6.46168 6.60531e-06 7.03501V16.0733C6.60531e-06 20.7318 2.44751 24.9705 5.11501 28.2283C7.80267 31.5155 10.8643 33.9887 12.4062 35.1455C12.9251 35.5378 13.5578 35.7501 14.2083 35.7501C14.8589 35.7501 15.4916 35.5378 16.0105 35.1455C17.5523 33.9905 20.614 31.5155 23.3017 28.2302C25.9692 24.9705 28.4167 20.7318 28.4167 16.0752V7.03317C28.4167 5.85984 27.5403 4.84417 26.3432 4.72317C22.9008 4.36967 19.6019 3.15951 16.7475 1.20317L15.6292 0.440507Z" fill="white"/>
</svg>
