<svg width="42" height="42" viewBox="0 0 42 42" fill="none" xmlns="http://www.w3.org/2000/svg">
<path d="M24.6396 0C26.7015 0 28.373 1.67154 28.373 3.7334V12.6934H37.333C39.3949 12.6934 41.0664 14.3649 41.0664 16.4268V24.6396C41.0664 26.7015 39.3949 28.373 37.333 28.373H28.373V37.333C28.373 39.3949 26.7015 41.0664 24.6396 41.0664H16.1777C14.1159 41.0664 12.4443 39.3948 12.4443 37.333V28.373H3.7334C1.67154 28.373 -9.01269e-08 26.7015 0 24.6396V16.4268C9.01269e-08 14.3649 1.67154 12.6934 3.7334 12.6934H12.4443V3.7334C12.4443 1.67156 14.1159 3.95971e-05 16.1777 0H24.6396Z" fill="white"/>
</svg>
