<svg width="42" height="36" viewBox="0 0 42 36" fill="none" xmlns="http://www.w3.org/2000/svg">
<path d="M20.6731 3.84575C22.4295 0.78864 27.0551 -1.55668 30.0949 1.284C30.2967 1.47261 30.5771 1.86688 30.5665 2.15302C30.3765 2.65858 29.4313 2.40151 28.7293 2.64347C27.9952 2.89648 27.475 3.0698 26.9032 3.42902C25.6593 4.21044 24.4889 5.69079 24.1974 7.1371C23.9923 8.30177 23.9754 9.53791 24.6181 10.571C25.192 11.4934 26.2788 11.5716 27.2055 11.1375C28.2821 10.6331 29.2894 9.64482 30.235 8.92826C30.6749 8.59492 31.1407 8.24497 31.5806 7.89483C32.7226 6.9726 33.8578 6.04213 34.9862 5.10345C35.5239 4.65788 36.0081 4.15588 36.5639 3.75985C36.8913 3.52936 37.3616 3.36025 37.765 3.46858C38.9009 3.77391 39.5654 5.56841 39.9548 6.53656C41.0329 9.21695 41.3896 12.3493 40.7465 15.1737C40.0737 18.1284 38.1329 20.6984 35.5529 22.2703C33.2426 23.6948 30.5778 24.4932 27.8745 24.7252C27.4217 24.764 26.595 24.798 26.1618 24.6999C26.6159 25.5489 27.2009 26.9753 27.5899 27.8696L29.4708 32.1321C29.8019 32.8948 30.2569 33.8551 30.53 34.6485C30.5673 34.7572 30.445 34.9009 30.3754 34.9953C30.2358 35.1453 30.1188 35.1911 29.9195 35.1926C28.8449 35.2016 27.7657 35.184 26.6912 35.1847L19.8096 35.1873L14.2932 35.1862C13.2434 35.1892 11.9065 35.2267 10.8821 35.1637C10.6358 34.881 10.5462 34.7629 10.6929 34.3905C10.8971 33.8727 11.1351 33.3729 11.3633 32.8652L12.5932 30.1208L14.1242 26.6683C14.3937 26.0557 14.7114 25.2574 15.0061 24.685C11.2435 25.1462 6.77647 23.4543 3.91565 21.0645C-1.10583 16.8699 -0.858657 9.69641 2.18462 4.41536C2.66056 3.5895 3.25985 3.18439 4.23457 3.65692C5.03776 4.1251 5.94946 4.97469 6.67401 5.57186L10.6413 8.78353C11.5651 9.5177 12.4514 10.2483 13.446 10.8699C14.6569 11.6267 15.9994 11.74 16.8012 10.386C17.3688 9.42764 17.3545 8.21489 17.1053 7.16751C16.5786 4.95339 14.7507 3.20561 12.5612 2.63743C12.0354 2.50065 11.3497 2.58614 10.8669 2.33364C10.5461 2.1658 10.9375 1.50002 11.1074 1.33691C11.8812 0.48537 12.9059 0.122256 14.023 0.0123172C14.3877 -0.0239792 14.9224 0.0251407 15.2876 0.0918841C17.0188 0.415365 18.5924 1.30485 19.7595 2.61962C20.1064 3.01315 20.3764 3.41571 20.6731 3.84575Z" fill="#FAFAFA"/>
</svg>
